%TF.GenerationSoftware,KiCad,Pcbnew,8.0.3*%
%TF.CreationDate,2024-11-15T01:42:40+09:00*%
%TF.ProjectId,nnct-main,6e6e6374-2d6d-4616-996e-2e6b69636164,rev?*%
%TF.SameCoordinates,Original*%
%TF.FileFunction,Drillmap*%
%TF.FilePolarity,Positive*%
%FSLAX45Y45*%
G04 Gerber Fmt 4.5, Leading zero omitted, Abs format (unit mm)*
G04 Created by KiCad (PCBNEW 8.0.3) date 2024-11-15 01:42:40*
%MOMM*%
%LPD*%
G01*
G04 APERTURE LIST*
%ADD10C,0.050000*%
%ADD11C,0.200000*%
%ADD12C,0.100000*%
%ADD13C,0.110000*%
%ADD14C,0.325000*%
G04 APERTURE END LIST*
D10*
X2045750Y-6858000D02*
X2045750Y-15758000D01*
X11445750Y-6358000D02*
G75*
G02*
X11945750Y-6858000I0J-500000D01*
G01*
X11445750Y-6358000D02*
X2545750Y-6358000D01*
X11945750Y-15758000D02*
G75*
G02*
X11445750Y-16258000I-500000J0D01*
G01*
X2545750Y-16258000D02*
G75*
G02*
X2045750Y-15758000I0J500000D01*
G01*
X11945750Y-15758000D02*
X11945750Y-6858000D01*
X2545750Y-16258000D02*
X11445750Y-16258000D01*
X2045750Y-6858000D02*
G75*
G02*
X2545750Y-6358000I500000J0D01*
G01*
D11*
D12*
X8499250Y-6953500D02*
X8564250Y-7018500D01*
X8564250Y-6953500D02*
X8499250Y-7018500D01*
X9077250Y-6953500D02*
X9142250Y-7018500D01*
X9142250Y-6953500D02*
X9077250Y-7018500D01*
X9935750Y-6766750D02*
G75*
G02*
X9845750Y-6766750I-45000J0D01*
G01*
X9845750Y-6766750D02*
G75*
G02*
X9935750Y-6766750I45000J0D01*
G01*
X10735750Y-6766750D02*
G75*
G02*
X10645750Y-6766750I-45000J0D01*
G01*
X10645750Y-6766750D02*
G75*
G02*
X10735750Y-6766750I45000J0D01*
G01*
D13*
X8475000Y-15455000D02*
X8475000Y-15565000D01*
X8420000Y-15510000D02*
X8530000Y-15510000D01*
X8975000Y-15455000D02*
X8975000Y-15565000D01*
X8920000Y-15510000D02*
X9030000Y-15510000D01*
D11*
X11706461Y-8878711D02*
X11706461Y-8737289D01*
X11565039Y-8737289D01*
X11565039Y-8878711D01*
X11706461Y-8878711D01*
D12*
X11735750Y-8848000D02*
X11735750Y-8768000D01*
X11535750Y-8768000D02*
G75*
G02*
X11735750Y-8768000I100000J0D01*
G01*
X11535750Y-8768000D02*
X11535750Y-8848000D01*
X11535750Y-8848000D02*
G75*
G03*
X11735750Y-8848000I100000J0D01*
G01*
D14*
X2631750Y-7900500D02*
X2794250Y-7738000D01*
X2631750Y-7575500D01*
X2469250Y-7738000D01*
X2631750Y-7900500D01*
X2631750Y-9170500D02*
X2794250Y-9008000D01*
X2631750Y-8845500D01*
X2469250Y-9008000D01*
X2631750Y-9170500D01*
X2631750Y-9898500D02*
X2794250Y-9736000D01*
X2631750Y-9573500D01*
X2469250Y-9736000D01*
X2631750Y-9898500D01*
X2631750Y-11168500D02*
X2794250Y-11006000D01*
X2631750Y-10843500D01*
X2469250Y-11006000D01*
X2631750Y-11168500D01*
X2631750Y-11896500D02*
X2794250Y-11734000D01*
X2631750Y-11571500D01*
X2469250Y-11734000D01*
X2631750Y-11896500D01*
X2631750Y-13166500D02*
X2794250Y-13004000D01*
X2631750Y-12841500D01*
X2469250Y-13004000D01*
X2631750Y-13166500D01*
X2631750Y-13894500D02*
X2794250Y-13732000D01*
X2631750Y-13569500D01*
X2469250Y-13732000D01*
X2631750Y-13894500D01*
X2631750Y-15164500D02*
X2794250Y-15002000D01*
X2631750Y-14839500D01*
X2469250Y-15002000D01*
X2631750Y-15164500D01*
D11*
X2304027Y-16571984D02*
X2304027Y-16371984D01*
X2304027Y-16371984D02*
X2351646Y-16371984D01*
X2351646Y-16371984D02*
X2380217Y-16381508D01*
X2380217Y-16381508D02*
X2399265Y-16400555D01*
X2399265Y-16400555D02*
X2408789Y-16419603D01*
X2408789Y-16419603D02*
X2418313Y-16457698D01*
X2418313Y-16457698D02*
X2418313Y-16486269D01*
X2418313Y-16486269D02*
X2408789Y-16524365D01*
X2408789Y-16524365D02*
X2399265Y-16543412D01*
X2399265Y-16543412D02*
X2380217Y-16562460D01*
X2380217Y-16562460D02*
X2351646Y-16571984D01*
X2351646Y-16571984D02*
X2304027Y-16571984D01*
X2504027Y-16571984D02*
X2504027Y-16438650D01*
X2504027Y-16476746D02*
X2513551Y-16457698D01*
X2513551Y-16457698D02*
X2523074Y-16448174D01*
X2523074Y-16448174D02*
X2542122Y-16438650D01*
X2542122Y-16438650D02*
X2561170Y-16438650D01*
X2627836Y-16571984D02*
X2627836Y-16438650D01*
X2627836Y-16371984D02*
X2618313Y-16381508D01*
X2618313Y-16381508D02*
X2627836Y-16391031D01*
X2627836Y-16391031D02*
X2637360Y-16381508D01*
X2637360Y-16381508D02*
X2627836Y-16371984D01*
X2627836Y-16371984D02*
X2627836Y-16391031D01*
X2751646Y-16571984D02*
X2732598Y-16562460D01*
X2732598Y-16562460D02*
X2723074Y-16543412D01*
X2723074Y-16543412D02*
X2723074Y-16371984D01*
X2856408Y-16571984D02*
X2837360Y-16562460D01*
X2837360Y-16562460D02*
X2827836Y-16543412D01*
X2827836Y-16543412D02*
X2827836Y-16371984D01*
X3084979Y-16571984D02*
X3084979Y-16371984D01*
X3084979Y-16371984D02*
X3151646Y-16514841D01*
X3151646Y-16514841D02*
X3218312Y-16371984D01*
X3218312Y-16371984D02*
X3218312Y-16571984D01*
X3399265Y-16571984D02*
X3399265Y-16467222D01*
X3399265Y-16467222D02*
X3389741Y-16448174D01*
X3389741Y-16448174D02*
X3370693Y-16438650D01*
X3370693Y-16438650D02*
X3332598Y-16438650D01*
X3332598Y-16438650D02*
X3313551Y-16448174D01*
X3399265Y-16562460D02*
X3380217Y-16571984D01*
X3380217Y-16571984D02*
X3332598Y-16571984D01*
X3332598Y-16571984D02*
X3313551Y-16562460D01*
X3313551Y-16562460D02*
X3304027Y-16543412D01*
X3304027Y-16543412D02*
X3304027Y-16524365D01*
X3304027Y-16524365D02*
X3313551Y-16505317D01*
X3313551Y-16505317D02*
X3332598Y-16495793D01*
X3332598Y-16495793D02*
X3380217Y-16495793D01*
X3380217Y-16495793D02*
X3399265Y-16486269D01*
X3494503Y-16438650D02*
X3494503Y-16638650D01*
X3494503Y-16448174D02*
X3513551Y-16438650D01*
X3513551Y-16438650D02*
X3551646Y-16438650D01*
X3551646Y-16438650D02*
X3570693Y-16448174D01*
X3570693Y-16448174D02*
X3580217Y-16457698D01*
X3580217Y-16457698D02*
X3589741Y-16476746D01*
X3589741Y-16476746D02*
X3589741Y-16533888D01*
X3589741Y-16533888D02*
X3580217Y-16552936D01*
X3580217Y-16552936D02*
X3570693Y-16562460D01*
X3570693Y-16562460D02*
X3551646Y-16571984D01*
X3551646Y-16571984D02*
X3513551Y-16571984D01*
X3513551Y-16571984D02*
X3494503Y-16562460D01*
X3675455Y-16552936D02*
X3684979Y-16562460D01*
X3684979Y-16562460D02*
X3675455Y-16571984D01*
X3675455Y-16571984D02*
X3665932Y-16562460D01*
X3665932Y-16562460D02*
X3675455Y-16552936D01*
X3675455Y-16552936D02*
X3675455Y-16571984D01*
X3675455Y-16448174D02*
X3684979Y-16457698D01*
X3684979Y-16457698D02*
X3675455Y-16467222D01*
X3675455Y-16467222D02*
X3665932Y-16457698D01*
X3665932Y-16457698D02*
X3675455Y-16448174D01*
X3675455Y-16448174D02*
X3675455Y-16467222D01*
D12*
X1978250Y-16868000D02*
X2043250Y-16933000D01*
X2043250Y-16868000D02*
X1978250Y-16933000D01*
D11*
X2342122Y-16791984D02*
X2361170Y-16791984D01*
X2361170Y-16791984D02*
X2380217Y-16801508D01*
X2380217Y-16801508D02*
X2389741Y-16811031D01*
X2389741Y-16811031D02*
X2399265Y-16830079D01*
X2399265Y-16830079D02*
X2408789Y-16868174D01*
X2408789Y-16868174D02*
X2408789Y-16915793D01*
X2408789Y-16915793D02*
X2399265Y-16953889D01*
X2399265Y-16953889D02*
X2389741Y-16972936D01*
X2389741Y-16972936D02*
X2380217Y-16982460D01*
X2380217Y-16982460D02*
X2361170Y-16991984D01*
X2361170Y-16991984D02*
X2342122Y-16991984D01*
X2342122Y-16991984D02*
X2323074Y-16982460D01*
X2323074Y-16982460D02*
X2313551Y-16972936D01*
X2313551Y-16972936D02*
X2304027Y-16953889D01*
X2304027Y-16953889D02*
X2294503Y-16915793D01*
X2294503Y-16915793D02*
X2294503Y-16868174D01*
X2294503Y-16868174D02*
X2304027Y-16830079D01*
X2304027Y-16830079D02*
X2313551Y-16811031D01*
X2313551Y-16811031D02*
X2323074Y-16801508D01*
X2323074Y-16801508D02*
X2342122Y-16791984D01*
X2494503Y-16972936D02*
X2504027Y-16982460D01*
X2504027Y-16982460D02*
X2494503Y-16991984D01*
X2494503Y-16991984D02*
X2484979Y-16982460D01*
X2484979Y-16982460D02*
X2494503Y-16972936D01*
X2494503Y-16972936D02*
X2494503Y-16991984D01*
X2675455Y-16791984D02*
X2637360Y-16791984D01*
X2637360Y-16791984D02*
X2618313Y-16801508D01*
X2618313Y-16801508D02*
X2608789Y-16811031D01*
X2608789Y-16811031D02*
X2589741Y-16839603D01*
X2589741Y-16839603D02*
X2580217Y-16877698D01*
X2580217Y-16877698D02*
X2580217Y-16953889D01*
X2580217Y-16953889D02*
X2589741Y-16972936D01*
X2589741Y-16972936D02*
X2599265Y-16982460D01*
X2599265Y-16982460D02*
X2618313Y-16991984D01*
X2618313Y-16991984D02*
X2656408Y-16991984D01*
X2656408Y-16991984D02*
X2675455Y-16982460D01*
X2675455Y-16982460D02*
X2684979Y-16972936D01*
X2684979Y-16972936D02*
X2694503Y-16953889D01*
X2694503Y-16953889D02*
X2694503Y-16906270D01*
X2694503Y-16906270D02*
X2684979Y-16887222D01*
X2684979Y-16887222D02*
X2675455Y-16877698D01*
X2675455Y-16877698D02*
X2656408Y-16868174D01*
X2656408Y-16868174D02*
X2618313Y-16868174D01*
X2618313Y-16868174D02*
X2599265Y-16877698D01*
X2599265Y-16877698D02*
X2589741Y-16887222D01*
X2589741Y-16887222D02*
X2580217Y-16906270D01*
X2875455Y-16791984D02*
X2780217Y-16791984D01*
X2780217Y-16791984D02*
X2770694Y-16887222D01*
X2770694Y-16887222D02*
X2780217Y-16877698D01*
X2780217Y-16877698D02*
X2799265Y-16868174D01*
X2799265Y-16868174D02*
X2846884Y-16868174D01*
X2846884Y-16868174D02*
X2865932Y-16877698D01*
X2865932Y-16877698D02*
X2875455Y-16887222D01*
X2875455Y-16887222D02*
X2884979Y-16906270D01*
X2884979Y-16906270D02*
X2884979Y-16953889D01*
X2884979Y-16953889D02*
X2875455Y-16972936D01*
X2875455Y-16972936D02*
X2865932Y-16982460D01*
X2865932Y-16982460D02*
X2846884Y-16991984D01*
X2846884Y-16991984D02*
X2799265Y-16991984D01*
X2799265Y-16991984D02*
X2780217Y-16982460D01*
X2780217Y-16982460D02*
X2770694Y-16972936D01*
X3008789Y-16791984D02*
X3027836Y-16791984D01*
X3027836Y-16791984D02*
X3046884Y-16801508D01*
X3046884Y-16801508D02*
X3056408Y-16811031D01*
X3056408Y-16811031D02*
X3065932Y-16830079D01*
X3065932Y-16830079D02*
X3075455Y-16868174D01*
X3075455Y-16868174D02*
X3075455Y-16915793D01*
X3075455Y-16915793D02*
X3065932Y-16953889D01*
X3065932Y-16953889D02*
X3056408Y-16972936D01*
X3056408Y-16972936D02*
X3046884Y-16982460D01*
X3046884Y-16982460D02*
X3027836Y-16991984D01*
X3027836Y-16991984D02*
X3008789Y-16991984D01*
X3008789Y-16991984D02*
X2989741Y-16982460D01*
X2989741Y-16982460D02*
X2980217Y-16972936D01*
X2980217Y-16972936D02*
X2970693Y-16953889D01*
X2970693Y-16953889D02*
X2961170Y-16915793D01*
X2961170Y-16915793D02*
X2961170Y-16868174D01*
X2961170Y-16868174D02*
X2970693Y-16830079D01*
X2970693Y-16830079D02*
X2980217Y-16811031D01*
X2980217Y-16811031D02*
X2989741Y-16801508D01*
X2989741Y-16801508D02*
X3008789Y-16791984D01*
X3161170Y-16991984D02*
X3161170Y-16858650D01*
X3161170Y-16877698D02*
X3170693Y-16868174D01*
X3170693Y-16868174D02*
X3189741Y-16858650D01*
X3189741Y-16858650D02*
X3218313Y-16858650D01*
X3218313Y-16858650D02*
X3237360Y-16868174D01*
X3237360Y-16868174D02*
X3246884Y-16887222D01*
X3246884Y-16887222D02*
X3246884Y-16991984D01*
X3246884Y-16887222D02*
X3256408Y-16868174D01*
X3256408Y-16868174D02*
X3275455Y-16858650D01*
X3275455Y-16858650D02*
X3304027Y-16858650D01*
X3304027Y-16858650D02*
X3323074Y-16868174D01*
X3323074Y-16868174D02*
X3332598Y-16887222D01*
X3332598Y-16887222D02*
X3332598Y-16991984D01*
X3427836Y-16991984D02*
X3427836Y-16858650D01*
X3427836Y-16877698D02*
X3437360Y-16868174D01*
X3437360Y-16868174D02*
X3456408Y-16858650D01*
X3456408Y-16858650D02*
X3484979Y-16858650D01*
X3484979Y-16858650D02*
X3504027Y-16868174D01*
X3504027Y-16868174D02*
X3513551Y-16887222D01*
X3513551Y-16887222D02*
X3513551Y-16991984D01*
X3513551Y-16887222D02*
X3523074Y-16868174D01*
X3523074Y-16868174D02*
X3542122Y-16858650D01*
X3542122Y-16858650D02*
X3570693Y-16858650D01*
X3570693Y-16858650D02*
X3589741Y-16868174D01*
X3589741Y-16868174D02*
X3599265Y-16887222D01*
X3599265Y-16887222D02*
X3599265Y-16991984D01*
X3989741Y-16782460D02*
X3818313Y-17039603D01*
X4246884Y-16791984D02*
X4265932Y-16791984D01*
X4265932Y-16791984D02*
X4284979Y-16801508D01*
X4284979Y-16801508D02*
X4294503Y-16811031D01*
X4294503Y-16811031D02*
X4304027Y-16830079D01*
X4304027Y-16830079D02*
X4313551Y-16868174D01*
X4313551Y-16868174D02*
X4313551Y-16915793D01*
X4313551Y-16915793D02*
X4304027Y-16953889D01*
X4304027Y-16953889D02*
X4294503Y-16972936D01*
X4294503Y-16972936D02*
X4284979Y-16982460D01*
X4284979Y-16982460D02*
X4265932Y-16991984D01*
X4265932Y-16991984D02*
X4246884Y-16991984D01*
X4246884Y-16991984D02*
X4227837Y-16982460D01*
X4227837Y-16982460D02*
X4218313Y-16972936D01*
X4218313Y-16972936D02*
X4208789Y-16953889D01*
X4208789Y-16953889D02*
X4199265Y-16915793D01*
X4199265Y-16915793D02*
X4199265Y-16868174D01*
X4199265Y-16868174D02*
X4208789Y-16830079D01*
X4208789Y-16830079D02*
X4218313Y-16811031D01*
X4218313Y-16811031D02*
X4227837Y-16801508D01*
X4227837Y-16801508D02*
X4246884Y-16791984D01*
X4399265Y-16972936D02*
X4408789Y-16982460D01*
X4408789Y-16982460D02*
X4399265Y-16991984D01*
X4399265Y-16991984D02*
X4389741Y-16982460D01*
X4389741Y-16982460D02*
X4399265Y-16972936D01*
X4399265Y-16972936D02*
X4399265Y-16991984D01*
X4532598Y-16791984D02*
X4551646Y-16791984D01*
X4551646Y-16791984D02*
X4570694Y-16801508D01*
X4570694Y-16801508D02*
X4580218Y-16811031D01*
X4580218Y-16811031D02*
X4589741Y-16830079D01*
X4589741Y-16830079D02*
X4599265Y-16868174D01*
X4599265Y-16868174D02*
X4599265Y-16915793D01*
X4599265Y-16915793D02*
X4589741Y-16953889D01*
X4589741Y-16953889D02*
X4580218Y-16972936D01*
X4580218Y-16972936D02*
X4570694Y-16982460D01*
X4570694Y-16982460D02*
X4551646Y-16991984D01*
X4551646Y-16991984D02*
X4532598Y-16991984D01*
X4532598Y-16991984D02*
X4513551Y-16982460D01*
X4513551Y-16982460D02*
X4504027Y-16972936D01*
X4504027Y-16972936D02*
X4494503Y-16953889D01*
X4494503Y-16953889D02*
X4484979Y-16915793D01*
X4484979Y-16915793D02*
X4484979Y-16868174D01*
X4484979Y-16868174D02*
X4494503Y-16830079D01*
X4494503Y-16830079D02*
X4504027Y-16811031D01*
X4504027Y-16811031D02*
X4513551Y-16801508D01*
X4513551Y-16801508D02*
X4532598Y-16791984D01*
X4675456Y-16811031D02*
X4684979Y-16801508D01*
X4684979Y-16801508D02*
X4704027Y-16791984D01*
X4704027Y-16791984D02*
X4751646Y-16791984D01*
X4751646Y-16791984D02*
X4770694Y-16801508D01*
X4770694Y-16801508D02*
X4780218Y-16811031D01*
X4780218Y-16811031D02*
X4789741Y-16830079D01*
X4789741Y-16830079D02*
X4789741Y-16849127D01*
X4789741Y-16849127D02*
X4780218Y-16877698D01*
X4780218Y-16877698D02*
X4665932Y-16991984D01*
X4665932Y-16991984D02*
X4789741Y-16991984D01*
X4970694Y-16791984D02*
X4875456Y-16791984D01*
X4875456Y-16791984D02*
X4865932Y-16887222D01*
X4865932Y-16887222D02*
X4875456Y-16877698D01*
X4875456Y-16877698D02*
X4894503Y-16868174D01*
X4894503Y-16868174D02*
X4942122Y-16868174D01*
X4942122Y-16868174D02*
X4961170Y-16877698D01*
X4961170Y-16877698D02*
X4970694Y-16887222D01*
X4970694Y-16887222D02*
X4980218Y-16906270D01*
X4980218Y-16906270D02*
X4980218Y-16953889D01*
X4980218Y-16953889D02*
X4970694Y-16972936D01*
X4970694Y-16972936D02*
X4961170Y-16982460D01*
X4961170Y-16982460D02*
X4942122Y-16991984D01*
X4942122Y-16991984D02*
X4894503Y-16991984D01*
X4894503Y-16991984D02*
X4875456Y-16982460D01*
X4875456Y-16982460D02*
X4865932Y-16972936D01*
X5151646Y-16791984D02*
X5113551Y-16791984D01*
X5113551Y-16791984D02*
X5094503Y-16801508D01*
X5094503Y-16801508D02*
X5084979Y-16811031D01*
X5084979Y-16811031D02*
X5065932Y-16839603D01*
X5065932Y-16839603D02*
X5056408Y-16877698D01*
X5056408Y-16877698D02*
X5056408Y-16953889D01*
X5056408Y-16953889D02*
X5065932Y-16972936D01*
X5065932Y-16972936D02*
X5075456Y-16982460D01*
X5075456Y-16982460D02*
X5094503Y-16991984D01*
X5094503Y-16991984D02*
X5132599Y-16991984D01*
X5132599Y-16991984D02*
X5151646Y-16982460D01*
X5151646Y-16982460D02*
X5161170Y-16972936D01*
X5161170Y-16972936D02*
X5170694Y-16953889D01*
X5170694Y-16953889D02*
X5170694Y-16906270D01*
X5170694Y-16906270D02*
X5161170Y-16887222D01*
X5161170Y-16887222D02*
X5151646Y-16877698D01*
X5151646Y-16877698D02*
X5132599Y-16868174D01*
X5132599Y-16868174D02*
X5094503Y-16868174D01*
X5094503Y-16868174D02*
X5075456Y-16877698D01*
X5075456Y-16877698D02*
X5065932Y-16887222D01*
X5065932Y-16887222D02*
X5056408Y-16906270D01*
X5246884Y-16791984D02*
X5246884Y-16830079D01*
X5323075Y-16791984D02*
X5323075Y-16830079D01*
X5618313Y-17068174D02*
X5608789Y-17058650D01*
X5608789Y-17058650D02*
X5589741Y-17030079D01*
X5589741Y-17030079D02*
X5580218Y-17011031D01*
X5580218Y-17011031D02*
X5570694Y-16982460D01*
X5570694Y-16982460D02*
X5561170Y-16934841D01*
X5561170Y-16934841D02*
X5561170Y-16896746D01*
X5561170Y-16896746D02*
X5570694Y-16849127D01*
X5570694Y-16849127D02*
X5580218Y-16820555D01*
X5580218Y-16820555D02*
X5589741Y-16801508D01*
X5589741Y-16801508D02*
X5608789Y-16772936D01*
X5608789Y-16772936D02*
X5618313Y-16763412D01*
X5684979Y-16811031D02*
X5694503Y-16801508D01*
X5694503Y-16801508D02*
X5713551Y-16791984D01*
X5713551Y-16791984D02*
X5761170Y-16791984D01*
X5761170Y-16791984D02*
X5780218Y-16801508D01*
X5780218Y-16801508D02*
X5789741Y-16811031D01*
X5789741Y-16811031D02*
X5799265Y-16830079D01*
X5799265Y-16830079D02*
X5799265Y-16849127D01*
X5799265Y-16849127D02*
X5789741Y-16877698D01*
X5789741Y-16877698D02*
X5675456Y-16991984D01*
X5675456Y-16991984D02*
X5799265Y-16991984D01*
X6037360Y-16991984D02*
X6037360Y-16791984D01*
X6123075Y-16991984D02*
X6123075Y-16887222D01*
X6123075Y-16887222D02*
X6113551Y-16868174D01*
X6113551Y-16868174D02*
X6094503Y-16858650D01*
X6094503Y-16858650D02*
X6065932Y-16858650D01*
X6065932Y-16858650D02*
X6046884Y-16868174D01*
X6046884Y-16868174D02*
X6037360Y-16877698D01*
X6246884Y-16991984D02*
X6227837Y-16982460D01*
X6227837Y-16982460D02*
X6218313Y-16972936D01*
X6218313Y-16972936D02*
X6208789Y-16953889D01*
X6208789Y-16953889D02*
X6208789Y-16896746D01*
X6208789Y-16896746D02*
X6218313Y-16877698D01*
X6218313Y-16877698D02*
X6227837Y-16868174D01*
X6227837Y-16868174D02*
X6246884Y-16858650D01*
X6246884Y-16858650D02*
X6275456Y-16858650D01*
X6275456Y-16858650D02*
X6294503Y-16868174D01*
X6294503Y-16868174D02*
X6304027Y-16877698D01*
X6304027Y-16877698D02*
X6313551Y-16896746D01*
X6313551Y-16896746D02*
X6313551Y-16953889D01*
X6313551Y-16953889D02*
X6304027Y-16972936D01*
X6304027Y-16972936D02*
X6294503Y-16982460D01*
X6294503Y-16982460D02*
X6275456Y-16991984D01*
X6275456Y-16991984D02*
X6246884Y-16991984D01*
X6427837Y-16991984D02*
X6408789Y-16982460D01*
X6408789Y-16982460D02*
X6399265Y-16963412D01*
X6399265Y-16963412D02*
X6399265Y-16791984D01*
X6580218Y-16982460D02*
X6561170Y-16991984D01*
X6561170Y-16991984D02*
X6523075Y-16991984D01*
X6523075Y-16991984D02*
X6504027Y-16982460D01*
X6504027Y-16982460D02*
X6494503Y-16963412D01*
X6494503Y-16963412D02*
X6494503Y-16887222D01*
X6494503Y-16887222D02*
X6504027Y-16868174D01*
X6504027Y-16868174D02*
X6523075Y-16858650D01*
X6523075Y-16858650D02*
X6561170Y-16858650D01*
X6561170Y-16858650D02*
X6580218Y-16868174D01*
X6580218Y-16868174D02*
X6589741Y-16887222D01*
X6589741Y-16887222D02*
X6589741Y-16906270D01*
X6589741Y-16906270D02*
X6494503Y-16925317D01*
X6665932Y-16982460D02*
X6684980Y-16991984D01*
X6684980Y-16991984D02*
X6723075Y-16991984D01*
X6723075Y-16991984D02*
X6742122Y-16982460D01*
X6742122Y-16982460D02*
X6751646Y-16963412D01*
X6751646Y-16963412D02*
X6751646Y-16953889D01*
X6751646Y-16953889D02*
X6742122Y-16934841D01*
X6742122Y-16934841D02*
X6723075Y-16925317D01*
X6723075Y-16925317D02*
X6694503Y-16925317D01*
X6694503Y-16925317D02*
X6675456Y-16915793D01*
X6675456Y-16915793D02*
X6665932Y-16896746D01*
X6665932Y-16896746D02*
X6665932Y-16887222D01*
X6665932Y-16887222D02*
X6675456Y-16868174D01*
X6675456Y-16868174D02*
X6694503Y-16858650D01*
X6694503Y-16858650D02*
X6723075Y-16858650D01*
X6723075Y-16858650D02*
X6742122Y-16868174D01*
X6818313Y-17068174D02*
X6827837Y-17058650D01*
X6827837Y-17058650D02*
X6846884Y-17030079D01*
X6846884Y-17030079D02*
X6856408Y-17011031D01*
X6856408Y-17011031D02*
X6865932Y-16982460D01*
X6865932Y-16982460D02*
X6875456Y-16934841D01*
X6875456Y-16934841D02*
X6875456Y-16896746D01*
X6875456Y-16896746D02*
X6865932Y-16849127D01*
X6865932Y-16849127D02*
X6856408Y-16820555D01*
X6856408Y-16820555D02*
X6846884Y-16801508D01*
X6846884Y-16801508D02*
X6827837Y-16772936D01*
X6827837Y-16772936D02*
X6818313Y-16763412D01*
X7180218Y-17068174D02*
X7170694Y-17058650D01*
X7170694Y-17058650D02*
X7151646Y-17030079D01*
X7151646Y-17030079D02*
X7142122Y-17011031D01*
X7142122Y-17011031D02*
X7132599Y-16982460D01*
X7132599Y-16982460D02*
X7123075Y-16934841D01*
X7123075Y-16934841D02*
X7123075Y-16896746D01*
X7123075Y-16896746D02*
X7132599Y-16849127D01*
X7132599Y-16849127D02*
X7142122Y-16820555D01*
X7142122Y-16820555D02*
X7151646Y-16801508D01*
X7151646Y-16801508D02*
X7170694Y-16772936D01*
X7170694Y-16772936D02*
X7180218Y-16763412D01*
X7256408Y-16858650D02*
X7256408Y-16991984D01*
X7256408Y-16877698D02*
X7265932Y-16868174D01*
X7265932Y-16868174D02*
X7284980Y-16858650D01*
X7284980Y-16858650D02*
X7313551Y-16858650D01*
X7313551Y-16858650D02*
X7332599Y-16868174D01*
X7332599Y-16868174D02*
X7342122Y-16887222D01*
X7342122Y-16887222D02*
X7342122Y-16991984D01*
X7465932Y-16991984D02*
X7446884Y-16982460D01*
X7446884Y-16982460D02*
X7437361Y-16972936D01*
X7437361Y-16972936D02*
X7427837Y-16953889D01*
X7427837Y-16953889D02*
X7427837Y-16896746D01*
X7427837Y-16896746D02*
X7437361Y-16877698D01*
X7437361Y-16877698D02*
X7446884Y-16868174D01*
X7446884Y-16868174D02*
X7465932Y-16858650D01*
X7465932Y-16858650D02*
X7494503Y-16858650D01*
X7494503Y-16858650D02*
X7513551Y-16868174D01*
X7513551Y-16868174D02*
X7523075Y-16877698D01*
X7523075Y-16877698D02*
X7532599Y-16896746D01*
X7532599Y-16896746D02*
X7532599Y-16953889D01*
X7532599Y-16953889D02*
X7523075Y-16972936D01*
X7523075Y-16972936D02*
X7513551Y-16982460D01*
X7513551Y-16982460D02*
X7494503Y-16991984D01*
X7494503Y-16991984D02*
X7465932Y-16991984D01*
X7589742Y-16858650D02*
X7665932Y-16858650D01*
X7618313Y-16791984D02*
X7618313Y-16963412D01*
X7618313Y-16963412D02*
X7627837Y-16982460D01*
X7627837Y-16982460D02*
X7646884Y-16991984D01*
X7646884Y-16991984D02*
X7665932Y-16991984D01*
X7884980Y-16858650D02*
X7884980Y-17058650D01*
X7884980Y-16868174D02*
X7904027Y-16858650D01*
X7904027Y-16858650D02*
X7942123Y-16858650D01*
X7942123Y-16858650D02*
X7961170Y-16868174D01*
X7961170Y-16868174D02*
X7970694Y-16877698D01*
X7970694Y-16877698D02*
X7980218Y-16896746D01*
X7980218Y-16896746D02*
X7980218Y-16953889D01*
X7980218Y-16953889D02*
X7970694Y-16972936D01*
X7970694Y-16972936D02*
X7961170Y-16982460D01*
X7961170Y-16982460D02*
X7942123Y-16991984D01*
X7942123Y-16991984D02*
X7904027Y-16991984D01*
X7904027Y-16991984D02*
X7884980Y-16982460D01*
X8094503Y-16991984D02*
X8075456Y-16982460D01*
X8075456Y-16982460D02*
X8065932Y-16963412D01*
X8065932Y-16963412D02*
X8065932Y-16791984D01*
X8256408Y-16991984D02*
X8256408Y-16887222D01*
X8256408Y-16887222D02*
X8246884Y-16868174D01*
X8246884Y-16868174D02*
X8227837Y-16858650D01*
X8227837Y-16858650D02*
X8189742Y-16858650D01*
X8189742Y-16858650D02*
X8170694Y-16868174D01*
X8256408Y-16982460D02*
X8237361Y-16991984D01*
X8237361Y-16991984D02*
X8189742Y-16991984D01*
X8189742Y-16991984D02*
X8170694Y-16982460D01*
X8170694Y-16982460D02*
X8161170Y-16963412D01*
X8161170Y-16963412D02*
X8161170Y-16944365D01*
X8161170Y-16944365D02*
X8170694Y-16925317D01*
X8170694Y-16925317D02*
X8189742Y-16915793D01*
X8189742Y-16915793D02*
X8237361Y-16915793D01*
X8237361Y-16915793D02*
X8256408Y-16906270D01*
X8323075Y-16858650D02*
X8399265Y-16858650D01*
X8351646Y-16791984D02*
X8351646Y-16963412D01*
X8351646Y-16963412D02*
X8361170Y-16982460D01*
X8361170Y-16982460D02*
X8380218Y-16991984D01*
X8380218Y-16991984D02*
X8399265Y-16991984D01*
X8542123Y-16982460D02*
X8523075Y-16991984D01*
X8523075Y-16991984D02*
X8484980Y-16991984D01*
X8484980Y-16991984D02*
X8465932Y-16982460D01*
X8465932Y-16982460D02*
X8456408Y-16963412D01*
X8456408Y-16963412D02*
X8456408Y-16887222D01*
X8456408Y-16887222D02*
X8465932Y-16868174D01*
X8465932Y-16868174D02*
X8484980Y-16858650D01*
X8484980Y-16858650D02*
X8523075Y-16858650D01*
X8523075Y-16858650D02*
X8542123Y-16868174D01*
X8542123Y-16868174D02*
X8551646Y-16887222D01*
X8551646Y-16887222D02*
X8551646Y-16906270D01*
X8551646Y-16906270D02*
X8456408Y-16925317D01*
X8723075Y-16991984D02*
X8723075Y-16791984D01*
X8723075Y-16982460D02*
X8704027Y-16991984D01*
X8704027Y-16991984D02*
X8665932Y-16991984D01*
X8665932Y-16991984D02*
X8646885Y-16982460D01*
X8646885Y-16982460D02*
X8637361Y-16972936D01*
X8637361Y-16972936D02*
X8627837Y-16953889D01*
X8627837Y-16953889D02*
X8627837Y-16896746D01*
X8627837Y-16896746D02*
X8637361Y-16877698D01*
X8637361Y-16877698D02*
X8646885Y-16868174D01*
X8646885Y-16868174D02*
X8665932Y-16858650D01*
X8665932Y-16858650D02*
X8704027Y-16858650D01*
X8704027Y-16858650D02*
X8723075Y-16868174D01*
X8799266Y-17068174D02*
X8808789Y-17058650D01*
X8808789Y-17058650D02*
X8827837Y-17030079D01*
X8827837Y-17030079D02*
X8837361Y-17011031D01*
X8837361Y-17011031D02*
X8846885Y-16982460D01*
X8846885Y-16982460D02*
X8856408Y-16934841D01*
X8856408Y-16934841D02*
X8856408Y-16896746D01*
X8856408Y-16896746D02*
X8846885Y-16849127D01*
X8846885Y-16849127D02*
X8837361Y-16820555D01*
X8837361Y-16820555D02*
X8827837Y-16801508D01*
X8827837Y-16801508D02*
X8808789Y-16772936D01*
X8808789Y-16772936D02*
X8799266Y-16763412D01*
D12*
X2043250Y-17164500D02*
G75*
G02*
X1953250Y-17164500I-45000J0D01*
G01*
X1953250Y-17164500D02*
G75*
G02*
X2043250Y-17164500I45000J0D01*
G01*
D11*
X2342122Y-17055984D02*
X2361170Y-17055984D01*
X2361170Y-17055984D02*
X2380217Y-17065508D01*
X2380217Y-17065508D02*
X2389741Y-17075031D01*
X2389741Y-17075031D02*
X2399265Y-17094079D01*
X2399265Y-17094079D02*
X2408789Y-17132174D01*
X2408789Y-17132174D02*
X2408789Y-17179793D01*
X2408789Y-17179793D02*
X2399265Y-17217889D01*
X2399265Y-17217889D02*
X2389741Y-17236936D01*
X2389741Y-17236936D02*
X2380217Y-17246460D01*
X2380217Y-17246460D02*
X2361170Y-17255984D01*
X2361170Y-17255984D02*
X2342122Y-17255984D01*
X2342122Y-17255984D02*
X2323074Y-17246460D01*
X2323074Y-17246460D02*
X2313551Y-17236936D01*
X2313551Y-17236936D02*
X2304027Y-17217889D01*
X2304027Y-17217889D02*
X2294503Y-17179793D01*
X2294503Y-17179793D02*
X2294503Y-17132174D01*
X2294503Y-17132174D02*
X2304027Y-17094079D01*
X2304027Y-17094079D02*
X2313551Y-17075031D01*
X2313551Y-17075031D02*
X2323074Y-17065508D01*
X2323074Y-17065508D02*
X2342122Y-17055984D01*
X2494503Y-17236936D02*
X2504027Y-17246460D01*
X2504027Y-17246460D02*
X2494503Y-17255984D01*
X2494503Y-17255984D02*
X2484979Y-17246460D01*
X2484979Y-17246460D02*
X2494503Y-17236936D01*
X2494503Y-17236936D02*
X2494503Y-17255984D01*
X2599265Y-17255984D02*
X2637360Y-17255984D01*
X2637360Y-17255984D02*
X2656408Y-17246460D01*
X2656408Y-17246460D02*
X2665932Y-17236936D01*
X2665932Y-17236936D02*
X2684979Y-17208365D01*
X2684979Y-17208365D02*
X2694503Y-17170270D01*
X2694503Y-17170270D02*
X2694503Y-17094079D01*
X2694503Y-17094079D02*
X2684979Y-17075031D01*
X2684979Y-17075031D02*
X2675455Y-17065508D01*
X2675455Y-17065508D02*
X2656408Y-17055984D01*
X2656408Y-17055984D02*
X2618313Y-17055984D01*
X2618313Y-17055984D02*
X2599265Y-17065508D01*
X2599265Y-17065508D02*
X2589741Y-17075031D01*
X2589741Y-17075031D02*
X2580217Y-17094079D01*
X2580217Y-17094079D02*
X2580217Y-17141698D01*
X2580217Y-17141698D02*
X2589741Y-17160746D01*
X2589741Y-17160746D02*
X2599265Y-17170270D01*
X2599265Y-17170270D02*
X2618313Y-17179793D01*
X2618313Y-17179793D02*
X2656408Y-17179793D01*
X2656408Y-17179793D02*
X2675455Y-17170270D01*
X2675455Y-17170270D02*
X2684979Y-17160746D01*
X2684979Y-17160746D02*
X2694503Y-17141698D01*
X2818312Y-17055984D02*
X2837360Y-17055984D01*
X2837360Y-17055984D02*
X2856408Y-17065508D01*
X2856408Y-17065508D02*
X2865932Y-17075031D01*
X2865932Y-17075031D02*
X2875455Y-17094079D01*
X2875455Y-17094079D02*
X2884979Y-17132174D01*
X2884979Y-17132174D02*
X2884979Y-17179793D01*
X2884979Y-17179793D02*
X2875455Y-17217889D01*
X2875455Y-17217889D02*
X2865932Y-17236936D01*
X2865932Y-17236936D02*
X2856408Y-17246460D01*
X2856408Y-17246460D02*
X2837360Y-17255984D01*
X2837360Y-17255984D02*
X2818312Y-17255984D01*
X2818312Y-17255984D02*
X2799265Y-17246460D01*
X2799265Y-17246460D02*
X2789741Y-17236936D01*
X2789741Y-17236936D02*
X2780217Y-17217889D01*
X2780217Y-17217889D02*
X2770694Y-17179793D01*
X2770694Y-17179793D02*
X2770694Y-17132174D01*
X2770694Y-17132174D02*
X2780217Y-17094079D01*
X2780217Y-17094079D02*
X2789741Y-17075031D01*
X2789741Y-17075031D02*
X2799265Y-17065508D01*
X2799265Y-17065508D02*
X2818312Y-17055984D01*
X3008789Y-17055984D02*
X3027836Y-17055984D01*
X3027836Y-17055984D02*
X3046884Y-17065508D01*
X3046884Y-17065508D02*
X3056408Y-17075031D01*
X3056408Y-17075031D02*
X3065932Y-17094079D01*
X3065932Y-17094079D02*
X3075455Y-17132174D01*
X3075455Y-17132174D02*
X3075455Y-17179793D01*
X3075455Y-17179793D02*
X3065932Y-17217889D01*
X3065932Y-17217889D02*
X3056408Y-17236936D01*
X3056408Y-17236936D02*
X3046884Y-17246460D01*
X3046884Y-17246460D02*
X3027836Y-17255984D01*
X3027836Y-17255984D02*
X3008789Y-17255984D01*
X3008789Y-17255984D02*
X2989741Y-17246460D01*
X2989741Y-17246460D02*
X2980217Y-17236936D01*
X2980217Y-17236936D02*
X2970693Y-17217889D01*
X2970693Y-17217889D02*
X2961170Y-17179793D01*
X2961170Y-17179793D02*
X2961170Y-17132174D01*
X2961170Y-17132174D02*
X2970693Y-17094079D01*
X2970693Y-17094079D02*
X2980217Y-17075031D01*
X2980217Y-17075031D02*
X2989741Y-17065508D01*
X2989741Y-17065508D02*
X3008789Y-17055984D01*
X3161170Y-17255984D02*
X3161170Y-17122650D01*
X3161170Y-17141698D02*
X3170693Y-17132174D01*
X3170693Y-17132174D02*
X3189741Y-17122650D01*
X3189741Y-17122650D02*
X3218313Y-17122650D01*
X3218313Y-17122650D02*
X3237360Y-17132174D01*
X3237360Y-17132174D02*
X3246884Y-17151222D01*
X3246884Y-17151222D02*
X3246884Y-17255984D01*
X3246884Y-17151222D02*
X3256408Y-17132174D01*
X3256408Y-17132174D02*
X3275455Y-17122650D01*
X3275455Y-17122650D02*
X3304027Y-17122650D01*
X3304027Y-17122650D02*
X3323074Y-17132174D01*
X3323074Y-17132174D02*
X3332598Y-17151222D01*
X3332598Y-17151222D02*
X3332598Y-17255984D01*
X3427836Y-17255984D02*
X3427836Y-17122650D01*
X3427836Y-17141698D02*
X3437360Y-17132174D01*
X3437360Y-17132174D02*
X3456408Y-17122650D01*
X3456408Y-17122650D02*
X3484979Y-17122650D01*
X3484979Y-17122650D02*
X3504027Y-17132174D01*
X3504027Y-17132174D02*
X3513551Y-17151222D01*
X3513551Y-17151222D02*
X3513551Y-17255984D01*
X3513551Y-17151222D02*
X3523074Y-17132174D01*
X3523074Y-17132174D02*
X3542122Y-17122650D01*
X3542122Y-17122650D02*
X3570693Y-17122650D01*
X3570693Y-17122650D02*
X3589741Y-17132174D01*
X3589741Y-17132174D02*
X3599265Y-17151222D01*
X3599265Y-17151222D02*
X3599265Y-17255984D01*
X3989741Y-17046460D02*
X3818313Y-17303603D01*
X4246884Y-17055984D02*
X4265932Y-17055984D01*
X4265932Y-17055984D02*
X4284979Y-17065508D01*
X4284979Y-17065508D02*
X4294503Y-17075031D01*
X4294503Y-17075031D02*
X4304027Y-17094079D01*
X4304027Y-17094079D02*
X4313551Y-17132174D01*
X4313551Y-17132174D02*
X4313551Y-17179793D01*
X4313551Y-17179793D02*
X4304027Y-17217889D01*
X4304027Y-17217889D02*
X4294503Y-17236936D01*
X4294503Y-17236936D02*
X4284979Y-17246460D01*
X4284979Y-17246460D02*
X4265932Y-17255984D01*
X4265932Y-17255984D02*
X4246884Y-17255984D01*
X4246884Y-17255984D02*
X4227837Y-17246460D01*
X4227837Y-17246460D02*
X4218313Y-17236936D01*
X4218313Y-17236936D02*
X4208789Y-17217889D01*
X4208789Y-17217889D02*
X4199265Y-17179793D01*
X4199265Y-17179793D02*
X4199265Y-17132174D01*
X4199265Y-17132174D02*
X4208789Y-17094079D01*
X4208789Y-17094079D02*
X4218313Y-17075031D01*
X4218313Y-17075031D02*
X4227837Y-17065508D01*
X4227837Y-17065508D02*
X4246884Y-17055984D01*
X4399265Y-17236936D02*
X4408789Y-17246460D01*
X4408789Y-17246460D02*
X4399265Y-17255984D01*
X4399265Y-17255984D02*
X4389741Y-17246460D01*
X4389741Y-17246460D02*
X4399265Y-17236936D01*
X4399265Y-17236936D02*
X4399265Y-17255984D01*
X4532598Y-17055984D02*
X4551646Y-17055984D01*
X4551646Y-17055984D02*
X4570694Y-17065508D01*
X4570694Y-17065508D02*
X4580218Y-17075031D01*
X4580218Y-17075031D02*
X4589741Y-17094079D01*
X4589741Y-17094079D02*
X4599265Y-17132174D01*
X4599265Y-17132174D02*
X4599265Y-17179793D01*
X4599265Y-17179793D02*
X4589741Y-17217889D01*
X4589741Y-17217889D02*
X4580218Y-17236936D01*
X4580218Y-17236936D02*
X4570694Y-17246460D01*
X4570694Y-17246460D02*
X4551646Y-17255984D01*
X4551646Y-17255984D02*
X4532598Y-17255984D01*
X4532598Y-17255984D02*
X4513551Y-17246460D01*
X4513551Y-17246460D02*
X4504027Y-17236936D01*
X4504027Y-17236936D02*
X4494503Y-17217889D01*
X4494503Y-17217889D02*
X4484979Y-17179793D01*
X4484979Y-17179793D02*
X4484979Y-17132174D01*
X4484979Y-17132174D02*
X4494503Y-17094079D01*
X4494503Y-17094079D02*
X4504027Y-17075031D01*
X4504027Y-17075031D02*
X4513551Y-17065508D01*
X4513551Y-17065508D02*
X4532598Y-17055984D01*
X4665932Y-17055984D02*
X4789741Y-17055984D01*
X4789741Y-17055984D02*
X4723075Y-17132174D01*
X4723075Y-17132174D02*
X4751646Y-17132174D01*
X4751646Y-17132174D02*
X4770694Y-17141698D01*
X4770694Y-17141698D02*
X4780218Y-17151222D01*
X4780218Y-17151222D02*
X4789741Y-17170270D01*
X4789741Y-17170270D02*
X4789741Y-17217889D01*
X4789741Y-17217889D02*
X4780218Y-17236936D01*
X4780218Y-17236936D02*
X4770694Y-17246460D01*
X4770694Y-17246460D02*
X4751646Y-17255984D01*
X4751646Y-17255984D02*
X4694503Y-17255984D01*
X4694503Y-17255984D02*
X4675456Y-17246460D01*
X4675456Y-17246460D02*
X4665932Y-17236936D01*
X4970694Y-17055984D02*
X4875456Y-17055984D01*
X4875456Y-17055984D02*
X4865932Y-17151222D01*
X4865932Y-17151222D02*
X4875456Y-17141698D01*
X4875456Y-17141698D02*
X4894503Y-17132174D01*
X4894503Y-17132174D02*
X4942122Y-17132174D01*
X4942122Y-17132174D02*
X4961170Y-17141698D01*
X4961170Y-17141698D02*
X4970694Y-17151222D01*
X4970694Y-17151222D02*
X4980218Y-17170270D01*
X4980218Y-17170270D02*
X4980218Y-17217889D01*
X4980218Y-17217889D02*
X4970694Y-17236936D01*
X4970694Y-17236936D02*
X4961170Y-17246460D01*
X4961170Y-17246460D02*
X4942122Y-17255984D01*
X4942122Y-17255984D02*
X4894503Y-17255984D01*
X4894503Y-17255984D02*
X4875456Y-17246460D01*
X4875456Y-17246460D02*
X4865932Y-17236936D01*
X5151646Y-17122650D02*
X5151646Y-17255984D01*
X5104027Y-17046460D02*
X5056408Y-17189317D01*
X5056408Y-17189317D02*
X5180218Y-17189317D01*
X5246884Y-17055984D02*
X5246884Y-17094079D01*
X5323075Y-17055984D02*
X5323075Y-17094079D01*
X5618313Y-17332174D02*
X5608789Y-17322650D01*
X5608789Y-17322650D02*
X5589741Y-17294079D01*
X5589741Y-17294079D02*
X5580218Y-17275031D01*
X5580218Y-17275031D02*
X5570694Y-17246460D01*
X5570694Y-17246460D02*
X5561170Y-17198841D01*
X5561170Y-17198841D02*
X5561170Y-17160746D01*
X5561170Y-17160746D02*
X5570694Y-17113127D01*
X5570694Y-17113127D02*
X5580218Y-17084555D01*
X5580218Y-17084555D02*
X5589741Y-17065508D01*
X5589741Y-17065508D02*
X5608789Y-17036936D01*
X5608789Y-17036936D02*
X5618313Y-17027412D01*
X5684979Y-17075031D02*
X5694503Y-17065508D01*
X5694503Y-17065508D02*
X5713551Y-17055984D01*
X5713551Y-17055984D02*
X5761170Y-17055984D01*
X5761170Y-17055984D02*
X5780218Y-17065508D01*
X5780218Y-17065508D02*
X5789741Y-17075031D01*
X5789741Y-17075031D02*
X5799265Y-17094079D01*
X5799265Y-17094079D02*
X5799265Y-17113127D01*
X5799265Y-17113127D02*
X5789741Y-17141698D01*
X5789741Y-17141698D02*
X5675456Y-17255984D01*
X5675456Y-17255984D02*
X5799265Y-17255984D01*
X6037360Y-17255984D02*
X6037360Y-17055984D01*
X6123075Y-17255984D02*
X6123075Y-17151222D01*
X6123075Y-17151222D02*
X6113551Y-17132174D01*
X6113551Y-17132174D02*
X6094503Y-17122650D01*
X6094503Y-17122650D02*
X6065932Y-17122650D01*
X6065932Y-17122650D02*
X6046884Y-17132174D01*
X6046884Y-17132174D02*
X6037360Y-17141698D01*
X6246884Y-17255984D02*
X6227837Y-17246460D01*
X6227837Y-17246460D02*
X6218313Y-17236936D01*
X6218313Y-17236936D02*
X6208789Y-17217889D01*
X6208789Y-17217889D02*
X6208789Y-17160746D01*
X6208789Y-17160746D02*
X6218313Y-17141698D01*
X6218313Y-17141698D02*
X6227837Y-17132174D01*
X6227837Y-17132174D02*
X6246884Y-17122650D01*
X6246884Y-17122650D02*
X6275456Y-17122650D01*
X6275456Y-17122650D02*
X6294503Y-17132174D01*
X6294503Y-17132174D02*
X6304027Y-17141698D01*
X6304027Y-17141698D02*
X6313551Y-17160746D01*
X6313551Y-17160746D02*
X6313551Y-17217889D01*
X6313551Y-17217889D02*
X6304027Y-17236936D01*
X6304027Y-17236936D02*
X6294503Y-17246460D01*
X6294503Y-17246460D02*
X6275456Y-17255984D01*
X6275456Y-17255984D02*
X6246884Y-17255984D01*
X6427837Y-17255984D02*
X6408789Y-17246460D01*
X6408789Y-17246460D02*
X6399265Y-17227412D01*
X6399265Y-17227412D02*
X6399265Y-17055984D01*
X6580218Y-17246460D02*
X6561170Y-17255984D01*
X6561170Y-17255984D02*
X6523075Y-17255984D01*
X6523075Y-17255984D02*
X6504027Y-17246460D01*
X6504027Y-17246460D02*
X6494503Y-17227412D01*
X6494503Y-17227412D02*
X6494503Y-17151222D01*
X6494503Y-17151222D02*
X6504027Y-17132174D01*
X6504027Y-17132174D02*
X6523075Y-17122650D01*
X6523075Y-17122650D02*
X6561170Y-17122650D01*
X6561170Y-17122650D02*
X6580218Y-17132174D01*
X6580218Y-17132174D02*
X6589741Y-17151222D01*
X6589741Y-17151222D02*
X6589741Y-17170270D01*
X6589741Y-17170270D02*
X6494503Y-17189317D01*
X6665932Y-17246460D02*
X6684980Y-17255984D01*
X6684980Y-17255984D02*
X6723075Y-17255984D01*
X6723075Y-17255984D02*
X6742122Y-17246460D01*
X6742122Y-17246460D02*
X6751646Y-17227412D01*
X6751646Y-17227412D02*
X6751646Y-17217889D01*
X6751646Y-17217889D02*
X6742122Y-17198841D01*
X6742122Y-17198841D02*
X6723075Y-17189317D01*
X6723075Y-17189317D02*
X6694503Y-17189317D01*
X6694503Y-17189317D02*
X6675456Y-17179793D01*
X6675456Y-17179793D02*
X6665932Y-17160746D01*
X6665932Y-17160746D02*
X6665932Y-17151222D01*
X6665932Y-17151222D02*
X6675456Y-17132174D01*
X6675456Y-17132174D02*
X6694503Y-17122650D01*
X6694503Y-17122650D02*
X6723075Y-17122650D01*
X6723075Y-17122650D02*
X6742122Y-17132174D01*
X6818313Y-17332174D02*
X6827837Y-17322650D01*
X6827837Y-17322650D02*
X6846884Y-17294079D01*
X6846884Y-17294079D02*
X6856408Y-17275031D01*
X6856408Y-17275031D02*
X6865932Y-17246460D01*
X6865932Y-17246460D02*
X6875456Y-17198841D01*
X6875456Y-17198841D02*
X6875456Y-17160746D01*
X6875456Y-17160746D02*
X6865932Y-17113127D01*
X6865932Y-17113127D02*
X6856408Y-17084555D01*
X6856408Y-17084555D02*
X6846884Y-17065508D01*
X6846884Y-17065508D02*
X6827837Y-17036936D01*
X6827837Y-17036936D02*
X6818313Y-17027412D01*
X7180218Y-17332174D02*
X7170694Y-17322650D01*
X7170694Y-17322650D02*
X7151646Y-17294079D01*
X7151646Y-17294079D02*
X7142122Y-17275031D01*
X7142122Y-17275031D02*
X7132599Y-17246460D01*
X7132599Y-17246460D02*
X7123075Y-17198841D01*
X7123075Y-17198841D02*
X7123075Y-17160746D01*
X7123075Y-17160746D02*
X7132599Y-17113127D01*
X7132599Y-17113127D02*
X7142122Y-17084555D01*
X7142122Y-17084555D02*
X7151646Y-17065508D01*
X7151646Y-17065508D02*
X7170694Y-17036936D01*
X7170694Y-17036936D02*
X7180218Y-17027412D01*
X7256408Y-17122650D02*
X7256408Y-17255984D01*
X7256408Y-17141698D02*
X7265932Y-17132174D01*
X7265932Y-17132174D02*
X7284980Y-17122650D01*
X7284980Y-17122650D02*
X7313551Y-17122650D01*
X7313551Y-17122650D02*
X7332599Y-17132174D01*
X7332599Y-17132174D02*
X7342122Y-17151222D01*
X7342122Y-17151222D02*
X7342122Y-17255984D01*
X7465932Y-17255984D02*
X7446884Y-17246460D01*
X7446884Y-17246460D02*
X7437361Y-17236936D01*
X7437361Y-17236936D02*
X7427837Y-17217889D01*
X7427837Y-17217889D02*
X7427837Y-17160746D01*
X7427837Y-17160746D02*
X7437361Y-17141698D01*
X7437361Y-17141698D02*
X7446884Y-17132174D01*
X7446884Y-17132174D02*
X7465932Y-17122650D01*
X7465932Y-17122650D02*
X7494503Y-17122650D01*
X7494503Y-17122650D02*
X7513551Y-17132174D01*
X7513551Y-17132174D02*
X7523075Y-17141698D01*
X7523075Y-17141698D02*
X7532599Y-17160746D01*
X7532599Y-17160746D02*
X7532599Y-17217889D01*
X7532599Y-17217889D02*
X7523075Y-17236936D01*
X7523075Y-17236936D02*
X7513551Y-17246460D01*
X7513551Y-17246460D02*
X7494503Y-17255984D01*
X7494503Y-17255984D02*
X7465932Y-17255984D01*
X7589742Y-17122650D02*
X7665932Y-17122650D01*
X7618313Y-17055984D02*
X7618313Y-17227412D01*
X7618313Y-17227412D02*
X7627837Y-17246460D01*
X7627837Y-17246460D02*
X7646884Y-17255984D01*
X7646884Y-17255984D02*
X7665932Y-17255984D01*
X7884980Y-17122650D02*
X7884980Y-17322650D01*
X7884980Y-17132174D02*
X7904027Y-17122650D01*
X7904027Y-17122650D02*
X7942123Y-17122650D01*
X7942123Y-17122650D02*
X7961170Y-17132174D01*
X7961170Y-17132174D02*
X7970694Y-17141698D01*
X7970694Y-17141698D02*
X7980218Y-17160746D01*
X7980218Y-17160746D02*
X7980218Y-17217889D01*
X7980218Y-17217889D02*
X7970694Y-17236936D01*
X7970694Y-17236936D02*
X7961170Y-17246460D01*
X7961170Y-17246460D02*
X7942123Y-17255984D01*
X7942123Y-17255984D02*
X7904027Y-17255984D01*
X7904027Y-17255984D02*
X7884980Y-17246460D01*
X8094503Y-17255984D02*
X8075456Y-17246460D01*
X8075456Y-17246460D02*
X8065932Y-17227412D01*
X8065932Y-17227412D02*
X8065932Y-17055984D01*
X8256408Y-17255984D02*
X8256408Y-17151222D01*
X8256408Y-17151222D02*
X8246884Y-17132174D01*
X8246884Y-17132174D02*
X8227837Y-17122650D01*
X8227837Y-17122650D02*
X8189742Y-17122650D01*
X8189742Y-17122650D02*
X8170694Y-17132174D01*
X8256408Y-17246460D02*
X8237361Y-17255984D01*
X8237361Y-17255984D02*
X8189742Y-17255984D01*
X8189742Y-17255984D02*
X8170694Y-17246460D01*
X8170694Y-17246460D02*
X8161170Y-17227412D01*
X8161170Y-17227412D02*
X8161170Y-17208365D01*
X8161170Y-17208365D02*
X8170694Y-17189317D01*
X8170694Y-17189317D02*
X8189742Y-17179793D01*
X8189742Y-17179793D02*
X8237361Y-17179793D01*
X8237361Y-17179793D02*
X8256408Y-17170270D01*
X8323075Y-17122650D02*
X8399265Y-17122650D01*
X8351646Y-17055984D02*
X8351646Y-17227412D01*
X8351646Y-17227412D02*
X8361170Y-17246460D01*
X8361170Y-17246460D02*
X8380218Y-17255984D01*
X8380218Y-17255984D02*
X8399265Y-17255984D01*
X8542123Y-17246460D02*
X8523075Y-17255984D01*
X8523075Y-17255984D02*
X8484980Y-17255984D01*
X8484980Y-17255984D02*
X8465932Y-17246460D01*
X8465932Y-17246460D02*
X8456408Y-17227412D01*
X8456408Y-17227412D02*
X8456408Y-17151222D01*
X8456408Y-17151222D02*
X8465932Y-17132174D01*
X8465932Y-17132174D02*
X8484980Y-17122650D01*
X8484980Y-17122650D02*
X8523075Y-17122650D01*
X8523075Y-17122650D02*
X8542123Y-17132174D01*
X8542123Y-17132174D02*
X8551646Y-17151222D01*
X8551646Y-17151222D02*
X8551646Y-17170270D01*
X8551646Y-17170270D02*
X8456408Y-17189317D01*
X8723075Y-17255984D02*
X8723075Y-17055984D01*
X8723075Y-17246460D02*
X8704027Y-17255984D01*
X8704027Y-17255984D02*
X8665932Y-17255984D01*
X8665932Y-17255984D02*
X8646885Y-17246460D01*
X8646885Y-17246460D02*
X8637361Y-17236936D01*
X8637361Y-17236936D02*
X8627837Y-17217889D01*
X8627837Y-17217889D02*
X8627837Y-17160746D01*
X8627837Y-17160746D02*
X8637361Y-17141698D01*
X8637361Y-17141698D02*
X8646885Y-17132174D01*
X8646885Y-17132174D02*
X8665932Y-17122650D01*
X8665932Y-17122650D02*
X8704027Y-17122650D01*
X8704027Y-17122650D02*
X8723075Y-17132174D01*
X8799266Y-17332174D02*
X8808789Y-17322650D01*
X8808789Y-17322650D02*
X8827837Y-17294079D01*
X8827837Y-17294079D02*
X8837361Y-17275031D01*
X8837361Y-17275031D02*
X8846885Y-17246460D01*
X8846885Y-17246460D02*
X8856408Y-17198841D01*
X8856408Y-17198841D02*
X8856408Y-17160746D01*
X8856408Y-17160746D02*
X8846885Y-17113127D01*
X8846885Y-17113127D02*
X8837361Y-17084555D01*
X8837361Y-17084555D02*
X8827837Y-17065508D01*
X8827837Y-17065508D02*
X8808789Y-17036936D01*
X8808789Y-17036936D02*
X8799266Y-17027412D01*
D13*
X1988250Y-17373500D02*
X1988250Y-17483500D01*
X1933250Y-17428500D02*
X2043250Y-17428500D01*
D11*
X2408789Y-17519984D02*
X2294503Y-17519984D01*
X2351646Y-17519984D02*
X2351646Y-17319984D01*
X2351646Y-17319984D02*
X2332598Y-17348555D01*
X2332598Y-17348555D02*
X2313551Y-17367603D01*
X2313551Y-17367603D02*
X2294503Y-17377127D01*
X2494503Y-17500936D02*
X2504027Y-17510460D01*
X2504027Y-17510460D02*
X2494503Y-17519984D01*
X2494503Y-17519984D02*
X2484979Y-17510460D01*
X2484979Y-17510460D02*
X2494503Y-17500936D01*
X2494503Y-17500936D02*
X2494503Y-17519984D01*
X2694503Y-17519984D02*
X2580217Y-17519984D01*
X2637360Y-17519984D02*
X2637360Y-17319984D01*
X2637360Y-17319984D02*
X2618313Y-17348555D01*
X2618313Y-17348555D02*
X2599265Y-17367603D01*
X2599265Y-17367603D02*
X2580217Y-17377127D01*
X2818312Y-17319984D02*
X2837360Y-17319984D01*
X2837360Y-17319984D02*
X2856408Y-17329508D01*
X2856408Y-17329508D02*
X2865932Y-17339031D01*
X2865932Y-17339031D02*
X2875455Y-17358079D01*
X2875455Y-17358079D02*
X2884979Y-17396174D01*
X2884979Y-17396174D02*
X2884979Y-17443793D01*
X2884979Y-17443793D02*
X2875455Y-17481889D01*
X2875455Y-17481889D02*
X2865932Y-17500936D01*
X2865932Y-17500936D02*
X2856408Y-17510460D01*
X2856408Y-17510460D02*
X2837360Y-17519984D01*
X2837360Y-17519984D02*
X2818312Y-17519984D01*
X2818312Y-17519984D02*
X2799265Y-17510460D01*
X2799265Y-17510460D02*
X2789741Y-17500936D01*
X2789741Y-17500936D02*
X2780217Y-17481889D01*
X2780217Y-17481889D02*
X2770694Y-17443793D01*
X2770694Y-17443793D02*
X2770694Y-17396174D01*
X2770694Y-17396174D02*
X2780217Y-17358079D01*
X2780217Y-17358079D02*
X2789741Y-17339031D01*
X2789741Y-17339031D02*
X2799265Y-17329508D01*
X2799265Y-17329508D02*
X2818312Y-17319984D01*
X3008789Y-17319984D02*
X3027836Y-17319984D01*
X3027836Y-17319984D02*
X3046884Y-17329508D01*
X3046884Y-17329508D02*
X3056408Y-17339031D01*
X3056408Y-17339031D02*
X3065932Y-17358079D01*
X3065932Y-17358079D02*
X3075455Y-17396174D01*
X3075455Y-17396174D02*
X3075455Y-17443793D01*
X3075455Y-17443793D02*
X3065932Y-17481889D01*
X3065932Y-17481889D02*
X3056408Y-17500936D01*
X3056408Y-17500936D02*
X3046884Y-17510460D01*
X3046884Y-17510460D02*
X3027836Y-17519984D01*
X3027836Y-17519984D02*
X3008789Y-17519984D01*
X3008789Y-17519984D02*
X2989741Y-17510460D01*
X2989741Y-17510460D02*
X2980217Y-17500936D01*
X2980217Y-17500936D02*
X2970693Y-17481889D01*
X2970693Y-17481889D02*
X2961170Y-17443793D01*
X2961170Y-17443793D02*
X2961170Y-17396174D01*
X2961170Y-17396174D02*
X2970693Y-17358079D01*
X2970693Y-17358079D02*
X2980217Y-17339031D01*
X2980217Y-17339031D02*
X2989741Y-17329508D01*
X2989741Y-17329508D02*
X3008789Y-17319984D01*
X3161170Y-17519984D02*
X3161170Y-17386650D01*
X3161170Y-17405698D02*
X3170693Y-17396174D01*
X3170693Y-17396174D02*
X3189741Y-17386650D01*
X3189741Y-17386650D02*
X3218313Y-17386650D01*
X3218313Y-17386650D02*
X3237360Y-17396174D01*
X3237360Y-17396174D02*
X3246884Y-17415222D01*
X3246884Y-17415222D02*
X3246884Y-17519984D01*
X3246884Y-17415222D02*
X3256408Y-17396174D01*
X3256408Y-17396174D02*
X3275455Y-17386650D01*
X3275455Y-17386650D02*
X3304027Y-17386650D01*
X3304027Y-17386650D02*
X3323074Y-17396174D01*
X3323074Y-17396174D02*
X3332598Y-17415222D01*
X3332598Y-17415222D02*
X3332598Y-17519984D01*
X3427836Y-17519984D02*
X3427836Y-17386650D01*
X3427836Y-17405698D02*
X3437360Y-17396174D01*
X3437360Y-17396174D02*
X3456408Y-17386650D01*
X3456408Y-17386650D02*
X3484979Y-17386650D01*
X3484979Y-17386650D02*
X3504027Y-17396174D01*
X3504027Y-17396174D02*
X3513551Y-17415222D01*
X3513551Y-17415222D02*
X3513551Y-17519984D01*
X3513551Y-17415222D02*
X3523074Y-17396174D01*
X3523074Y-17396174D02*
X3542122Y-17386650D01*
X3542122Y-17386650D02*
X3570693Y-17386650D01*
X3570693Y-17386650D02*
X3589741Y-17396174D01*
X3589741Y-17396174D02*
X3599265Y-17415222D01*
X3599265Y-17415222D02*
X3599265Y-17519984D01*
X3989741Y-17310460D02*
X3818313Y-17567603D01*
X4246884Y-17319984D02*
X4265932Y-17319984D01*
X4265932Y-17319984D02*
X4284979Y-17329508D01*
X4284979Y-17329508D02*
X4294503Y-17339031D01*
X4294503Y-17339031D02*
X4304027Y-17358079D01*
X4304027Y-17358079D02*
X4313551Y-17396174D01*
X4313551Y-17396174D02*
X4313551Y-17443793D01*
X4313551Y-17443793D02*
X4304027Y-17481889D01*
X4304027Y-17481889D02*
X4294503Y-17500936D01*
X4294503Y-17500936D02*
X4284979Y-17510460D01*
X4284979Y-17510460D02*
X4265932Y-17519984D01*
X4265932Y-17519984D02*
X4246884Y-17519984D01*
X4246884Y-17519984D02*
X4227837Y-17510460D01*
X4227837Y-17510460D02*
X4218313Y-17500936D01*
X4218313Y-17500936D02*
X4208789Y-17481889D01*
X4208789Y-17481889D02*
X4199265Y-17443793D01*
X4199265Y-17443793D02*
X4199265Y-17396174D01*
X4199265Y-17396174D02*
X4208789Y-17358079D01*
X4208789Y-17358079D02*
X4218313Y-17339031D01*
X4218313Y-17339031D02*
X4227837Y-17329508D01*
X4227837Y-17329508D02*
X4246884Y-17319984D01*
X4399265Y-17500936D02*
X4408789Y-17510460D01*
X4408789Y-17510460D02*
X4399265Y-17519984D01*
X4399265Y-17519984D02*
X4389741Y-17510460D01*
X4389741Y-17510460D02*
X4399265Y-17500936D01*
X4399265Y-17500936D02*
X4399265Y-17519984D01*
X4532598Y-17319984D02*
X4551646Y-17319984D01*
X4551646Y-17319984D02*
X4570694Y-17329508D01*
X4570694Y-17329508D02*
X4580218Y-17339031D01*
X4580218Y-17339031D02*
X4589741Y-17358079D01*
X4589741Y-17358079D02*
X4599265Y-17396174D01*
X4599265Y-17396174D02*
X4599265Y-17443793D01*
X4599265Y-17443793D02*
X4589741Y-17481889D01*
X4589741Y-17481889D02*
X4580218Y-17500936D01*
X4580218Y-17500936D02*
X4570694Y-17510460D01*
X4570694Y-17510460D02*
X4551646Y-17519984D01*
X4551646Y-17519984D02*
X4532598Y-17519984D01*
X4532598Y-17519984D02*
X4513551Y-17510460D01*
X4513551Y-17510460D02*
X4504027Y-17500936D01*
X4504027Y-17500936D02*
X4494503Y-17481889D01*
X4494503Y-17481889D02*
X4484979Y-17443793D01*
X4484979Y-17443793D02*
X4484979Y-17396174D01*
X4484979Y-17396174D02*
X4494503Y-17358079D01*
X4494503Y-17358079D02*
X4504027Y-17339031D01*
X4504027Y-17339031D02*
X4513551Y-17329508D01*
X4513551Y-17329508D02*
X4532598Y-17319984D01*
X4770694Y-17386650D02*
X4770694Y-17519984D01*
X4723075Y-17310460D02*
X4675456Y-17453317D01*
X4675456Y-17453317D02*
X4799265Y-17453317D01*
X4856408Y-17319984D02*
X4980218Y-17319984D01*
X4980218Y-17319984D02*
X4913551Y-17396174D01*
X4913551Y-17396174D02*
X4942122Y-17396174D01*
X4942122Y-17396174D02*
X4961170Y-17405698D01*
X4961170Y-17405698D02*
X4970694Y-17415222D01*
X4970694Y-17415222D02*
X4980218Y-17434270D01*
X4980218Y-17434270D02*
X4980218Y-17481889D01*
X4980218Y-17481889D02*
X4970694Y-17500936D01*
X4970694Y-17500936D02*
X4961170Y-17510460D01*
X4961170Y-17510460D02*
X4942122Y-17519984D01*
X4942122Y-17519984D02*
X4884979Y-17519984D01*
X4884979Y-17519984D02*
X4865932Y-17510460D01*
X4865932Y-17510460D02*
X4856408Y-17500936D01*
X5046884Y-17319984D02*
X5170694Y-17319984D01*
X5170694Y-17319984D02*
X5104027Y-17396174D01*
X5104027Y-17396174D02*
X5132599Y-17396174D01*
X5132599Y-17396174D02*
X5151646Y-17405698D01*
X5151646Y-17405698D02*
X5161170Y-17415222D01*
X5161170Y-17415222D02*
X5170694Y-17434270D01*
X5170694Y-17434270D02*
X5170694Y-17481889D01*
X5170694Y-17481889D02*
X5161170Y-17500936D01*
X5161170Y-17500936D02*
X5151646Y-17510460D01*
X5151646Y-17510460D02*
X5132599Y-17519984D01*
X5132599Y-17519984D02*
X5075456Y-17519984D01*
X5075456Y-17519984D02*
X5056408Y-17510460D01*
X5056408Y-17510460D02*
X5046884Y-17500936D01*
X5246884Y-17319984D02*
X5246884Y-17358079D01*
X5323075Y-17319984D02*
X5323075Y-17358079D01*
X5618313Y-17596174D02*
X5608789Y-17586650D01*
X5608789Y-17586650D02*
X5589741Y-17558079D01*
X5589741Y-17558079D02*
X5580218Y-17539031D01*
X5580218Y-17539031D02*
X5570694Y-17510460D01*
X5570694Y-17510460D02*
X5561170Y-17462841D01*
X5561170Y-17462841D02*
X5561170Y-17424746D01*
X5561170Y-17424746D02*
X5570694Y-17377127D01*
X5570694Y-17377127D02*
X5580218Y-17348555D01*
X5580218Y-17348555D02*
X5589741Y-17329508D01*
X5589741Y-17329508D02*
X5608789Y-17300936D01*
X5608789Y-17300936D02*
X5618313Y-17291412D01*
X5684979Y-17339031D02*
X5694503Y-17329508D01*
X5694503Y-17329508D02*
X5713551Y-17319984D01*
X5713551Y-17319984D02*
X5761170Y-17319984D01*
X5761170Y-17319984D02*
X5780218Y-17329508D01*
X5780218Y-17329508D02*
X5789741Y-17339031D01*
X5789741Y-17339031D02*
X5799265Y-17358079D01*
X5799265Y-17358079D02*
X5799265Y-17377127D01*
X5799265Y-17377127D02*
X5789741Y-17405698D01*
X5789741Y-17405698D02*
X5675456Y-17519984D01*
X5675456Y-17519984D02*
X5799265Y-17519984D01*
X6037360Y-17519984D02*
X6037360Y-17319984D01*
X6123075Y-17519984D02*
X6123075Y-17415222D01*
X6123075Y-17415222D02*
X6113551Y-17396174D01*
X6113551Y-17396174D02*
X6094503Y-17386650D01*
X6094503Y-17386650D02*
X6065932Y-17386650D01*
X6065932Y-17386650D02*
X6046884Y-17396174D01*
X6046884Y-17396174D02*
X6037360Y-17405698D01*
X6246884Y-17519984D02*
X6227837Y-17510460D01*
X6227837Y-17510460D02*
X6218313Y-17500936D01*
X6218313Y-17500936D02*
X6208789Y-17481889D01*
X6208789Y-17481889D02*
X6208789Y-17424746D01*
X6208789Y-17424746D02*
X6218313Y-17405698D01*
X6218313Y-17405698D02*
X6227837Y-17396174D01*
X6227837Y-17396174D02*
X6246884Y-17386650D01*
X6246884Y-17386650D02*
X6275456Y-17386650D01*
X6275456Y-17386650D02*
X6294503Y-17396174D01*
X6294503Y-17396174D02*
X6304027Y-17405698D01*
X6304027Y-17405698D02*
X6313551Y-17424746D01*
X6313551Y-17424746D02*
X6313551Y-17481889D01*
X6313551Y-17481889D02*
X6304027Y-17500936D01*
X6304027Y-17500936D02*
X6294503Y-17510460D01*
X6294503Y-17510460D02*
X6275456Y-17519984D01*
X6275456Y-17519984D02*
X6246884Y-17519984D01*
X6427837Y-17519984D02*
X6408789Y-17510460D01*
X6408789Y-17510460D02*
X6399265Y-17491412D01*
X6399265Y-17491412D02*
X6399265Y-17319984D01*
X6580218Y-17510460D02*
X6561170Y-17519984D01*
X6561170Y-17519984D02*
X6523075Y-17519984D01*
X6523075Y-17519984D02*
X6504027Y-17510460D01*
X6504027Y-17510460D02*
X6494503Y-17491412D01*
X6494503Y-17491412D02*
X6494503Y-17415222D01*
X6494503Y-17415222D02*
X6504027Y-17396174D01*
X6504027Y-17396174D02*
X6523075Y-17386650D01*
X6523075Y-17386650D02*
X6561170Y-17386650D01*
X6561170Y-17386650D02*
X6580218Y-17396174D01*
X6580218Y-17396174D02*
X6589741Y-17415222D01*
X6589741Y-17415222D02*
X6589741Y-17434270D01*
X6589741Y-17434270D02*
X6494503Y-17453317D01*
X6665932Y-17510460D02*
X6684980Y-17519984D01*
X6684980Y-17519984D02*
X6723075Y-17519984D01*
X6723075Y-17519984D02*
X6742122Y-17510460D01*
X6742122Y-17510460D02*
X6751646Y-17491412D01*
X6751646Y-17491412D02*
X6751646Y-17481889D01*
X6751646Y-17481889D02*
X6742122Y-17462841D01*
X6742122Y-17462841D02*
X6723075Y-17453317D01*
X6723075Y-17453317D02*
X6694503Y-17453317D01*
X6694503Y-17453317D02*
X6675456Y-17443793D01*
X6675456Y-17443793D02*
X6665932Y-17424746D01*
X6665932Y-17424746D02*
X6665932Y-17415222D01*
X6665932Y-17415222D02*
X6675456Y-17396174D01*
X6675456Y-17396174D02*
X6694503Y-17386650D01*
X6694503Y-17386650D02*
X6723075Y-17386650D01*
X6723075Y-17386650D02*
X6742122Y-17396174D01*
X6818313Y-17596174D02*
X6827837Y-17586650D01*
X6827837Y-17586650D02*
X6846884Y-17558079D01*
X6846884Y-17558079D02*
X6856408Y-17539031D01*
X6856408Y-17539031D02*
X6865932Y-17510460D01*
X6865932Y-17510460D02*
X6875456Y-17462841D01*
X6875456Y-17462841D02*
X6875456Y-17424746D01*
X6875456Y-17424746D02*
X6865932Y-17377127D01*
X6865932Y-17377127D02*
X6856408Y-17348555D01*
X6856408Y-17348555D02*
X6846884Y-17329508D01*
X6846884Y-17329508D02*
X6827837Y-17300936D01*
X6827837Y-17300936D02*
X6818313Y-17291412D01*
X7180218Y-17596174D02*
X7170694Y-17586650D01*
X7170694Y-17586650D02*
X7151646Y-17558079D01*
X7151646Y-17558079D02*
X7142122Y-17539031D01*
X7142122Y-17539031D02*
X7132599Y-17510460D01*
X7132599Y-17510460D02*
X7123075Y-17462841D01*
X7123075Y-17462841D02*
X7123075Y-17424746D01*
X7123075Y-17424746D02*
X7132599Y-17377127D01*
X7132599Y-17377127D02*
X7142122Y-17348555D01*
X7142122Y-17348555D02*
X7151646Y-17329508D01*
X7151646Y-17329508D02*
X7170694Y-17300936D01*
X7170694Y-17300936D02*
X7180218Y-17291412D01*
X7256408Y-17386650D02*
X7256408Y-17519984D01*
X7256408Y-17405698D02*
X7265932Y-17396174D01*
X7265932Y-17396174D02*
X7284980Y-17386650D01*
X7284980Y-17386650D02*
X7313551Y-17386650D01*
X7313551Y-17386650D02*
X7332599Y-17396174D01*
X7332599Y-17396174D02*
X7342122Y-17415222D01*
X7342122Y-17415222D02*
X7342122Y-17519984D01*
X7465932Y-17519984D02*
X7446884Y-17510460D01*
X7446884Y-17510460D02*
X7437361Y-17500936D01*
X7437361Y-17500936D02*
X7427837Y-17481889D01*
X7427837Y-17481889D02*
X7427837Y-17424746D01*
X7427837Y-17424746D02*
X7437361Y-17405698D01*
X7437361Y-17405698D02*
X7446884Y-17396174D01*
X7446884Y-17396174D02*
X7465932Y-17386650D01*
X7465932Y-17386650D02*
X7494503Y-17386650D01*
X7494503Y-17386650D02*
X7513551Y-17396174D01*
X7513551Y-17396174D02*
X7523075Y-17405698D01*
X7523075Y-17405698D02*
X7532599Y-17424746D01*
X7532599Y-17424746D02*
X7532599Y-17481889D01*
X7532599Y-17481889D02*
X7523075Y-17500936D01*
X7523075Y-17500936D02*
X7513551Y-17510460D01*
X7513551Y-17510460D02*
X7494503Y-17519984D01*
X7494503Y-17519984D02*
X7465932Y-17519984D01*
X7589742Y-17386650D02*
X7665932Y-17386650D01*
X7618313Y-17319984D02*
X7618313Y-17491412D01*
X7618313Y-17491412D02*
X7627837Y-17510460D01*
X7627837Y-17510460D02*
X7646884Y-17519984D01*
X7646884Y-17519984D02*
X7665932Y-17519984D01*
X7884980Y-17386650D02*
X7884980Y-17586650D01*
X7884980Y-17396174D02*
X7904027Y-17386650D01*
X7904027Y-17386650D02*
X7942123Y-17386650D01*
X7942123Y-17386650D02*
X7961170Y-17396174D01*
X7961170Y-17396174D02*
X7970694Y-17405698D01*
X7970694Y-17405698D02*
X7980218Y-17424746D01*
X7980218Y-17424746D02*
X7980218Y-17481889D01*
X7980218Y-17481889D02*
X7970694Y-17500936D01*
X7970694Y-17500936D02*
X7961170Y-17510460D01*
X7961170Y-17510460D02*
X7942123Y-17519984D01*
X7942123Y-17519984D02*
X7904027Y-17519984D01*
X7904027Y-17519984D02*
X7884980Y-17510460D01*
X8094503Y-17519984D02*
X8075456Y-17510460D01*
X8075456Y-17510460D02*
X8065932Y-17491412D01*
X8065932Y-17491412D02*
X8065932Y-17319984D01*
X8256408Y-17519984D02*
X8256408Y-17415222D01*
X8256408Y-17415222D02*
X8246884Y-17396174D01*
X8246884Y-17396174D02*
X8227837Y-17386650D01*
X8227837Y-17386650D02*
X8189742Y-17386650D01*
X8189742Y-17386650D02*
X8170694Y-17396174D01*
X8256408Y-17510460D02*
X8237361Y-17519984D01*
X8237361Y-17519984D02*
X8189742Y-17519984D01*
X8189742Y-17519984D02*
X8170694Y-17510460D01*
X8170694Y-17510460D02*
X8161170Y-17491412D01*
X8161170Y-17491412D02*
X8161170Y-17472365D01*
X8161170Y-17472365D02*
X8170694Y-17453317D01*
X8170694Y-17453317D02*
X8189742Y-17443793D01*
X8189742Y-17443793D02*
X8237361Y-17443793D01*
X8237361Y-17443793D02*
X8256408Y-17434270D01*
X8323075Y-17386650D02*
X8399265Y-17386650D01*
X8351646Y-17319984D02*
X8351646Y-17491412D01*
X8351646Y-17491412D02*
X8361170Y-17510460D01*
X8361170Y-17510460D02*
X8380218Y-17519984D01*
X8380218Y-17519984D02*
X8399265Y-17519984D01*
X8542123Y-17510460D02*
X8523075Y-17519984D01*
X8523075Y-17519984D02*
X8484980Y-17519984D01*
X8484980Y-17519984D02*
X8465932Y-17510460D01*
X8465932Y-17510460D02*
X8456408Y-17491412D01*
X8456408Y-17491412D02*
X8456408Y-17415222D01*
X8456408Y-17415222D02*
X8465932Y-17396174D01*
X8465932Y-17396174D02*
X8484980Y-17386650D01*
X8484980Y-17386650D02*
X8523075Y-17386650D01*
X8523075Y-17386650D02*
X8542123Y-17396174D01*
X8542123Y-17396174D02*
X8551646Y-17415222D01*
X8551646Y-17415222D02*
X8551646Y-17434270D01*
X8551646Y-17434270D02*
X8456408Y-17453317D01*
X8723075Y-17519984D02*
X8723075Y-17319984D01*
X8723075Y-17510460D02*
X8704027Y-17519984D01*
X8704027Y-17519984D02*
X8665932Y-17519984D01*
X8665932Y-17519984D02*
X8646885Y-17510460D01*
X8646885Y-17510460D02*
X8637361Y-17500936D01*
X8637361Y-17500936D02*
X8627837Y-17481889D01*
X8627837Y-17481889D02*
X8627837Y-17424746D01*
X8627837Y-17424746D02*
X8637361Y-17405698D01*
X8637361Y-17405698D02*
X8646885Y-17396174D01*
X8646885Y-17396174D02*
X8665932Y-17386650D01*
X8665932Y-17386650D02*
X8704027Y-17386650D01*
X8704027Y-17386650D02*
X8723075Y-17396174D01*
X8799266Y-17596174D02*
X8808789Y-17586650D01*
X8808789Y-17586650D02*
X8827837Y-17558079D01*
X8827837Y-17558079D02*
X8837361Y-17539031D01*
X8837361Y-17539031D02*
X8846885Y-17510460D01*
X8846885Y-17510460D02*
X8856408Y-17462841D01*
X8856408Y-17462841D02*
X8856408Y-17424746D01*
X8856408Y-17424746D02*
X8846885Y-17377127D01*
X8846885Y-17377127D02*
X8837361Y-17348555D01*
X8837361Y-17348555D02*
X8827837Y-17329508D01*
X8827837Y-17329508D02*
X8808789Y-17300936D01*
X8808789Y-17300936D02*
X8799266Y-17291412D01*
X2013961Y-17763211D02*
X2013961Y-17621789D01*
X1872539Y-17621789D01*
X1872539Y-17763211D01*
X2013961Y-17763211D01*
X2294503Y-17603031D02*
X2304027Y-17593508D01*
X2304027Y-17593508D02*
X2323074Y-17583984D01*
X2323074Y-17583984D02*
X2370694Y-17583984D01*
X2370694Y-17583984D02*
X2389741Y-17593508D01*
X2389741Y-17593508D02*
X2399265Y-17603031D01*
X2399265Y-17603031D02*
X2408789Y-17622079D01*
X2408789Y-17622079D02*
X2408789Y-17641127D01*
X2408789Y-17641127D02*
X2399265Y-17669698D01*
X2399265Y-17669698D02*
X2284979Y-17783984D01*
X2284979Y-17783984D02*
X2408789Y-17783984D01*
X2494503Y-17764936D02*
X2504027Y-17774460D01*
X2504027Y-17774460D02*
X2494503Y-17783984D01*
X2494503Y-17783984D02*
X2484979Y-17774460D01*
X2484979Y-17774460D02*
X2494503Y-17764936D01*
X2494503Y-17764936D02*
X2494503Y-17783984D01*
X2627836Y-17583984D02*
X2646884Y-17583984D01*
X2646884Y-17583984D02*
X2665932Y-17593508D01*
X2665932Y-17593508D02*
X2675455Y-17603031D01*
X2675455Y-17603031D02*
X2684979Y-17622079D01*
X2684979Y-17622079D02*
X2694503Y-17660174D01*
X2694503Y-17660174D02*
X2694503Y-17707793D01*
X2694503Y-17707793D02*
X2684979Y-17745889D01*
X2684979Y-17745889D02*
X2675455Y-17764936D01*
X2675455Y-17764936D02*
X2665932Y-17774460D01*
X2665932Y-17774460D02*
X2646884Y-17783984D01*
X2646884Y-17783984D02*
X2627836Y-17783984D01*
X2627836Y-17783984D02*
X2608789Y-17774460D01*
X2608789Y-17774460D02*
X2599265Y-17764936D01*
X2599265Y-17764936D02*
X2589741Y-17745889D01*
X2589741Y-17745889D02*
X2580217Y-17707793D01*
X2580217Y-17707793D02*
X2580217Y-17660174D01*
X2580217Y-17660174D02*
X2589741Y-17622079D01*
X2589741Y-17622079D02*
X2599265Y-17603031D01*
X2599265Y-17603031D02*
X2608789Y-17593508D01*
X2608789Y-17593508D02*
X2627836Y-17583984D01*
X2818312Y-17583984D02*
X2837360Y-17583984D01*
X2837360Y-17583984D02*
X2856408Y-17593508D01*
X2856408Y-17593508D02*
X2865932Y-17603031D01*
X2865932Y-17603031D02*
X2875455Y-17622079D01*
X2875455Y-17622079D02*
X2884979Y-17660174D01*
X2884979Y-17660174D02*
X2884979Y-17707793D01*
X2884979Y-17707793D02*
X2875455Y-17745889D01*
X2875455Y-17745889D02*
X2865932Y-17764936D01*
X2865932Y-17764936D02*
X2856408Y-17774460D01*
X2856408Y-17774460D02*
X2837360Y-17783984D01*
X2837360Y-17783984D02*
X2818312Y-17783984D01*
X2818312Y-17783984D02*
X2799265Y-17774460D01*
X2799265Y-17774460D02*
X2789741Y-17764936D01*
X2789741Y-17764936D02*
X2780217Y-17745889D01*
X2780217Y-17745889D02*
X2770694Y-17707793D01*
X2770694Y-17707793D02*
X2770694Y-17660174D01*
X2770694Y-17660174D02*
X2780217Y-17622079D01*
X2780217Y-17622079D02*
X2789741Y-17603031D01*
X2789741Y-17603031D02*
X2799265Y-17593508D01*
X2799265Y-17593508D02*
X2818312Y-17583984D01*
X3008789Y-17583984D02*
X3027836Y-17583984D01*
X3027836Y-17583984D02*
X3046884Y-17593508D01*
X3046884Y-17593508D02*
X3056408Y-17603031D01*
X3056408Y-17603031D02*
X3065932Y-17622079D01*
X3065932Y-17622079D02*
X3075455Y-17660174D01*
X3075455Y-17660174D02*
X3075455Y-17707793D01*
X3075455Y-17707793D02*
X3065932Y-17745889D01*
X3065932Y-17745889D02*
X3056408Y-17764936D01*
X3056408Y-17764936D02*
X3046884Y-17774460D01*
X3046884Y-17774460D02*
X3027836Y-17783984D01*
X3027836Y-17783984D02*
X3008789Y-17783984D01*
X3008789Y-17783984D02*
X2989741Y-17774460D01*
X2989741Y-17774460D02*
X2980217Y-17764936D01*
X2980217Y-17764936D02*
X2970693Y-17745889D01*
X2970693Y-17745889D02*
X2961170Y-17707793D01*
X2961170Y-17707793D02*
X2961170Y-17660174D01*
X2961170Y-17660174D02*
X2970693Y-17622079D01*
X2970693Y-17622079D02*
X2980217Y-17603031D01*
X2980217Y-17603031D02*
X2989741Y-17593508D01*
X2989741Y-17593508D02*
X3008789Y-17583984D01*
X3161170Y-17783984D02*
X3161170Y-17650650D01*
X3161170Y-17669698D02*
X3170693Y-17660174D01*
X3170693Y-17660174D02*
X3189741Y-17650650D01*
X3189741Y-17650650D02*
X3218313Y-17650650D01*
X3218313Y-17650650D02*
X3237360Y-17660174D01*
X3237360Y-17660174D02*
X3246884Y-17679222D01*
X3246884Y-17679222D02*
X3246884Y-17783984D01*
X3246884Y-17679222D02*
X3256408Y-17660174D01*
X3256408Y-17660174D02*
X3275455Y-17650650D01*
X3275455Y-17650650D02*
X3304027Y-17650650D01*
X3304027Y-17650650D02*
X3323074Y-17660174D01*
X3323074Y-17660174D02*
X3332598Y-17679222D01*
X3332598Y-17679222D02*
X3332598Y-17783984D01*
X3427836Y-17783984D02*
X3427836Y-17650650D01*
X3427836Y-17669698D02*
X3437360Y-17660174D01*
X3437360Y-17660174D02*
X3456408Y-17650650D01*
X3456408Y-17650650D02*
X3484979Y-17650650D01*
X3484979Y-17650650D02*
X3504027Y-17660174D01*
X3504027Y-17660174D02*
X3513551Y-17679222D01*
X3513551Y-17679222D02*
X3513551Y-17783984D01*
X3513551Y-17679222D02*
X3523074Y-17660174D01*
X3523074Y-17660174D02*
X3542122Y-17650650D01*
X3542122Y-17650650D02*
X3570693Y-17650650D01*
X3570693Y-17650650D02*
X3589741Y-17660174D01*
X3589741Y-17660174D02*
X3599265Y-17679222D01*
X3599265Y-17679222D02*
X3599265Y-17783984D01*
X3989741Y-17574460D02*
X3818313Y-17831603D01*
X4246884Y-17583984D02*
X4265932Y-17583984D01*
X4265932Y-17583984D02*
X4284979Y-17593508D01*
X4284979Y-17593508D02*
X4294503Y-17603031D01*
X4294503Y-17603031D02*
X4304027Y-17622079D01*
X4304027Y-17622079D02*
X4313551Y-17660174D01*
X4313551Y-17660174D02*
X4313551Y-17707793D01*
X4313551Y-17707793D02*
X4304027Y-17745889D01*
X4304027Y-17745889D02*
X4294503Y-17764936D01*
X4294503Y-17764936D02*
X4284979Y-17774460D01*
X4284979Y-17774460D02*
X4265932Y-17783984D01*
X4265932Y-17783984D02*
X4246884Y-17783984D01*
X4246884Y-17783984D02*
X4227837Y-17774460D01*
X4227837Y-17774460D02*
X4218313Y-17764936D01*
X4218313Y-17764936D02*
X4208789Y-17745889D01*
X4208789Y-17745889D02*
X4199265Y-17707793D01*
X4199265Y-17707793D02*
X4199265Y-17660174D01*
X4199265Y-17660174D02*
X4208789Y-17622079D01*
X4208789Y-17622079D02*
X4218313Y-17603031D01*
X4218313Y-17603031D02*
X4227837Y-17593508D01*
X4227837Y-17593508D02*
X4246884Y-17583984D01*
X4399265Y-17764936D02*
X4408789Y-17774460D01*
X4408789Y-17774460D02*
X4399265Y-17783984D01*
X4399265Y-17783984D02*
X4389741Y-17774460D01*
X4389741Y-17774460D02*
X4399265Y-17764936D01*
X4399265Y-17764936D02*
X4399265Y-17783984D01*
X4532598Y-17583984D02*
X4551646Y-17583984D01*
X4551646Y-17583984D02*
X4570694Y-17593508D01*
X4570694Y-17593508D02*
X4580218Y-17603031D01*
X4580218Y-17603031D02*
X4589741Y-17622079D01*
X4589741Y-17622079D02*
X4599265Y-17660174D01*
X4599265Y-17660174D02*
X4599265Y-17707793D01*
X4599265Y-17707793D02*
X4589741Y-17745889D01*
X4589741Y-17745889D02*
X4580218Y-17764936D01*
X4580218Y-17764936D02*
X4570694Y-17774460D01*
X4570694Y-17774460D02*
X4551646Y-17783984D01*
X4551646Y-17783984D02*
X4532598Y-17783984D01*
X4532598Y-17783984D02*
X4513551Y-17774460D01*
X4513551Y-17774460D02*
X4504027Y-17764936D01*
X4504027Y-17764936D02*
X4494503Y-17745889D01*
X4494503Y-17745889D02*
X4484979Y-17707793D01*
X4484979Y-17707793D02*
X4484979Y-17660174D01*
X4484979Y-17660174D02*
X4494503Y-17622079D01*
X4494503Y-17622079D02*
X4504027Y-17603031D01*
X4504027Y-17603031D02*
X4513551Y-17593508D01*
X4513551Y-17593508D02*
X4532598Y-17583984D01*
X4665932Y-17583984D02*
X4799265Y-17583984D01*
X4799265Y-17583984D02*
X4713551Y-17783984D01*
X4904027Y-17669698D02*
X4884979Y-17660174D01*
X4884979Y-17660174D02*
X4875456Y-17650650D01*
X4875456Y-17650650D02*
X4865932Y-17631603D01*
X4865932Y-17631603D02*
X4865932Y-17622079D01*
X4865932Y-17622079D02*
X4875456Y-17603031D01*
X4875456Y-17603031D02*
X4884979Y-17593508D01*
X4884979Y-17593508D02*
X4904027Y-17583984D01*
X4904027Y-17583984D02*
X4942122Y-17583984D01*
X4942122Y-17583984D02*
X4961170Y-17593508D01*
X4961170Y-17593508D02*
X4970694Y-17603031D01*
X4970694Y-17603031D02*
X4980218Y-17622079D01*
X4980218Y-17622079D02*
X4980218Y-17631603D01*
X4980218Y-17631603D02*
X4970694Y-17650650D01*
X4970694Y-17650650D02*
X4961170Y-17660174D01*
X4961170Y-17660174D02*
X4942122Y-17669698D01*
X4942122Y-17669698D02*
X4904027Y-17669698D01*
X4904027Y-17669698D02*
X4884979Y-17679222D01*
X4884979Y-17679222D02*
X4875456Y-17688746D01*
X4875456Y-17688746D02*
X4865932Y-17707793D01*
X4865932Y-17707793D02*
X4865932Y-17745889D01*
X4865932Y-17745889D02*
X4875456Y-17764936D01*
X4875456Y-17764936D02*
X4884979Y-17774460D01*
X4884979Y-17774460D02*
X4904027Y-17783984D01*
X4904027Y-17783984D02*
X4942122Y-17783984D01*
X4942122Y-17783984D02*
X4961170Y-17774460D01*
X4961170Y-17774460D02*
X4970694Y-17764936D01*
X4970694Y-17764936D02*
X4980218Y-17745889D01*
X4980218Y-17745889D02*
X4980218Y-17707793D01*
X4980218Y-17707793D02*
X4970694Y-17688746D01*
X4970694Y-17688746D02*
X4961170Y-17679222D01*
X4961170Y-17679222D02*
X4942122Y-17669698D01*
X5046884Y-17583984D02*
X5180218Y-17583984D01*
X5180218Y-17583984D02*
X5094503Y-17783984D01*
X5246884Y-17583984D02*
X5246884Y-17622079D01*
X5323075Y-17583984D02*
X5323075Y-17622079D01*
X5618313Y-17860174D02*
X5608789Y-17850650D01*
X5608789Y-17850650D02*
X5589741Y-17822079D01*
X5589741Y-17822079D02*
X5580218Y-17803031D01*
X5580218Y-17803031D02*
X5570694Y-17774460D01*
X5570694Y-17774460D02*
X5561170Y-17726841D01*
X5561170Y-17726841D02*
X5561170Y-17688746D01*
X5561170Y-17688746D02*
X5570694Y-17641127D01*
X5570694Y-17641127D02*
X5580218Y-17612555D01*
X5580218Y-17612555D02*
X5589741Y-17593508D01*
X5589741Y-17593508D02*
X5608789Y-17564936D01*
X5608789Y-17564936D02*
X5618313Y-17555412D01*
X5799265Y-17783984D02*
X5684979Y-17783984D01*
X5742122Y-17783984D02*
X5742122Y-17583984D01*
X5742122Y-17583984D02*
X5723075Y-17612555D01*
X5723075Y-17612555D02*
X5704027Y-17631603D01*
X5704027Y-17631603D02*
X5684979Y-17641127D01*
X6027837Y-17774460D02*
X6046884Y-17783984D01*
X6046884Y-17783984D02*
X6084979Y-17783984D01*
X6084979Y-17783984D02*
X6104027Y-17774460D01*
X6104027Y-17774460D02*
X6113551Y-17755412D01*
X6113551Y-17755412D02*
X6113551Y-17745889D01*
X6113551Y-17745889D02*
X6104027Y-17726841D01*
X6104027Y-17726841D02*
X6084979Y-17717317D01*
X6084979Y-17717317D02*
X6056408Y-17717317D01*
X6056408Y-17717317D02*
X6037360Y-17707793D01*
X6037360Y-17707793D02*
X6027837Y-17688746D01*
X6027837Y-17688746D02*
X6027837Y-17679222D01*
X6027837Y-17679222D02*
X6037360Y-17660174D01*
X6037360Y-17660174D02*
X6056408Y-17650650D01*
X6056408Y-17650650D02*
X6084979Y-17650650D01*
X6084979Y-17650650D02*
X6104027Y-17660174D01*
X6227837Y-17783984D02*
X6208789Y-17774460D01*
X6208789Y-17774460D02*
X6199265Y-17755412D01*
X6199265Y-17755412D02*
X6199265Y-17583984D01*
X6332599Y-17783984D02*
X6313551Y-17774460D01*
X6313551Y-17774460D02*
X6304027Y-17764936D01*
X6304027Y-17764936D02*
X6294503Y-17745889D01*
X6294503Y-17745889D02*
X6294503Y-17688746D01*
X6294503Y-17688746D02*
X6304027Y-17669698D01*
X6304027Y-17669698D02*
X6313551Y-17660174D01*
X6313551Y-17660174D02*
X6332599Y-17650650D01*
X6332599Y-17650650D02*
X6361170Y-17650650D01*
X6361170Y-17650650D02*
X6380218Y-17660174D01*
X6380218Y-17660174D02*
X6389741Y-17669698D01*
X6389741Y-17669698D02*
X6399265Y-17688746D01*
X6399265Y-17688746D02*
X6399265Y-17745889D01*
X6399265Y-17745889D02*
X6389741Y-17764936D01*
X6389741Y-17764936D02*
X6380218Y-17774460D01*
X6380218Y-17774460D02*
X6361170Y-17783984D01*
X6361170Y-17783984D02*
X6332599Y-17783984D01*
X6456408Y-17650650D02*
X6532599Y-17650650D01*
X6484980Y-17583984D02*
X6484980Y-17755412D01*
X6484980Y-17755412D02*
X6494503Y-17774460D01*
X6494503Y-17774460D02*
X6513551Y-17783984D01*
X6513551Y-17783984D02*
X6532599Y-17783984D01*
X6580218Y-17860174D02*
X6589741Y-17850650D01*
X6589741Y-17850650D02*
X6608789Y-17822079D01*
X6608789Y-17822079D02*
X6618313Y-17803031D01*
X6618313Y-17803031D02*
X6627837Y-17774460D01*
X6627837Y-17774460D02*
X6637360Y-17726841D01*
X6637360Y-17726841D02*
X6637360Y-17688746D01*
X6637360Y-17688746D02*
X6627837Y-17641127D01*
X6627837Y-17641127D02*
X6618313Y-17612555D01*
X6618313Y-17612555D02*
X6608789Y-17593508D01*
X6608789Y-17593508D02*
X6589741Y-17564936D01*
X6589741Y-17564936D02*
X6580218Y-17555412D01*
X6942122Y-17860174D02*
X6932599Y-17850650D01*
X6932599Y-17850650D02*
X6913551Y-17822079D01*
X6913551Y-17822079D02*
X6904027Y-17803031D01*
X6904027Y-17803031D02*
X6894503Y-17774460D01*
X6894503Y-17774460D02*
X6884980Y-17726841D01*
X6884980Y-17726841D02*
X6884980Y-17688746D01*
X6884980Y-17688746D02*
X6894503Y-17641127D01*
X6894503Y-17641127D02*
X6904027Y-17612555D01*
X6904027Y-17612555D02*
X6913551Y-17593508D01*
X6913551Y-17593508D02*
X6932599Y-17564936D01*
X6932599Y-17564936D02*
X6942122Y-17555412D01*
X7018313Y-17650650D02*
X7018313Y-17783984D01*
X7018313Y-17669698D02*
X7027837Y-17660174D01*
X7027837Y-17660174D02*
X7046884Y-17650650D01*
X7046884Y-17650650D02*
X7075456Y-17650650D01*
X7075456Y-17650650D02*
X7094503Y-17660174D01*
X7094503Y-17660174D02*
X7104027Y-17679222D01*
X7104027Y-17679222D02*
X7104027Y-17783984D01*
X7227837Y-17783984D02*
X7208789Y-17774460D01*
X7208789Y-17774460D02*
X7199265Y-17764936D01*
X7199265Y-17764936D02*
X7189741Y-17745889D01*
X7189741Y-17745889D02*
X7189741Y-17688746D01*
X7189741Y-17688746D02*
X7199265Y-17669698D01*
X7199265Y-17669698D02*
X7208789Y-17660174D01*
X7208789Y-17660174D02*
X7227837Y-17650650D01*
X7227837Y-17650650D02*
X7256408Y-17650650D01*
X7256408Y-17650650D02*
X7275456Y-17660174D01*
X7275456Y-17660174D02*
X7284980Y-17669698D01*
X7284980Y-17669698D02*
X7294503Y-17688746D01*
X7294503Y-17688746D02*
X7294503Y-17745889D01*
X7294503Y-17745889D02*
X7284980Y-17764936D01*
X7284980Y-17764936D02*
X7275456Y-17774460D01*
X7275456Y-17774460D02*
X7256408Y-17783984D01*
X7256408Y-17783984D02*
X7227837Y-17783984D01*
X7351646Y-17650650D02*
X7427837Y-17650650D01*
X7380218Y-17583984D02*
X7380218Y-17755412D01*
X7380218Y-17755412D02*
X7389741Y-17774460D01*
X7389741Y-17774460D02*
X7408789Y-17783984D01*
X7408789Y-17783984D02*
X7427837Y-17783984D01*
X7646884Y-17650650D02*
X7646884Y-17850650D01*
X7646884Y-17660174D02*
X7665932Y-17650650D01*
X7665932Y-17650650D02*
X7704027Y-17650650D01*
X7704027Y-17650650D02*
X7723075Y-17660174D01*
X7723075Y-17660174D02*
X7732599Y-17669698D01*
X7732599Y-17669698D02*
X7742122Y-17688746D01*
X7742122Y-17688746D02*
X7742122Y-17745889D01*
X7742122Y-17745889D02*
X7732599Y-17764936D01*
X7732599Y-17764936D02*
X7723075Y-17774460D01*
X7723075Y-17774460D02*
X7704027Y-17783984D01*
X7704027Y-17783984D02*
X7665932Y-17783984D01*
X7665932Y-17783984D02*
X7646884Y-17774460D01*
X7856408Y-17783984D02*
X7837361Y-17774460D01*
X7837361Y-17774460D02*
X7827837Y-17755412D01*
X7827837Y-17755412D02*
X7827837Y-17583984D01*
X8018313Y-17783984D02*
X8018313Y-17679222D01*
X8018313Y-17679222D02*
X8008789Y-17660174D01*
X8008789Y-17660174D02*
X7989742Y-17650650D01*
X7989742Y-17650650D02*
X7951646Y-17650650D01*
X7951646Y-17650650D02*
X7932599Y-17660174D01*
X8018313Y-17774460D02*
X7999265Y-17783984D01*
X7999265Y-17783984D02*
X7951646Y-17783984D01*
X7951646Y-17783984D02*
X7932599Y-17774460D01*
X7932599Y-17774460D02*
X7923075Y-17755412D01*
X7923075Y-17755412D02*
X7923075Y-17736365D01*
X7923075Y-17736365D02*
X7932599Y-17717317D01*
X7932599Y-17717317D02*
X7951646Y-17707793D01*
X7951646Y-17707793D02*
X7999265Y-17707793D01*
X7999265Y-17707793D02*
X8018313Y-17698270D01*
X8084980Y-17650650D02*
X8161170Y-17650650D01*
X8113551Y-17583984D02*
X8113551Y-17755412D01*
X8113551Y-17755412D02*
X8123075Y-17774460D01*
X8123075Y-17774460D02*
X8142122Y-17783984D01*
X8142122Y-17783984D02*
X8161170Y-17783984D01*
X8304027Y-17774460D02*
X8284980Y-17783984D01*
X8284980Y-17783984D02*
X8246884Y-17783984D01*
X8246884Y-17783984D02*
X8227837Y-17774460D01*
X8227837Y-17774460D02*
X8218313Y-17755412D01*
X8218313Y-17755412D02*
X8218313Y-17679222D01*
X8218313Y-17679222D02*
X8227837Y-17660174D01*
X8227837Y-17660174D02*
X8246884Y-17650650D01*
X8246884Y-17650650D02*
X8284980Y-17650650D01*
X8284980Y-17650650D02*
X8304027Y-17660174D01*
X8304027Y-17660174D02*
X8313551Y-17679222D01*
X8313551Y-17679222D02*
X8313551Y-17698270D01*
X8313551Y-17698270D02*
X8218313Y-17717317D01*
X8484980Y-17783984D02*
X8484980Y-17583984D01*
X8484980Y-17774460D02*
X8465932Y-17783984D01*
X8465932Y-17783984D02*
X8427837Y-17783984D01*
X8427837Y-17783984D02*
X8408789Y-17774460D01*
X8408789Y-17774460D02*
X8399265Y-17764936D01*
X8399265Y-17764936D02*
X8389742Y-17745889D01*
X8389742Y-17745889D02*
X8389742Y-17688746D01*
X8389742Y-17688746D02*
X8399265Y-17669698D01*
X8399265Y-17669698D02*
X8408789Y-17660174D01*
X8408789Y-17660174D02*
X8427837Y-17650650D01*
X8427837Y-17650650D02*
X8465932Y-17650650D01*
X8465932Y-17650650D02*
X8484980Y-17660174D01*
X8561170Y-17860174D02*
X8570694Y-17850650D01*
X8570694Y-17850650D02*
X8589742Y-17822079D01*
X8589742Y-17822079D02*
X8599265Y-17803031D01*
X8599265Y-17803031D02*
X8608789Y-17774460D01*
X8608789Y-17774460D02*
X8618313Y-17726841D01*
X8618313Y-17726841D02*
X8618313Y-17688746D01*
X8618313Y-17688746D02*
X8608789Y-17641127D01*
X8608789Y-17641127D02*
X8599265Y-17612555D01*
X8599265Y-17612555D02*
X8589742Y-17593508D01*
X8589742Y-17593508D02*
X8570694Y-17564936D01*
X8570694Y-17564936D02*
X8561170Y-17555412D01*
X1943250Y-18112500D02*
X2043250Y-18012500D01*
X1943250Y-17912500D01*
X1843250Y-18012500D01*
X1943250Y-18112500D01*
X2284979Y-17903984D02*
X2408789Y-17903984D01*
X2408789Y-17903984D02*
X2342122Y-17980174D01*
X2342122Y-17980174D02*
X2370694Y-17980174D01*
X2370694Y-17980174D02*
X2389741Y-17989698D01*
X2389741Y-17989698D02*
X2399265Y-17999222D01*
X2399265Y-17999222D02*
X2408789Y-18018270D01*
X2408789Y-18018270D02*
X2408789Y-18065889D01*
X2408789Y-18065889D02*
X2399265Y-18084936D01*
X2399265Y-18084936D02*
X2389741Y-18094460D01*
X2389741Y-18094460D02*
X2370694Y-18103984D01*
X2370694Y-18103984D02*
X2313551Y-18103984D01*
X2313551Y-18103984D02*
X2294503Y-18094460D01*
X2294503Y-18094460D02*
X2284979Y-18084936D01*
X2494503Y-18084936D02*
X2504027Y-18094460D01*
X2504027Y-18094460D02*
X2494503Y-18103984D01*
X2494503Y-18103984D02*
X2484979Y-18094460D01*
X2484979Y-18094460D02*
X2494503Y-18084936D01*
X2494503Y-18084936D02*
X2494503Y-18103984D01*
X2580217Y-17923031D02*
X2589741Y-17913508D01*
X2589741Y-17913508D02*
X2608789Y-17903984D01*
X2608789Y-17903984D02*
X2656408Y-17903984D01*
X2656408Y-17903984D02*
X2675455Y-17913508D01*
X2675455Y-17913508D02*
X2684979Y-17923031D01*
X2684979Y-17923031D02*
X2694503Y-17942079D01*
X2694503Y-17942079D02*
X2694503Y-17961127D01*
X2694503Y-17961127D02*
X2684979Y-17989698D01*
X2684979Y-17989698D02*
X2570694Y-18103984D01*
X2570694Y-18103984D02*
X2694503Y-18103984D01*
X2875455Y-17903984D02*
X2780217Y-17903984D01*
X2780217Y-17903984D02*
X2770694Y-17999222D01*
X2770694Y-17999222D02*
X2780217Y-17989698D01*
X2780217Y-17989698D02*
X2799265Y-17980174D01*
X2799265Y-17980174D02*
X2846884Y-17980174D01*
X2846884Y-17980174D02*
X2865932Y-17989698D01*
X2865932Y-17989698D02*
X2875455Y-17999222D01*
X2875455Y-17999222D02*
X2884979Y-18018270D01*
X2884979Y-18018270D02*
X2884979Y-18065889D01*
X2884979Y-18065889D02*
X2875455Y-18084936D01*
X2875455Y-18084936D02*
X2865932Y-18094460D01*
X2865932Y-18094460D02*
X2846884Y-18103984D01*
X2846884Y-18103984D02*
X2799265Y-18103984D01*
X2799265Y-18103984D02*
X2780217Y-18094460D01*
X2780217Y-18094460D02*
X2770694Y-18084936D01*
X3008789Y-17903984D02*
X3027836Y-17903984D01*
X3027836Y-17903984D02*
X3046884Y-17913508D01*
X3046884Y-17913508D02*
X3056408Y-17923031D01*
X3056408Y-17923031D02*
X3065932Y-17942079D01*
X3065932Y-17942079D02*
X3075455Y-17980174D01*
X3075455Y-17980174D02*
X3075455Y-18027793D01*
X3075455Y-18027793D02*
X3065932Y-18065889D01*
X3065932Y-18065889D02*
X3056408Y-18084936D01*
X3056408Y-18084936D02*
X3046884Y-18094460D01*
X3046884Y-18094460D02*
X3027836Y-18103984D01*
X3027836Y-18103984D02*
X3008789Y-18103984D01*
X3008789Y-18103984D02*
X2989741Y-18094460D01*
X2989741Y-18094460D02*
X2980217Y-18084936D01*
X2980217Y-18084936D02*
X2970693Y-18065889D01*
X2970693Y-18065889D02*
X2961170Y-18027793D01*
X2961170Y-18027793D02*
X2961170Y-17980174D01*
X2961170Y-17980174D02*
X2970693Y-17942079D01*
X2970693Y-17942079D02*
X2980217Y-17923031D01*
X2980217Y-17923031D02*
X2989741Y-17913508D01*
X2989741Y-17913508D02*
X3008789Y-17903984D01*
X3161170Y-18103984D02*
X3161170Y-17970650D01*
X3161170Y-17989698D02*
X3170693Y-17980174D01*
X3170693Y-17980174D02*
X3189741Y-17970650D01*
X3189741Y-17970650D02*
X3218313Y-17970650D01*
X3218313Y-17970650D02*
X3237360Y-17980174D01*
X3237360Y-17980174D02*
X3246884Y-17999222D01*
X3246884Y-17999222D02*
X3246884Y-18103984D01*
X3246884Y-17999222D02*
X3256408Y-17980174D01*
X3256408Y-17980174D02*
X3275455Y-17970650D01*
X3275455Y-17970650D02*
X3304027Y-17970650D01*
X3304027Y-17970650D02*
X3323074Y-17980174D01*
X3323074Y-17980174D02*
X3332598Y-17999222D01*
X3332598Y-17999222D02*
X3332598Y-18103984D01*
X3427836Y-18103984D02*
X3427836Y-17970650D01*
X3427836Y-17989698D02*
X3437360Y-17980174D01*
X3437360Y-17980174D02*
X3456408Y-17970650D01*
X3456408Y-17970650D02*
X3484979Y-17970650D01*
X3484979Y-17970650D02*
X3504027Y-17980174D01*
X3504027Y-17980174D02*
X3513551Y-17999222D01*
X3513551Y-17999222D02*
X3513551Y-18103984D01*
X3513551Y-17999222D02*
X3523074Y-17980174D01*
X3523074Y-17980174D02*
X3542122Y-17970650D01*
X3542122Y-17970650D02*
X3570693Y-17970650D01*
X3570693Y-17970650D02*
X3589741Y-17980174D01*
X3589741Y-17980174D02*
X3599265Y-17999222D01*
X3599265Y-17999222D02*
X3599265Y-18103984D01*
X3989741Y-17894460D02*
X3818313Y-18151603D01*
X4246884Y-17903984D02*
X4265932Y-17903984D01*
X4265932Y-17903984D02*
X4284979Y-17913508D01*
X4284979Y-17913508D02*
X4294503Y-17923031D01*
X4294503Y-17923031D02*
X4304027Y-17942079D01*
X4304027Y-17942079D02*
X4313551Y-17980174D01*
X4313551Y-17980174D02*
X4313551Y-18027793D01*
X4313551Y-18027793D02*
X4304027Y-18065889D01*
X4304027Y-18065889D02*
X4294503Y-18084936D01*
X4294503Y-18084936D02*
X4284979Y-18094460D01*
X4284979Y-18094460D02*
X4265932Y-18103984D01*
X4265932Y-18103984D02*
X4246884Y-18103984D01*
X4246884Y-18103984D02*
X4227837Y-18094460D01*
X4227837Y-18094460D02*
X4218313Y-18084936D01*
X4218313Y-18084936D02*
X4208789Y-18065889D01*
X4208789Y-18065889D02*
X4199265Y-18027793D01*
X4199265Y-18027793D02*
X4199265Y-17980174D01*
X4199265Y-17980174D02*
X4208789Y-17942079D01*
X4208789Y-17942079D02*
X4218313Y-17923031D01*
X4218313Y-17923031D02*
X4227837Y-17913508D01*
X4227837Y-17913508D02*
X4246884Y-17903984D01*
X4399265Y-18084936D02*
X4408789Y-18094460D01*
X4408789Y-18094460D02*
X4399265Y-18103984D01*
X4399265Y-18103984D02*
X4389741Y-18094460D01*
X4389741Y-18094460D02*
X4399265Y-18084936D01*
X4399265Y-18084936D02*
X4399265Y-18103984D01*
X4599265Y-18103984D02*
X4484979Y-18103984D01*
X4542122Y-18103984D02*
X4542122Y-17903984D01*
X4542122Y-17903984D02*
X4523075Y-17932555D01*
X4523075Y-17932555D02*
X4504027Y-17951603D01*
X4504027Y-17951603D02*
X4484979Y-17961127D01*
X4675456Y-17923031D02*
X4684979Y-17913508D01*
X4684979Y-17913508D02*
X4704027Y-17903984D01*
X4704027Y-17903984D02*
X4751646Y-17903984D01*
X4751646Y-17903984D02*
X4770694Y-17913508D01*
X4770694Y-17913508D02*
X4780218Y-17923031D01*
X4780218Y-17923031D02*
X4789741Y-17942079D01*
X4789741Y-17942079D02*
X4789741Y-17961127D01*
X4789741Y-17961127D02*
X4780218Y-17989698D01*
X4780218Y-17989698D02*
X4665932Y-18103984D01*
X4665932Y-18103984D02*
X4789741Y-18103984D01*
X4904027Y-17989698D02*
X4884979Y-17980174D01*
X4884979Y-17980174D02*
X4875456Y-17970650D01*
X4875456Y-17970650D02*
X4865932Y-17951603D01*
X4865932Y-17951603D02*
X4865932Y-17942079D01*
X4865932Y-17942079D02*
X4875456Y-17923031D01*
X4875456Y-17923031D02*
X4884979Y-17913508D01*
X4884979Y-17913508D02*
X4904027Y-17903984D01*
X4904027Y-17903984D02*
X4942122Y-17903984D01*
X4942122Y-17903984D02*
X4961170Y-17913508D01*
X4961170Y-17913508D02*
X4970694Y-17923031D01*
X4970694Y-17923031D02*
X4980218Y-17942079D01*
X4980218Y-17942079D02*
X4980218Y-17951603D01*
X4980218Y-17951603D02*
X4970694Y-17970650D01*
X4970694Y-17970650D02*
X4961170Y-17980174D01*
X4961170Y-17980174D02*
X4942122Y-17989698D01*
X4942122Y-17989698D02*
X4904027Y-17989698D01*
X4904027Y-17989698D02*
X4884979Y-17999222D01*
X4884979Y-17999222D02*
X4875456Y-18008746D01*
X4875456Y-18008746D02*
X4865932Y-18027793D01*
X4865932Y-18027793D02*
X4865932Y-18065889D01*
X4865932Y-18065889D02*
X4875456Y-18084936D01*
X4875456Y-18084936D02*
X4884979Y-18094460D01*
X4884979Y-18094460D02*
X4904027Y-18103984D01*
X4904027Y-18103984D02*
X4942122Y-18103984D01*
X4942122Y-18103984D02*
X4961170Y-18094460D01*
X4961170Y-18094460D02*
X4970694Y-18084936D01*
X4970694Y-18084936D02*
X4980218Y-18065889D01*
X4980218Y-18065889D02*
X4980218Y-18027793D01*
X4980218Y-18027793D02*
X4970694Y-18008746D01*
X4970694Y-18008746D02*
X4961170Y-17999222D01*
X4961170Y-17999222D02*
X4942122Y-17989698D01*
X5104027Y-17903984D02*
X5123075Y-17903984D01*
X5123075Y-17903984D02*
X5142122Y-17913508D01*
X5142122Y-17913508D02*
X5151646Y-17923031D01*
X5151646Y-17923031D02*
X5161170Y-17942079D01*
X5161170Y-17942079D02*
X5170694Y-17980174D01*
X5170694Y-17980174D02*
X5170694Y-18027793D01*
X5170694Y-18027793D02*
X5161170Y-18065889D01*
X5161170Y-18065889D02*
X5151646Y-18084936D01*
X5151646Y-18084936D02*
X5142122Y-18094460D01*
X5142122Y-18094460D02*
X5123075Y-18103984D01*
X5123075Y-18103984D02*
X5104027Y-18103984D01*
X5104027Y-18103984D02*
X5084979Y-18094460D01*
X5084979Y-18094460D02*
X5075456Y-18084936D01*
X5075456Y-18084936D02*
X5065932Y-18065889D01*
X5065932Y-18065889D02*
X5056408Y-18027793D01*
X5056408Y-18027793D02*
X5056408Y-17980174D01*
X5056408Y-17980174D02*
X5065932Y-17942079D01*
X5065932Y-17942079D02*
X5075456Y-17923031D01*
X5075456Y-17923031D02*
X5084979Y-17913508D01*
X5084979Y-17913508D02*
X5104027Y-17903984D01*
X5246884Y-17903984D02*
X5246884Y-17942079D01*
X5323075Y-17903984D02*
X5323075Y-17942079D01*
X5618313Y-18180174D02*
X5608789Y-18170650D01*
X5608789Y-18170650D02*
X5589741Y-18142079D01*
X5589741Y-18142079D02*
X5580218Y-18123031D01*
X5580218Y-18123031D02*
X5570694Y-18094460D01*
X5570694Y-18094460D02*
X5561170Y-18046841D01*
X5561170Y-18046841D02*
X5561170Y-18008746D01*
X5561170Y-18008746D02*
X5570694Y-17961127D01*
X5570694Y-17961127D02*
X5580218Y-17932555D01*
X5580218Y-17932555D02*
X5589741Y-17913508D01*
X5589741Y-17913508D02*
X5608789Y-17884936D01*
X5608789Y-17884936D02*
X5618313Y-17875412D01*
X5723075Y-17989698D02*
X5704027Y-17980174D01*
X5704027Y-17980174D02*
X5694503Y-17970650D01*
X5694503Y-17970650D02*
X5684979Y-17951603D01*
X5684979Y-17951603D02*
X5684979Y-17942079D01*
X5684979Y-17942079D02*
X5694503Y-17923031D01*
X5694503Y-17923031D02*
X5704027Y-17913508D01*
X5704027Y-17913508D02*
X5723075Y-17903984D01*
X5723075Y-17903984D02*
X5761170Y-17903984D01*
X5761170Y-17903984D02*
X5780218Y-17913508D01*
X5780218Y-17913508D02*
X5789741Y-17923031D01*
X5789741Y-17923031D02*
X5799265Y-17942079D01*
X5799265Y-17942079D02*
X5799265Y-17951603D01*
X5799265Y-17951603D02*
X5789741Y-17970650D01*
X5789741Y-17970650D02*
X5780218Y-17980174D01*
X5780218Y-17980174D02*
X5761170Y-17989698D01*
X5761170Y-17989698D02*
X5723075Y-17989698D01*
X5723075Y-17989698D02*
X5704027Y-17999222D01*
X5704027Y-17999222D02*
X5694503Y-18008746D01*
X5694503Y-18008746D02*
X5684979Y-18027793D01*
X5684979Y-18027793D02*
X5684979Y-18065889D01*
X5684979Y-18065889D02*
X5694503Y-18084936D01*
X5694503Y-18084936D02*
X5704027Y-18094460D01*
X5704027Y-18094460D02*
X5723075Y-18103984D01*
X5723075Y-18103984D02*
X5761170Y-18103984D01*
X5761170Y-18103984D02*
X5780218Y-18094460D01*
X5780218Y-18094460D02*
X5789741Y-18084936D01*
X5789741Y-18084936D02*
X5799265Y-18065889D01*
X5799265Y-18065889D02*
X5799265Y-18027793D01*
X5799265Y-18027793D02*
X5789741Y-18008746D01*
X5789741Y-18008746D02*
X5780218Y-17999222D01*
X5780218Y-17999222D02*
X5761170Y-17989698D01*
X6037360Y-18103984D02*
X6037360Y-17903984D01*
X6123075Y-18103984D02*
X6123075Y-17999222D01*
X6123075Y-17999222D02*
X6113551Y-17980174D01*
X6113551Y-17980174D02*
X6094503Y-17970650D01*
X6094503Y-17970650D02*
X6065932Y-17970650D01*
X6065932Y-17970650D02*
X6046884Y-17980174D01*
X6046884Y-17980174D02*
X6037360Y-17989698D01*
X6246884Y-18103984D02*
X6227837Y-18094460D01*
X6227837Y-18094460D02*
X6218313Y-18084936D01*
X6218313Y-18084936D02*
X6208789Y-18065889D01*
X6208789Y-18065889D02*
X6208789Y-18008746D01*
X6208789Y-18008746D02*
X6218313Y-17989698D01*
X6218313Y-17989698D02*
X6227837Y-17980174D01*
X6227837Y-17980174D02*
X6246884Y-17970650D01*
X6246884Y-17970650D02*
X6275456Y-17970650D01*
X6275456Y-17970650D02*
X6294503Y-17980174D01*
X6294503Y-17980174D02*
X6304027Y-17989698D01*
X6304027Y-17989698D02*
X6313551Y-18008746D01*
X6313551Y-18008746D02*
X6313551Y-18065889D01*
X6313551Y-18065889D02*
X6304027Y-18084936D01*
X6304027Y-18084936D02*
X6294503Y-18094460D01*
X6294503Y-18094460D02*
X6275456Y-18103984D01*
X6275456Y-18103984D02*
X6246884Y-18103984D01*
X6427837Y-18103984D02*
X6408789Y-18094460D01*
X6408789Y-18094460D02*
X6399265Y-18075412D01*
X6399265Y-18075412D02*
X6399265Y-17903984D01*
X6580218Y-18094460D02*
X6561170Y-18103984D01*
X6561170Y-18103984D02*
X6523075Y-18103984D01*
X6523075Y-18103984D02*
X6504027Y-18094460D01*
X6504027Y-18094460D02*
X6494503Y-18075412D01*
X6494503Y-18075412D02*
X6494503Y-17999222D01*
X6494503Y-17999222D02*
X6504027Y-17980174D01*
X6504027Y-17980174D02*
X6523075Y-17970650D01*
X6523075Y-17970650D02*
X6561170Y-17970650D01*
X6561170Y-17970650D02*
X6580218Y-17980174D01*
X6580218Y-17980174D02*
X6589741Y-17999222D01*
X6589741Y-17999222D02*
X6589741Y-18018270D01*
X6589741Y-18018270D02*
X6494503Y-18037317D01*
X6665932Y-18094460D02*
X6684980Y-18103984D01*
X6684980Y-18103984D02*
X6723075Y-18103984D01*
X6723075Y-18103984D02*
X6742122Y-18094460D01*
X6742122Y-18094460D02*
X6751646Y-18075412D01*
X6751646Y-18075412D02*
X6751646Y-18065889D01*
X6751646Y-18065889D02*
X6742122Y-18046841D01*
X6742122Y-18046841D02*
X6723075Y-18037317D01*
X6723075Y-18037317D02*
X6694503Y-18037317D01*
X6694503Y-18037317D02*
X6675456Y-18027793D01*
X6675456Y-18027793D02*
X6665932Y-18008746D01*
X6665932Y-18008746D02*
X6665932Y-17999222D01*
X6665932Y-17999222D02*
X6675456Y-17980174D01*
X6675456Y-17980174D02*
X6694503Y-17970650D01*
X6694503Y-17970650D02*
X6723075Y-17970650D01*
X6723075Y-17970650D02*
X6742122Y-17980174D01*
X6818313Y-18180174D02*
X6827837Y-18170650D01*
X6827837Y-18170650D02*
X6846884Y-18142079D01*
X6846884Y-18142079D02*
X6856408Y-18123031D01*
X6856408Y-18123031D02*
X6865932Y-18094460D01*
X6865932Y-18094460D02*
X6875456Y-18046841D01*
X6875456Y-18046841D02*
X6875456Y-18008746D01*
X6875456Y-18008746D02*
X6865932Y-17961127D01*
X6865932Y-17961127D02*
X6856408Y-17932555D01*
X6856408Y-17932555D02*
X6846884Y-17913508D01*
X6846884Y-17913508D02*
X6827837Y-17884936D01*
X6827837Y-17884936D02*
X6818313Y-17875412D01*
X7180218Y-18180174D02*
X7170694Y-18170650D01*
X7170694Y-18170650D02*
X7151646Y-18142079D01*
X7151646Y-18142079D02*
X7142122Y-18123031D01*
X7142122Y-18123031D02*
X7132599Y-18094460D01*
X7132599Y-18094460D02*
X7123075Y-18046841D01*
X7123075Y-18046841D02*
X7123075Y-18008746D01*
X7123075Y-18008746D02*
X7132599Y-17961127D01*
X7132599Y-17961127D02*
X7142122Y-17932555D01*
X7142122Y-17932555D02*
X7151646Y-17913508D01*
X7151646Y-17913508D02*
X7170694Y-17884936D01*
X7170694Y-17884936D02*
X7180218Y-17875412D01*
X7256408Y-17970650D02*
X7256408Y-18103984D01*
X7256408Y-17989698D02*
X7265932Y-17980174D01*
X7265932Y-17980174D02*
X7284980Y-17970650D01*
X7284980Y-17970650D02*
X7313551Y-17970650D01*
X7313551Y-17970650D02*
X7332599Y-17980174D01*
X7332599Y-17980174D02*
X7342122Y-17999222D01*
X7342122Y-17999222D02*
X7342122Y-18103984D01*
X7465932Y-18103984D02*
X7446884Y-18094460D01*
X7446884Y-18094460D02*
X7437361Y-18084936D01*
X7437361Y-18084936D02*
X7427837Y-18065889D01*
X7427837Y-18065889D02*
X7427837Y-18008746D01*
X7427837Y-18008746D02*
X7437361Y-17989698D01*
X7437361Y-17989698D02*
X7446884Y-17980174D01*
X7446884Y-17980174D02*
X7465932Y-17970650D01*
X7465932Y-17970650D02*
X7494503Y-17970650D01*
X7494503Y-17970650D02*
X7513551Y-17980174D01*
X7513551Y-17980174D02*
X7523075Y-17989698D01*
X7523075Y-17989698D02*
X7532599Y-18008746D01*
X7532599Y-18008746D02*
X7532599Y-18065889D01*
X7532599Y-18065889D02*
X7523075Y-18084936D01*
X7523075Y-18084936D02*
X7513551Y-18094460D01*
X7513551Y-18094460D02*
X7494503Y-18103984D01*
X7494503Y-18103984D02*
X7465932Y-18103984D01*
X7589742Y-17970650D02*
X7665932Y-17970650D01*
X7618313Y-17903984D02*
X7618313Y-18075412D01*
X7618313Y-18075412D02*
X7627837Y-18094460D01*
X7627837Y-18094460D02*
X7646884Y-18103984D01*
X7646884Y-18103984D02*
X7665932Y-18103984D01*
X7884980Y-17970650D02*
X7884980Y-18170650D01*
X7884980Y-17980174D02*
X7904027Y-17970650D01*
X7904027Y-17970650D02*
X7942123Y-17970650D01*
X7942123Y-17970650D02*
X7961170Y-17980174D01*
X7961170Y-17980174D02*
X7970694Y-17989698D01*
X7970694Y-17989698D02*
X7980218Y-18008746D01*
X7980218Y-18008746D02*
X7980218Y-18065889D01*
X7980218Y-18065889D02*
X7970694Y-18084936D01*
X7970694Y-18084936D02*
X7961170Y-18094460D01*
X7961170Y-18094460D02*
X7942123Y-18103984D01*
X7942123Y-18103984D02*
X7904027Y-18103984D01*
X7904027Y-18103984D02*
X7884980Y-18094460D01*
X8094503Y-18103984D02*
X8075456Y-18094460D01*
X8075456Y-18094460D02*
X8065932Y-18075412D01*
X8065932Y-18075412D02*
X8065932Y-17903984D01*
X8256408Y-18103984D02*
X8256408Y-17999222D01*
X8256408Y-17999222D02*
X8246884Y-17980174D01*
X8246884Y-17980174D02*
X8227837Y-17970650D01*
X8227837Y-17970650D02*
X8189742Y-17970650D01*
X8189742Y-17970650D02*
X8170694Y-17980174D01*
X8256408Y-18094460D02*
X8237361Y-18103984D01*
X8237361Y-18103984D02*
X8189742Y-18103984D01*
X8189742Y-18103984D02*
X8170694Y-18094460D01*
X8170694Y-18094460D02*
X8161170Y-18075412D01*
X8161170Y-18075412D02*
X8161170Y-18056365D01*
X8161170Y-18056365D02*
X8170694Y-18037317D01*
X8170694Y-18037317D02*
X8189742Y-18027793D01*
X8189742Y-18027793D02*
X8237361Y-18027793D01*
X8237361Y-18027793D02*
X8256408Y-18018270D01*
X8323075Y-17970650D02*
X8399265Y-17970650D01*
X8351646Y-17903984D02*
X8351646Y-18075412D01*
X8351646Y-18075412D02*
X8361170Y-18094460D01*
X8361170Y-18094460D02*
X8380218Y-18103984D01*
X8380218Y-18103984D02*
X8399265Y-18103984D01*
X8542123Y-18094460D02*
X8523075Y-18103984D01*
X8523075Y-18103984D02*
X8484980Y-18103984D01*
X8484980Y-18103984D02*
X8465932Y-18094460D01*
X8465932Y-18094460D02*
X8456408Y-18075412D01*
X8456408Y-18075412D02*
X8456408Y-17999222D01*
X8456408Y-17999222D02*
X8465932Y-17980174D01*
X8465932Y-17980174D02*
X8484980Y-17970650D01*
X8484980Y-17970650D02*
X8523075Y-17970650D01*
X8523075Y-17970650D02*
X8542123Y-17980174D01*
X8542123Y-17980174D02*
X8551646Y-17999222D01*
X8551646Y-17999222D02*
X8551646Y-18018270D01*
X8551646Y-18018270D02*
X8456408Y-18037317D01*
X8723075Y-18103984D02*
X8723075Y-17903984D01*
X8723075Y-18094460D02*
X8704027Y-18103984D01*
X8704027Y-18103984D02*
X8665932Y-18103984D01*
X8665932Y-18103984D02*
X8646885Y-18094460D01*
X8646885Y-18094460D02*
X8637361Y-18084936D01*
X8637361Y-18084936D02*
X8627837Y-18065889D01*
X8627837Y-18065889D02*
X8627837Y-18008746D01*
X8627837Y-18008746D02*
X8637361Y-17989698D01*
X8637361Y-17989698D02*
X8646885Y-17980174D01*
X8646885Y-17980174D02*
X8665932Y-17970650D01*
X8665932Y-17970650D02*
X8704027Y-17970650D01*
X8704027Y-17970650D02*
X8723075Y-17980174D01*
X8799266Y-18180174D02*
X8808789Y-18170650D01*
X8808789Y-18170650D02*
X8827837Y-18142079D01*
X8827837Y-18142079D02*
X8837361Y-18123031D01*
X8837361Y-18123031D02*
X8846885Y-18094460D01*
X8846885Y-18094460D02*
X8856408Y-18046841D01*
X8856408Y-18046841D02*
X8856408Y-18008746D01*
X8856408Y-18008746D02*
X8846885Y-17961127D01*
X8846885Y-17961127D02*
X8837361Y-17932555D01*
X8837361Y-17932555D02*
X8827837Y-17913508D01*
X8827837Y-17913508D02*
X8808789Y-17884936D01*
X8808789Y-17884936D02*
X8799266Y-17875412D01*
M02*
