%TF.GenerationSoftware,KiCad,Pcbnew,8.0.3*%
%TF.CreationDate,2024-12-04T19:25:53+09:00*%
%TF.ProjectId,nnct-main,6e6e6374-2d6d-4616-996e-2e6b69636164,rev?*%
%TF.SameCoordinates,Original*%
%TF.FileFunction,Soldermask,Top*%
%TF.FilePolarity,Negative*%
%FSLAX46Y46*%
G04 Gerber Fmt 4.6, Leading zero omitted, Abs format (unit mm)*
G04 Created by KiCad (PCBNEW 8.0.3) date 2024-12-04 19:25:53*
%MOMM*%
%LPD*%
G01*
G04 APERTURE LIST*
G04 Aperture macros list*
%AMRoundRect*
0 Rectangle with rounded corners*
0 $1 Rounding radius*
0 $2 $3 $4 $5 $6 $7 $8 $9 X,Y pos of 4 corners*
0 Add a 4 corners polygon primitive as box body*
4,1,4,$2,$3,$4,$5,$6,$7,$8,$9,$2,$3,0*
0 Add four circle primitives for the rounded corners*
1,1,$1+$1,$2,$3*
1,1,$1+$1,$4,$5*
1,1,$1+$1,$6,$7*
1,1,$1+$1,$8,$9*
0 Add four rect primitives between the rounded corners*
20,1,$1+$1,$2,$3,$4,$5,0*
20,1,$1+$1,$4,$5,$6,$7,0*
20,1,$1+$1,$6,$7,$8,$9,0*
20,1,$1+$1,$8,$9,$2,$3,0*%
%AMFreePoly0*
4,1,6,1.000000,0.000000,0.500000,-0.750000,-0.500000,-0.750000,-0.500000,0.750000,0.500000,0.750000,1.000000,0.000000,1.000000,0.000000,$1*%
%AMFreePoly1*
4,1,6,0.500000,-0.750000,-0.650000,-0.750000,-0.150000,0.000000,-0.650000,0.750000,0.500000,0.750000,0.500000,-0.750000,0.500000,-0.750000,$1*%
G04 Aperture macros list end*
%ADD10RoundRect,0.250000X-0.725000X0.600000X-0.725000X-0.600000X0.725000X-0.600000X0.725000X0.600000X0*%
%ADD11O,1.950000X1.700000*%
%ADD12RoundRect,0.250000X-0.475000X0.337500X-0.475000X-0.337500X0.475000X-0.337500X0.475000X0.337500X0*%
%ADD13RoundRect,0.250000X0.337500X0.475000X-0.337500X0.475000X-0.337500X-0.475000X0.337500X-0.475000X0*%
%ADD14RoundRect,0.150000X0.150000X0.700000X-0.150000X0.700000X-0.150000X-0.700000X0.150000X-0.700000X0*%
%ADD15RoundRect,0.250000X0.250000X1.150000X-0.250000X1.150000X-0.250000X-1.150000X0.250000X-1.150000X0*%
%ADD16RoundRect,0.237500X-0.287500X-0.237500X0.287500X-0.237500X0.287500X0.237500X-0.287500X0.237500X0*%
%ADD17R,1.200000X1.400000*%
%ADD18R,1.200000X2.200000*%
%ADD19R,1.600000X1.400000*%
%ADD20R,0.700000X1.600000*%
%ADD21C,0.900000*%
%ADD22FreePoly0,180.000000*%
%ADD23FreePoly1,180.000000*%
%ADD24RoundRect,0.237500X-0.237500X0.287500X-0.237500X-0.287500X0.237500X-0.287500X0.237500X0.287500X0*%
%ADD25C,0.800000*%
%ADD26C,6.400000*%
%ADD27RoundRect,0.237500X0.287500X0.237500X-0.287500X0.237500X-0.287500X-0.237500X0.287500X-0.237500X0*%
%ADD28R,1.700000X1.700000*%
%ADD29O,1.700000X1.700000*%
%ADD30RoundRect,0.250000X-0.450000X0.350000X-0.450000X-0.350000X0.450000X-0.350000X0.450000X0.350000X0*%
%ADD31RoundRect,0.150000X0.150000X-0.675000X0.150000X0.675000X-0.150000X0.675000X-0.150000X-0.675000X0*%
%ADD32RoundRect,0.150000X-0.150000X-0.700000X0.150000X-0.700000X0.150000X0.700000X-0.150000X0.700000X0*%
%ADD33RoundRect,0.250000X-0.250000X-1.100000X0.250000X-1.100000X0.250000X1.100000X-0.250000X1.100000X0*%
%ADD34RoundRect,0.250000X0.475000X-0.337500X0.475000X0.337500X-0.475000X0.337500X-0.475000X-0.337500X0*%
%ADD35RoundRect,0.250000X-0.337500X-0.475000X0.337500X-0.475000X0.337500X0.475000X-0.337500X0.475000X0*%
%ADD36C,2.000000*%
%ADD37C,1.998980*%
%ADD38RoundRect,0.250000X0.450000X-0.350000X0.450000X0.350000X-0.450000X0.350000X-0.450000X-0.350000X0*%
%ADD39RoundRect,0.237500X0.237500X-0.287500X0.237500X0.287500X-0.237500X0.287500X-0.237500X-0.287500X0*%
%ADD40RoundRect,0.150000X-0.700000X0.150000X-0.700000X-0.150000X0.700000X-0.150000X0.700000X0.150000X0*%
%ADD41RoundRect,0.250000X-1.150000X0.250000X-1.150000X-0.250000X1.150000X-0.250000X1.150000X0.250000X0*%
%ADD42O,2.000000X2.800000*%
%ADD43RoundRect,0.250000X0.725000X-0.600000X0.725000X0.600000X-0.725000X0.600000X-0.725000X-0.600000X0*%
%ADD44RoundRect,0.250000X-0.250000X-1.150000X0.250000X-1.150000X0.250000X1.150000X-0.250000X1.150000X0*%
%ADD45R,2.000000X2.000000*%
%ADD46C,3.250000*%
%ADD47R,1.500000X1.500000*%
%ADD48C,1.500000*%
%ADD49C,2.300000*%
%ADD50R,1.600000X1.500000*%
%ADD51C,1.600000*%
%ADD52C,3.000000*%
%ADD53RoundRect,0.150000X0.700000X-0.150000X0.700000X0.150000X-0.700000X0.150000X-0.700000X-0.150000X0*%
%ADD54RoundRect,0.250000X1.100000X-0.250000X1.100000X0.250000X-1.100000X0.250000X-1.100000X-0.250000X0*%
%ADD55C,1.100000*%
%ADD56O,1.800000X2.300000*%
%ADD57O,2.000000X2.300000*%
%ADD58RoundRect,0.250000X-0.350000X-0.450000X0.350000X-0.450000X0.350000X0.450000X-0.350000X0.450000X0*%
%ADD59RoundRect,0.237500X0.371231X-0.035355X-0.035355X0.371231X-0.371231X0.035355X0.035355X-0.371231X0*%
%ADD60R,1.500000X0.900000*%
%ADD61C,0.650000*%
%ADD62RoundRect,0.150000X0.150000X0.425000X-0.150000X0.425000X-0.150000X-0.425000X0.150000X-0.425000X0*%
%ADD63RoundRect,0.075000X0.075000X0.500000X-0.075000X0.500000X-0.075000X-0.500000X0.075000X-0.500000X0*%
%ADD64O,1.000000X2.100000*%
%ADD65O,1.000000X1.800000*%
%ADD66RoundRect,0.075000X0.075000X-0.662500X0.075000X0.662500X-0.075000X0.662500X-0.075000X-0.662500X0*%
%ADD67RoundRect,0.075000X0.662500X-0.075000X0.662500X0.075000X-0.662500X0.075000X-0.662500X-0.075000X0*%
%ADD68RoundRect,0.250000X0.350000X0.450000X-0.350000X0.450000X-0.350000X-0.450000X0.350000X-0.450000X0*%
%ADD69RoundRect,0.250000X0.600000X0.725000X-0.600000X0.725000X-0.600000X-0.725000X0.600000X-0.725000X0*%
%ADD70O,1.700000X1.950000*%
%ADD71RoundRect,0.152400X-1.063600X-0.609600X1.063600X-0.609600X1.063600X0.609600X-1.063600X0.609600X0*%
%ADD72C,1.524000*%
%ADD73RoundRect,0.152400X1.063600X0.609600X-1.063600X0.609600X-1.063600X-0.609600X1.063600X-0.609600X0*%
G04 APERTURE END LIST*
D10*
%TO.C,J18*%
X127800000Y-108170000D03*
D11*
X127800000Y-110670000D03*
X127800000Y-113170000D03*
%TD*%
D12*
%TO.C,C1*%
X80392500Y-99070000D03*
X80392500Y-101145000D03*
%TD*%
D13*
%TO.C,C17*%
X73280000Y-88720000D03*
X71205000Y-88720000D03*
%TD*%
D14*
%TO.C,J39*%
X65342500Y-103920000D03*
X64092500Y-103920000D03*
X62842500Y-103920000D03*
X61592500Y-103920000D03*
X60342500Y-103920000D03*
X59092500Y-103920000D03*
D15*
X67192500Y-107270000D03*
X57242500Y-107270000D03*
%TD*%
D16*
%TO.C,D1*%
X52692500Y-59770000D03*
X54442500Y-59770000D03*
%TD*%
D17*
%TO.C,J1*%
X121350000Y-43600000D03*
D18*
X121350000Y-34000000D03*
D19*
X106750000Y-43600000D03*
D18*
X105850000Y-34000000D03*
D20*
X120150000Y-44100000D03*
X119050000Y-44100000D03*
X117950000Y-44100000D03*
X116850000Y-44100000D03*
X115750000Y-44100000D03*
X114650000Y-44100000D03*
X113550000Y-44100000D03*
X112450000Y-44100000D03*
X111350000Y-44100000D03*
D21*
X118550000Y-33600000D03*
X110550000Y-33600000D03*
%TD*%
D22*
%TO.C,R35*%
X74842500Y-46720000D03*
D23*
X73392500Y-46720000D03*
%TD*%
D16*
%TO.C,D14*%
X73475000Y-33050000D03*
X75225000Y-33050000D03*
%TD*%
D24*
%TO.C,D29*%
X122142500Y-39595000D03*
X122142500Y-41345000D03*
%TD*%
D25*
%TO.C,H1*%
X124700000Y-125050000D03*
X125402944Y-123352944D03*
X125402944Y-126747056D03*
X127100000Y-122650000D03*
D26*
X127100000Y-125050000D03*
D25*
X127100000Y-127450000D03*
X128797056Y-123352944D03*
X128797056Y-126747056D03*
X129500000Y-125050000D03*
%TD*%
D16*
%TO.C,D3*%
X52692500Y-62770000D03*
X54442500Y-62770000D03*
%TD*%
D27*
%TO.C,D20*%
X129917500Y-97170000D03*
X128167500Y-97170000D03*
%TD*%
D28*
%TO.C,J45*%
X55542500Y-89930000D03*
D29*
X55542500Y-92470000D03*
X55542500Y-95010000D03*
X55542500Y-97550000D03*
%TD*%
D30*
%TO.C,R32*%
X103300000Y-41500000D03*
X103300000Y-39500000D03*
%TD*%
D28*
%TO.C,J20*%
X113722500Y-81470000D03*
D29*
X111182500Y-81470000D03*
X108642500Y-81470000D03*
X106102500Y-81470000D03*
%TD*%
D25*
%TO.C,H3*%
X33700000Y-34050000D03*
X34402944Y-32352944D03*
X34402944Y-35747056D03*
X36100000Y-31650000D03*
D26*
X36100000Y-34050000D03*
D25*
X36100000Y-36450000D03*
X37797056Y-32352944D03*
X37797056Y-35747056D03*
X38500000Y-34050000D03*
%TD*%
D30*
%TO.C,C23*%
X63942500Y-78370000D03*
X63942500Y-80370000D03*
%TD*%
D31*
%TO.C,U6*%
X79320000Y-52675000D03*
X80590000Y-52675000D03*
X81860000Y-52675000D03*
X83130000Y-52675000D03*
X83130000Y-47425000D03*
X81860000Y-47425000D03*
X80590000Y-47425000D03*
X79320000Y-47425000D03*
%TD*%
D32*
%TO.C,J22*%
X107317500Y-124450000D03*
X108567500Y-124450000D03*
X109817500Y-124450000D03*
X111067500Y-124450000D03*
X112317500Y-124450000D03*
X113567500Y-124450000D03*
D33*
X105467500Y-127650000D03*
X115417500Y-127650000D03*
%TD*%
D34*
%TO.C,C7*%
X76142500Y-73870000D03*
X76142500Y-71795000D03*
%TD*%
D31*
%TO.C,U5*%
X65570000Y-52675000D03*
X66840000Y-52675000D03*
X68110000Y-52675000D03*
X69380000Y-52675000D03*
X69380000Y-47425000D03*
X68110000Y-47425000D03*
X66840000Y-47425000D03*
X65570000Y-47425000D03*
%TD*%
D35*
%TO.C,C9*%
X99605000Y-87720000D03*
X101680000Y-87720000D03*
%TD*%
%TO.C,C2*%
X98305000Y-75870000D03*
X100380000Y-75870000D03*
%TD*%
D36*
%TO.C,SW1*%
X102992500Y-113770000D03*
X96492500Y-113770000D03*
X102992500Y-109270000D03*
X96492500Y-109270000D03*
%TD*%
D37*
%TO.C,Y1*%
X91682500Y-102120000D03*
X86602500Y-102120000D03*
%TD*%
D16*
%TO.C,D5*%
X52692500Y-65770000D03*
X54442500Y-65770000D03*
%TD*%
D38*
%TO.C,R4*%
X62887000Y-74225500D03*
X62887000Y-72225500D03*
%TD*%
D39*
%TO.C,D19*%
X51682500Y-107245000D03*
X51682500Y-105495000D03*
%TD*%
D40*
%TO.C,J30*%
X126350000Y-63120000D03*
X126350000Y-64370000D03*
X126350000Y-65620000D03*
X126350000Y-66870000D03*
X126350000Y-68120000D03*
X126350000Y-69370000D03*
D41*
X129700000Y-61270000D03*
X129700000Y-71220000D03*
%TD*%
D38*
%TO.C,R8*%
X54887000Y-74225500D03*
X54887000Y-72225500D03*
%TD*%
D42*
%TO.C,J17*%
X128300000Y-54550000D03*
D43*
X121800000Y-55800000D03*
D11*
X121800000Y-53300000D03*
%TD*%
D38*
%TO.C,R6*%
X58887000Y-74225500D03*
X58887000Y-72225500D03*
%TD*%
D32*
%TO.C,J8*%
X79350000Y-43350000D03*
X80600000Y-43350000D03*
X81850000Y-43350000D03*
X83100000Y-43350000D03*
D44*
X77500000Y-40000000D03*
X84950000Y-40000000D03*
%TD*%
D36*
%TO.C,RESET1*%
X88075000Y-37575000D03*
X88075000Y-31075000D03*
X92575000Y-37575000D03*
X92575000Y-31075000D03*
%TD*%
D16*
%TO.C,D27*%
X70142500Y-110970000D03*
X71892500Y-110970000D03*
%TD*%
D32*
%TO.C,J6*%
X51975000Y-35550000D03*
X53225000Y-35550000D03*
X54475000Y-35550000D03*
X55725000Y-35550000D03*
D44*
X50125000Y-32200000D03*
X57575000Y-32200000D03*
%TD*%
D28*
%TO.C,J25*%
X58022500Y-110970000D03*
D29*
X60562500Y-110970000D03*
X63102500Y-110970000D03*
X65642500Y-110970000D03*
%TD*%
D45*
%TO.C,BZ1*%
X104042500Y-59320000D03*
D36*
X111642500Y-59320000D03*
%TD*%
D32*
%TO.C,J12*%
X65600000Y-43350000D03*
X66850000Y-43350000D03*
X68100000Y-43350000D03*
X69350000Y-43350000D03*
D44*
X63750000Y-40000000D03*
X71200000Y-40000000D03*
%TD*%
D16*
%TO.C,D17*%
X124242500Y-118170000D03*
X125992500Y-118170000D03*
%TD*%
D35*
%TO.C,C15*%
X99242500Y-78220000D03*
X101317500Y-78220000D03*
%TD*%
D16*
%TO.C,D13*%
X59725000Y-31050000D03*
X61475000Y-31050000D03*
%TD*%
D32*
%TO.C,J7*%
X65600000Y-35500000D03*
X66850000Y-35500000D03*
X68100000Y-35500000D03*
X69350000Y-35500000D03*
D44*
X63750000Y-32150000D03*
X71200000Y-32150000D03*
%TD*%
D38*
%TO.C,R24*%
X97900000Y-47050000D03*
X97900000Y-45050000D03*
%TD*%
%TO.C,R25*%
X99800000Y-47050000D03*
X99800000Y-45050000D03*
%TD*%
D46*
%TO.C,J10*%
X37960000Y-96510000D03*
X37960000Y-83810000D03*
D47*
X40500000Y-93720000D03*
D48*
X42280000Y-92704000D03*
X40500000Y-91688000D03*
X42280000Y-90672000D03*
X40500000Y-89656000D03*
X42280000Y-88640000D03*
X40500000Y-87624000D03*
X42280000Y-86608000D03*
X47100000Y-97020000D03*
X47100000Y-94730000D03*
X47100000Y-85590000D03*
X47100000Y-83300000D03*
D49*
X41390000Y-98290000D03*
X41390000Y-82030000D03*
%TD*%
D46*
%TO.C,J16*%
X37960000Y-116490000D03*
X37960000Y-103790000D03*
D47*
X40500000Y-113700000D03*
D48*
X42280000Y-112684000D03*
X40500000Y-111668000D03*
X42280000Y-110652000D03*
X40500000Y-109636000D03*
X42280000Y-108620000D03*
X40500000Y-107604000D03*
X42280000Y-106588000D03*
X47100000Y-117000000D03*
X47100000Y-114710000D03*
X47100000Y-105570000D03*
X47100000Y-103280000D03*
D49*
X41390000Y-118270000D03*
X41390000Y-102010000D03*
%TD*%
D28*
%TO.C,J24*%
X66142500Y-90230000D03*
D29*
X66142500Y-92770000D03*
X66142500Y-95310000D03*
X66142500Y-97850000D03*
%TD*%
D28*
%TO.C,J26*%
X51142500Y-92770000D03*
D29*
X51142500Y-95310000D03*
X51142500Y-97850000D03*
X51142500Y-100390000D03*
X51142500Y-102930000D03*
%TD*%
D16*
%TO.C,D16*%
X124225000Y-119800000D03*
X125975000Y-119800000D03*
%TD*%
D32*
%TO.C,J13*%
X79350000Y-35500000D03*
X80600000Y-35500000D03*
X81850000Y-35500000D03*
X83100000Y-35500000D03*
D44*
X77500000Y-32150000D03*
X84950000Y-32150000D03*
%TD*%
D50*
%TO.C,J40*%
X59742500Y-115670000D03*
D51*
X62242500Y-115670000D03*
X64242500Y-115670000D03*
X66742500Y-115670000D03*
D52*
X56672500Y-118380000D03*
X69812500Y-118380000D03*
%TD*%
D53*
%TO.C,J14*%
X126450000Y-46425000D03*
X126450000Y-45175000D03*
X126450000Y-43925000D03*
X126450000Y-42675000D03*
D54*
X129650000Y-48275000D03*
X129650000Y-40825000D03*
%TD*%
D55*
%TO.C,J48*%
X101350000Y-121925000D03*
X96350000Y-121925000D03*
D56*
X96550000Y-117925000D03*
X101150000Y-117925000D03*
D57*
X101700000Y-125425000D03*
X96000000Y-125425000D03*
%TD*%
D58*
%TO.C,R1*%
X71242500Y-92220000D03*
X73242500Y-92220000D03*
%TD*%
D28*
%TO.C,J31*%
X85092500Y-55770000D03*
D29*
X87632500Y-55770000D03*
X90172500Y-55770000D03*
X92712500Y-55770000D03*
X95252500Y-55770000D03*
X97792500Y-55770000D03*
%TD*%
D16*
%TO.C,D7*%
X52692500Y-68770000D03*
X54442500Y-68770000D03*
%TD*%
D30*
%TO.C,R22*%
X110750000Y-46600613D03*
X110750000Y-48600613D03*
%TD*%
D40*
%TO.C,J28*%
X126350000Y-87120000D03*
X126350000Y-88370000D03*
X126350000Y-89620000D03*
X126350000Y-90870000D03*
X126350000Y-92120000D03*
X126350000Y-93370000D03*
D41*
X129700000Y-85270000D03*
X129700000Y-95220000D03*
%TD*%
D13*
%TO.C,C12*%
X73280000Y-94170000D03*
X71205000Y-94170000D03*
%TD*%
D25*
%TO.C,H2*%
X124700000Y-34050000D03*
X125402944Y-32352944D03*
X125402944Y-35747056D03*
X127100000Y-31650000D03*
D26*
X127100000Y-34050000D03*
D25*
X127100000Y-36450000D03*
X128797056Y-32352944D03*
X128797056Y-35747056D03*
X129500000Y-34050000D03*
%TD*%
D34*
%TO.C,C24*%
X54480000Y-56765000D03*
X54480000Y-54690000D03*
%TD*%
D38*
%TO.C,R9*%
X52887000Y-74225500D03*
X52887000Y-72225500D03*
%TD*%
D59*
%TO.C,D9*%
X75642500Y-99570000D03*
X74405064Y-98332564D03*
%TD*%
D38*
%TO.C,R5*%
X60887000Y-74225500D03*
X60887000Y-72225500D03*
%TD*%
D30*
%TO.C,R23*%
X120750000Y-46600613D03*
X120750000Y-48600613D03*
%TD*%
D16*
%TO.C,D18*%
X120092500Y-59670000D03*
X121842500Y-59670000D03*
%TD*%
D46*
%TO.C,J15*%
X37960000Y-76530000D03*
X37960000Y-63830000D03*
D47*
X40500000Y-73740000D03*
D48*
X42280000Y-72724000D03*
X40500000Y-71708000D03*
X42280000Y-70692000D03*
X40500000Y-69676000D03*
X42280000Y-68660000D03*
X40500000Y-67644000D03*
X42280000Y-66628000D03*
X47100000Y-77040000D03*
X47100000Y-74750000D03*
X47100000Y-65610000D03*
X47100000Y-63320000D03*
D49*
X41390000Y-78310000D03*
X41390000Y-62050000D03*
%TD*%
D24*
%TO.C,D30*%
X123642500Y-39595000D03*
X123642500Y-41345000D03*
%TD*%
D35*
%TO.C,C25*%
X66005000Y-55670000D03*
X68110000Y-55670000D03*
%TD*%
D28*
%TO.C,U2*%
X92760000Y-49750000D03*
D29*
X95300000Y-49750000D03*
X97840000Y-49750000D03*
X100380000Y-49750000D03*
D28*
X92780000Y-42000000D03*
D29*
X95320000Y-42000000D03*
X97860000Y-42000000D03*
X100400000Y-42000000D03*
%TD*%
D32*
%TO.C,J34*%
X72742500Y-62820000D03*
X73992500Y-62820000D03*
X75242500Y-62820000D03*
X76492500Y-62820000D03*
D44*
X70892500Y-59470000D03*
X78342500Y-59470000D03*
%TD*%
D14*
%TO.C,J23*%
X53267500Y-109520000D03*
X52017500Y-109520000D03*
D15*
X55117500Y-112870000D03*
X50167500Y-112870000D03*
%TD*%
D22*
%TO.C,R36*%
X87842500Y-46720000D03*
D23*
X86392500Y-46720000D03*
%TD*%
D24*
%TO.C,D24*%
X108642500Y-46470000D03*
X108642500Y-48220000D03*
%TD*%
D27*
%TO.C,D23*%
X89477500Y-51545000D03*
X87727500Y-51545000D03*
%TD*%
D30*
%TO.C,R21*%
X112650000Y-46600613D03*
X112650000Y-48600613D03*
%TD*%
D60*
%TO.C,D28*%
X108742500Y-74770000D03*
X108742500Y-78070000D03*
X113642500Y-78070000D03*
X113642500Y-74770000D03*
%TD*%
D61*
%TO.C,J2*%
X102740000Y-35855000D03*
X96960000Y-35855000D03*
D62*
X103050000Y-36930000D03*
X102250000Y-36930000D03*
D63*
X101100000Y-36930000D03*
X100100000Y-36930000D03*
X99600000Y-36930000D03*
X98600000Y-36930000D03*
D62*
X97450000Y-36930000D03*
X96650000Y-36930000D03*
X96650000Y-36930000D03*
X97450000Y-36930000D03*
D63*
X98100000Y-36930000D03*
X99100000Y-36930000D03*
X100600000Y-36930000D03*
X101600000Y-36930000D03*
D62*
X102250000Y-36930000D03*
X103050000Y-36930000D03*
D64*
X104170000Y-36355000D03*
D65*
X104170000Y-32175000D03*
D64*
X95530000Y-36355000D03*
D65*
X95530000Y-32175000D03*
%TD*%
D16*
%TO.C,D26*%
X70142500Y-109470000D03*
X71892500Y-109470000D03*
%TD*%
%TO.C,D25*%
X52767500Y-126170000D03*
X54517500Y-126170000D03*
%TD*%
D34*
%TO.C,C26*%
X81900000Y-56765000D03*
X81860000Y-54690000D03*
%TD*%
D40*
%TO.C,J35*%
X117242500Y-65620000D03*
X117242500Y-66870000D03*
X117242500Y-68120000D03*
X117242500Y-69370000D03*
D41*
X120592500Y-63770000D03*
X120592500Y-71220000D03*
%TD*%
D16*
%TO.C,D6*%
X52692500Y-67270000D03*
X54442500Y-67270000D03*
%TD*%
D30*
%TO.C,R31*%
X105200000Y-39500000D03*
X105200000Y-41500000D03*
%TD*%
D34*
%TO.C,C4*%
X84392500Y-73770000D03*
X84392500Y-71695000D03*
%TD*%
D38*
%TO.C,R3*%
X64887000Y-74225500D03*
X64887000Y-72225500D03*
%TD*%
D13*
%TO.C,C18*%
X73280000Y-83720000D03*
X71205000Y-83720000D03*
%TD*%
D35*
%TO.C,C10*%
X99542500Y-94220000D03*
X101617500Y-94220000D03*
%TD*%
D13*
%TO.C,C11*%
X73280000Y-96130000D03*
X71205000Y-96130000D03*
%TD*%
D34*
%TO.C,C16*%
X78142500Y-73870000D03*
X78142500Y-71795000D03*
%TD*%
D53*
%TO.C,J21*%
X126400000Y-102270000D03*
X126400000Y-101020000D03*
D54*
X129600000Y-104120000D03*
X129600000Y-99170000D03*
%TD*%
D36*
%TO.C,SW2*%
X112492500Y-113770000D03*
X105992500Y-113770000D03*
X112492500Y-109270000D03*
X105992500Y-109270000D03*
%TD*%
D66*
%TO.C,U1*%
X77892500Y-97132500D03*
X78392500Y-97132500D03*
X78892500Y-97132500D03*
X79392500Y-97132500D03*
X79892500Y-97132500D03*
X80392500Y-97132500D03*
X80892500Y-97132500D03*
X81392500Y-97132500D03*
X81892500Y-97132500D03*
X82392500Y-97132500D03*
X82892500Y-97132500D03*
X83392500Y-97132500D03*
X83892500Y-97132500D03*
X84392500Y-97132500D03*
X84892500Y-97132500D03*
X85392500Y-97132500D03*
X85892500Y-97132500D03*
X86392500Y-97132500D03*
X86892500Y-97132500D03*
X87392500Y-97132500D03*
X87892500Y-97132500D03*
X88392500Y-97132500D03*
X88892500Y-97132500D03*
X89392500Y-97132500D03*
X89892500Y-97132500D03*
X90392500Y-97132500D03*
X90892500Y-97132500D03*
X91392500Y-97132500D03*
X91892500Y-97132500D03*
X92392500Y-97132500D03*
X92892500Y-97132500D03*
X93392500Y-97132500D03*
X93892500Y-97132500D03*
X94392500Y-97132500D03*
X94892500Y-97132500D03*
X95392500Y-97132500D03*
D67*
X97305000Y-95220000D03*
X97305000Y-94720000D03*
X97305000Y-94220000D03*
X97305000Y-93720000D03*
X97305000Y-93220000D03*
X97305000Y-92720000D03*
X97305000Y-92220000D03*
X97305000Y-91720000D03*
X97305000Y-91220000D03*
X97305000Y-90720000D03*
X97305000Y-90220000D03*
X97305000Y-89720000D03*
X97305000Y-89220000D03*
X97305000Y-88720000D03*
X97305000Y-88220000D03*
X97305000Y-87720000D03*
X97305000Y-87220000D03*
X97305000Y-86720000D03*
X97305000Y-86220000D03*
X97305000Y-85720000D03*
X97305000Y-85220000D03*
X97305000Y-84720000D03*
X97305000Y-84220000D03*
X97305000Y-83720000D03*
X97305000Y-83220000D03*
X97305000Y-82720000D03*
X97305000Y-82220000D03*
X97305000Y-81720000D03*
X97305000Y-81220000D03*
X97305000Y-80720000D03*
X97305000Y-80220000D03*
X97305000Y-79720000D03*
X97305000Y-79220000D03*
X97305000Y-78720000D03*
X97305000Y-78220000D03*
X97305000Y-77720000D03*
D66*
X95392500Y-75807500D03*
X94892500Y-75807500D03*
X94392500Y-75807500D03*
X93892500Y-75807500D03*
X93392500Y-75807500D03*
X92892500Y-75807500D03*
X92392500Y-75807500D03*
X91892500Y-75807500D03*
X91392500Y-75807500D03*
X90892500Y-75807500D03*
X90392500Y-75807500D03*
X89892500Y-75807500D03*
X89392500Y-75807500D03*
X88892500Y-75807500D03*
X88392500Y-75807500D03*
X87892500Y-75807500D03*
X87392500Y-75807500D03*
X86892500Y-75807500D03*
X86392500Y-75807500D03*
X85892500Y-75807500D03*
X85392500Y-75807500D03*
X84892500Y-75807500D03*
X84392500Y-75807500D03*
X83892500Y-75807500D03*
X83392500Y-75807500D03*
X82892500Y-75807500D03*
X82392500Y-75807500D03*
X81892500Y-75807500D03*
X81392500Y-75807500D03*
X80892500Y-75807500D03*
X80392500Y-75807500D03*
X79892500Y-75807500D03*
X79392500Y-75807500D03*
X78892500Y-75807500D03*
X78392500Y-75807500D03*
X77892500Y-75807500D03*
D67*
X75980000Y-77720000D03*
X75980000Y-78220000D03*
X75980000Y-78720000D03*
X75980000Y-79220000D03*
X75980000Y-79720000D03*
X75980000Y-80220000D03*
X75980000Y-80720000D03*
X75980000Y-81220000D03*
X75980000Y-81720000D03*
X75980000Y-82220000D03*
X75980000Y-82720000D03*
X75980000Y-83220000D03*
X75980000Y-83720000D03*
X75980000Y-84220000D03*
X75980000Y-84720000D03*
X75980000Y-85220000D03*
X75980000Y-85720000D03*
X75980000Y-86220000D03*
X75980000Y-86720000D03*
X75980000Y-87220000D03*
X75980000Y-87720000D03*
X75980000Y-88220000D03*
X75980000Y-88720000D03*
X75980000Y-89220000D03*
X75980000Y-89720000D03*
X75980000Y-90220000D03*
X75980000Y-90720000D03*
X75980000Y-91220000D03*
X75980000Y-91720000D03*
X75980000Y-92220000D03*
X75980000Y-92720000D03*
X75980000Y-93220000D03*
X75980000Y-93720000D03*
X75980000Y-94220000D03*
X75980000Y-94720000D03*
X75980000Y-95220000D03*
%TD*%
D28*
%TO.C,J4*%
X60600000Y-35875000D03*
D29*
X60600000Y-38415000D03*
%TD*%
D30*
%TO.C,R19*%
X118850000Y-46600613D03*
X118850000Y-48600613D03*
%TD*%
D46*
%TO.C,J9*%
X37960000Y-56550000D03*
X37960000Y-43850000D03*
D47*
X40500000Y-53760000D03*
D48*
X42280000Y-52744000D03*
X40500000Y-51728000D03*
X42280000Y-50712000D03*
X40500000Y-49696000D03*
X42280000Y-48680000D03*
X40500000Y-47664000D03*
X42280000Y-46648000D03*
X47100000Y-57060000D03*
X47100000Y-54770000D03*
X47100000Y-45630000D03*
X47100000Y-43340000D03*
D49*
X41390000Y-58330000D03*
X41390000Y-42070000D03*
%TD*%
D14*
%TO.C,J38*%
X76042500Y-102170000D03*
X74792500Y-102170000D03*
X73542500Y-102170000D03*
X72292500Y-102170000D03*
D15*
X77892500Y-105520000D03*
X70442500Y-105520000D03*
%TD*%
D28*
%TO.C,J3*%
X47100000Y-35875000D03*
D29*
X47100000Y-38415000D03*
%TD*%
D35*
%TO.C,C8*%
X99805000Y-82720000D03*
X101880000Y-82720000D03*
%TD*%
D22*
%TO.C,R34*%
X61092500Y-46720000D03*
D23*
X59642500Y-46720000D03*
%TD*%
D25*
%TO.C,H4*%
X33700000Y-125050000D03*
X34402944Y-123352944D03*
X34402944Y-126747056D03*
X36100000Y-122650000D03*
D26*
X36100000Y-125050000D03*
D25*
X36100000Y-127450000D03*
X37797056Y-123352944D03*
X37797056Y-126747056D03*
X38500000Y-125050000D03*
%TD*%
D16*
%TO.C,D10*%
X46225000Y-33050000D03*
X47975000Y-33050000D03*
%TD*%
D30*
%TO.C,R2*%
X51242500Y-77470000D03*
X51242500Y-79470000D03*
%TD*%
D68*
%TO.C,R33*%
X68742500Y-76070000D03*
X66742500Y-76070000D03*
%TD*%
D40*
%TO.C,J29*%
X126350000Y-75120000D03*
X126350000Y-76370000D03*
X126350000Y-77620000D03*
X126350000Y-78870000D03*
X126350000Y-80120000D03*
X126350000Y-81370000D03*
D41*
X129700000Y-73270000D03*
X129700000Y-83220000D03*
%TD*%
D69*
%TO.C,J19*%
X48742500Y-124170000D03*
D70*
X46242500Y-124170000D03*
X43742500Y-124170000D03*
%TD*%
D30*
%TO.C,C22*%
X63942500Y-82070000D03*
X63942500Y-84070000D03*
%TD*%
D32*
%TO.C,J32*%
X90517500Y-62820000D03*
X91767500Y-62820000D03*
X93017500Y-62820000D03*
X94267500Y-62820000D03*
X95517500Y-62820000D03*
X96767500Y-62820000D03*
D44*
X88667500Y-59470000D03*
X98617500Y-59470000D03*
%TD*%
D39*
%TO.C,D21*%
X50182500Y-107245000D03*
X50182500Y-105495000D03*
%TD*%
D68*
%TO.C,R54*%
X106942500Y-46770000D03*
X104942500Y-46770000D03*
%TD*%
D35*
%TO.C,C19*%
X99505000Y-96270000D03*
X101580000Y-96270000D03*
%TD*%
D31*
%TO.C,U4*%
X51945000Y-52675000D03*
X53215000Y-52675000D03*
X54485000Y-52675000D03*
X55755000Y-52675000D03*
X55755000Y-47425000D03*
X54485000Y-47425000D03*
X53215000Y-47425000D03*
X51945000Y-47425000D03*
%TD*%
D28*
%TO.C,J44*%
X106217500Y-70770000D03*
D29*
X108757500Y-70770000D03*
X111297500Y-70770000D03*
%TD*%
D16*
%TO.C,D15*%
X73475000Y-31050000D03*
X75225000Y-31050000D03*
%TD*%
D27*
%TO.C,D22*%
X89477500Y-53145000D03*
X87727500Y-53145000D03*
%TD*%
D14*
%TO.C,J27*%
X106967500Y-117170000D03*
X105717500Y-117170000D03*
D15*
X108817500Y-120520000D03*
X103867500Y-120520000D03*
%TD*%
D28*
%TO.C,J43*%
X84742500Y-59370000D03*
D29*
X84742500Y-61910000D03*
%TD*%
D16*
%TO.C,D4*%
X52692500Y-64270000D03*
X54442500Y-64270000D03*
%TD*%
D14*
%TO.C,J37*%
X120042500Y-117370000D03*
X118792500Y-117370000D03*
X117542500Y-117370000D03*
X116292500Y-117370000D03*
X115042500Y-117370000D03*
X113792500Y-117370000D03*
D15*
X121892500Y-120720000D03*
X111942500Y-120720000D03*
%TD*%
D16*
%TO.C,D12*%
X59725000Y-33050000D03*
X61475000Y-33050000D03*
%TD*%
%TO.C,D11*%
X46225000Y-31050000D03*
X47975000Y-31050000D03*
%TD*%
D28*
%TO.C,J5*%
X74350000Y-35875000D03*
D29*
X74350000Y-38415000D03*
%TD*%
D32*
%TO.C,J11*%
X51975000Y-43350000D03*
X53225000Y-43350000D03*
X54475000Y-43350000D03*
X55725000Y-43350000D03*
D44*
X50125000Y-40000000D03*
X57575000Y-40000000D03*
%TD*%
D12*
%TO.C,C31*%
X106142500Y-76732500D03*
X106142500Y-78807500D03*
%TD*%
D16*
%TO.C,D8*%
X52692500Y-70270000D03*
X54442500Y-70270000D03*
%TD*%
D40*
%TO.C,J36*%
X117242500Y-75120000D03*
X117242500Y-76370000D03*
D41*
X120592500Y-73270000D03*
X120592500Y-78220000D03*
%TD*%
D32*
%TO.C,J33*%
X60792500Y-62820000D03*
X62042500Y-62820000D03*
X63292500Y-62820000D03*
X64542500Y-62820000D03*
X65792500Y-62820000D03*
X67042500Y-62820000D03*
D44*
X58942500Y-59470000D03*
X68892500Y-59470000D03*
%TD*%
D28*
%TO.C,J46*%
X58742500Y-89930000D03*
D29*
X58742500Y-92470000D03*
X58742500Y-95010000D03*
X58742500Y-97550000D03*
%TD*%
D38*
%TO.C,R7*%
X56887000Y-74225500D03*
X56887000Y-72225500D03*
%TD*%
D30*
%TO.C,R20*%
X116950000Y-46600613D03*
X116950000Y-48600613D03*
%TD*%
D28*
%TO.C,J47*%
X61942500Y-89930000D03*
D29*
X61942500Y-92470000D03*
X61942500Y-95010000D03*
X61942500Y-97550000D03*
%TD*%
D71*
%TO.C,U8*%
X91942500Y-125690000D03*
D72*
X91107500Y-125690000D03*
D71*
X91942500Y-123150000D03*
D72*
X91107500Y-123150000D03*
D71*
X91942500Y-120610000D03*
D72*
X91107500Y-120610000D03*
D71*
X91942500Y-118070000D03*
D72*
X91107500Y-118070000D03*
D71*
X91942500Y-115530000D03*
D72*
X91107500Y-115530000D03*
D71*
X91942500Y-112990000D03*
D72*
X91107500Y-112990000D03*
D71*
X91942500Y-110450000D03*
D72*
X91107500Y-110450000D03*
X75867500Y-110450000D03*
D73*
X75032500Y-110450000D03*
D72*
X75867500Y-112990000D03*
D73*
X75032500Y-112990000D03*
D72*
X75867500Y-115530000D03*
D73*
X75032500Y-115530000D03*
D72*
X75867500Y-118070000D03*
D73*
X75032500Y-118070000D03*
D72*
X75867500Y-120610000D03*
D73*
X75032500Y-120610000D03*
D72*
X75867500Y-123150000D03*
D73*
X75032500Y-123150000D03*
D72*
X75867500Y-125690000D03*
D73*
X75032500Y-125690000D03*
%TD*%
D36*
%TO.C,SW3*%
X121992500Y-113770000D03*
X115492500Y-113770000D03*
X121992500Y-109270000D03*
X115492500Y-109270000D03*
%TD*%
D34*
%TO.C,C3*%
X90442500Y-73770000D03*
X90442500Y-71695000D03*
%TD*%
D16*
%TO.C,D2*%
X52692500Y-61270000D03*
X54442500Y-61270000D03*
%TD*%
M02*
