%TF.GenerationSoftware,KiCad,Pcbnew,8.0.3*%
%TF.CreationDate,2024-12-04T19:25:53+09:00*%
%TF.ProjectId,nnct-main,6e6e6374-2d6d-4616-996e-2e6b69636164,rev?*%
%TF.SameCoordinates,Original*%
%TF.FileFunction,Paste,Top*%
%TF.FilePolarity,Positive*%
%FSLAX46Y46*%
G04 Gerber Fmt 4.6, Leading zero omitted, Abs format (unit mm)*
G04 Created by KiCad (PCBNEW 8.0.3) date 2024-12-04 19:25:53*
%MOMM*%
%LPD*%
G01*
G04 APERTURE LIST*
G04 Aperture macros list*
%AMRoundRect*
0 Rectangle with rounded corners*
0 $1 Rounding radius*
0 $2 $3 $4 $5 $6 $7 $8 $9 X,Y pos of 4 corners*
0 Add a 4 corners polygon primitive as box body*
4,1,4,$2,$3,$4,$5,$6,$7,$8,$9,$2,$3,0*
0 Add four circle primitives for the rounded corners*
1,1,$1+$1,$2,$3*
1,1,$1+$1,$4,$5*
1,1,$1+$1,$6,$7*
1,1,$1+$1,$8,$9*
0 Add four rect primitives between the rounded corners*
20,1,$1+$1,$2,$3,$4,$5,0*
20,1,$1+$1,$4,$5,$6,$7,0*
20,1,$1+$1,$6,$7,$8,$9,0*
20,1,$1+$1,$8,$9,$2,$3,0*%
G04 Aperture macros list end*
%ADD10RoundRect,0.250000X-0.475000X0.337500X-0.475000X-0.337500X0.475000X-0.337500X0.475000X0.337500X0*%
%ADD11RoundRect,0.250000X0.337500X0.475000X-0.337500X0.475000X-0.337500X-0.475000X0.337500X-0.475000X0*%
%ADD12RoundRect,0.150000X0.150000X0.700000X-0.150000X0.700000X-0.150000X-0.700000X0.150000X-0.700000X0*%
%ADD13RoundRect,0.250000X0.250000X1.150000X-0.250000X1.150000X-0.250000X-1.150000X0.250000X-1.150000X0*%
%ADD14RoundRect,0.237500X-0.287500X-0.237500X0.287500X-0.237500X0.287500X0.237500X-0.287500X0.237500X0*%
%ADD15R,1.200000X1.400000*%
%ADD16R,1.200000X2.200000*%
%ADD17R,1.600000X1.400000*%
%ADD18R,0.700000X1.600000*%
%ADD19RoundRect,0.237500X-0.237500X0.287500X-0.237500X-0.287500X0.237500X-0.287500X0.237500X0.287500X0*%
%ADD20RoundRect,0.237500X0.287500X0.237500X-0.287500X0.237500X-0.287500X-0.237500X0.287500X-0.237500X0*%
%ADD21RoundRect,0.250000X-0.450000X0.350000X-0.450000X-0.350000X0.450000X-0.350000X0.450000X0.350000X0*%
%ADD22RoundRect,0.150000X0.150000X-0.675000X0.150000X0.675000X-0.150000X0.675000X-0.150000X-0.675000X0*%
%ADD23RoundRect,0.150000X-0.150000X-0.700000X0.150000X-0.700000X0.150000X0.700000X-0.150000X0.700000X0*%
%ADD24RoundRect,0.250000X-0.250000X-1.100000X0.250000X-1.100000X0.250000X1.100000X-0.250000X1.100000X0*%
%ADD25RoundRect,0.250000X0.475000X-0.337500X0.475000X0.337500X-0.475000X0.337500X-0.475000X-0.337500X0*%
%ADD26RoundRect,0.250000X-0.337500X-0.475000X0.337500X-0.475000X0.337500X0.475000X-0.337500X0.475000X0*%
%ADD27RoundRect,0.250000X0.450000X-0.350000X0.450000X0.350000X-0.450000X0.350000X-0.450000X-0.350000X0*%
%ADD28RoundRect,0.237500X0.237500X-0.287500X0.237500X0.287500X-0.237500X0.287500X-0.237500X-0.287500X0*%
%ADD29RoundRect,0.150000X-0.700000X0.150000X-0.700000X-0.150000X0.700000X-0.150000X0.700000X0.150000X0*%
%ADD30RoundRect,0.250000X-1.150000X0.250000X-1.150000X-0.250000X1.150000X-0.250000X1.150000X0.250000X0*%
%ADD31RoundRect,0.250000X-0.250000X-1.150000X0.250000X-1.150000X0.250000X1.150000X-0.250000X1.150000X0*%
%ADD32RoundRect,0.150000X0.700000X-0.150000X0.700000X0.150000X-0.700000X0.150000X-0.700000X-0.150000X0*%
%ADD33RoundRect,0.250000X1.100000X-0.250000X1.100000X0.250000X-1.100000X0.250000X-1.100000X-0.250000X0*%
%ADD34RoundRect,0.250000X-0.350000X-0.450000X0.350000X-0.450000X0.350000X0.450000X-0.350000X0.450000X0*%
%ADD35RoundRect,0.237500X0.371231X-0.035355X-0.035355X0.371231X-0.371231X0.035355X0.035355X-0.371231X0*%
%ADD36R,1.500000X0.900000*%
%ADD37RoundRect,0.150000X0.150000X0.425000X-0.150000X0.425000X-0.150000X-0.425000X0.150000X-0.425000X0*%
%ADD38RoundRect,0.075000X0.075000X0.500000X-0.075000X0.500000X-0.075000X-0.500000X0.075000X-0.500000X0*%
%ADD39O,1.000000X2.100000*%
%ADD40O,1.000000X1.800000*%
%ADD41RoundRect,0.075000X0.075000X-0.662500X0.075000X0.662500X-0.075000X0.662500X-0.075000X-0.662500X0*%
%ADD42RoundRect,0.075000X0.662500X-0.075000X0.662500X0.075000X-0.662500X0.075000X-0.662500X-0.075000X0*%
%ADD43RoundRect,0.250000X0.350000X0.450000X-0.350000X0.450000X-0.350000X-0.450000X0.350000X-0.450000X0*%
G04 APERTURE END LIST*
D10*
%TO.C,C1*%
X80392500Y-99070000D03*
X80392500Y-101145000D03*
%TD*%
D11*
%TO.C,C17*%
X73280000Y-88720000D03*
X71205000Y-88720000D03*
%TD*%
D12*
%TO.C,J39*%
X65342500Y-103920000D03*
X64092500Y-103920000D03*
X62842500Y-103920000D03*
X61592500Y-103920000D03*
X60342500Y-103920000D03*
X59092500Y-103920000D03*
D13*
X67192500Y-107270000D03*
X57242500Y-107270000D03*
%TD*%
D14*
%TO.C,D1*%
X52692500Y-59770000D03*
X54442500Y-59770000D03*
%TD*%
D15*
%TO.C,J1*%
X121350000Y-43600000D03*
D16*
X121350000Y-34000000D03*
D17*
X106750000Y-43600000D03*
D16*
X105850000Y-34000000D03*
D18*
X120150000Y-44100000D03*
X119050000Y-44100000D03*
X117950000Y-44100000D03*
X116850000Y-44100000D03*
X115750000Y-44100000D03*
X114650000Y-44100000D03*
X113550000Y-44100000D03*
X112450000Y-44100000D03*
X111350000Y-44100000D03*
%TD*%
D14*
%TO.C,D14*%
X73475000Y-33050000D03*
X75225000Y-33050000D03*
%TD*%
D19*
%TO.C,D29*%
X122142500Y-39595000D03*
X122142500Y-41345000D03*
%TD*%
D14*
%TO.C,D3*%
X52692500Y-62770000D03*
X54442500Y-62770000D03*
%TD*%
D20*
%TO.C,D20*%
X129917500Y-97170000D03*
X128167500Y-97170000D03*
%TD*%
D21*
%TO.C,R32*%
X103300000Y-41500000D03*
X103300000Y-39500000D03*
%TD*%
%TO.C,C23*%
X63942500Y-78370000D03*
X63942500Y-80370000D03*
%TD*%
D22*
%TO.C,U6*%
X79320000Y-52675000D03*
X80590000Y-52675000D03*
X81860000Y-52675000D03*
X83130000Y-52675000D03*
X83130000Y-47425000D03*
X81860000Y-47425000D03*
X80590000Y-47425000D03*
X79320000Y-47425000D03*
%TD*%
D23*
%TO.C,J22*%
X107317500Y-124450000D03*
X108567500Y-124450000D03*
X109817500Y-124450000D03*
X111067500Y-124450000D03*
X112317500Y-124450000D03*
X113567500Y-124450000D03*
D24*
X105467500Y-127650000D03*
X115417500Y-127650000D03*
%TD*%
D25*
%TO.C,C7*%
X76142500Y-73870000D03*
X76142500Y-71795000D03*
%TD*%
D22*
%TO.C,U5*%
X65570000Y-52675000D03*
X66840000Y-52675000D03*
X68110000Y-52675000D03*
X69380000Y-52675000D03*
X69380000Y-47425000D03*
X68110000Y-47425000D03*
X66840000Y-47425000D03*
X65570000Y-47425000D03*
%TD*%
D26*
%TO.C,C9*%
X99605000Y-87720000D03*
X101680000Y-87720000D03*
%TD*%
%TO.C,C2*%
X98305000Y-75870000D03*
X100380000Y-75870000D03*
%TD*%
D14*
%TO.C,D5*%
X52692500Y-65770000D03*
X54442500Y-65770000D03*
%TD*%
D27*
%TO.C,R4*%
X62887000Y-74225500D03*
X62887000Y-72225500D03*
%TD*%
D28*
%TO.C,D19*%
X51682500Y-107245000D03*
X51682500Y-105495000D03*
%TD*%
D29*
%TO.C,J30*%
X126350000Y-63120000D03*
X126350000Y-64370000D03*
X126350000Y-65620000D03*
X126350000Y-66870000D03*
X126350000Y-68120000D03*
X126350000Y-69370000D03*
D30*
X129700000Y-61270000D03*
X129700000Y-71220000D03*
%TD*%
D27*
%TO.C,R8*%
X54887000Y-74225500D03*
X54887000Y-72225500D03*
%TD*%
%TO.C,R6*%
X58887000Y-74225500D03*
X58887000Y-72225500D03*
%TD*%
D23*
%TO.C,J8*%
X79350000Y-43350000D03*
X80600000Y-43350000D03*
X81850000Y-43350000D03*
X83100000Y-43350000D03*
D31*
X77500000Y-40000000D03*
X84950000Y-40000000D03*
%TD*%
D14*
%TO.C,D27*%
X70142500Y-110970000D03*
X71892500Y-110970000D03*
%TD*%
D23*
%TO.C,J6*%
X51975000Y-35550000D03*
X53225000Y-35550000D03*
X54475000Y-35550000D03*
X55725000Y-35550000D03*
D31*
X50125000Y-32200000D03*
X57575000Y-32200000D03*
%TD*%
D23*
%TO.C,J12*%
X65600000Y-43350000D03*
X66850000Y-43350000D03*
X68100000Y-43350000D03*
X69350000Y-43350000D03*
D31*
X63750000Y-40000000D03*
X71200000Y-40000000D03*
%TD*%
D14*
%TO.C,D17*%
X124242500Y-118170000D03*
X125992500Y-118170000D03*
%TD*%
D26*
%TO.C,C15*%
X99242500Y-78220000D03*
X101317500Y-78220000D03*
%TD*%
D14*
%TO.C,D13*%
X59725000Y-31050000D03*
X61475000Y-31050000D03*
%TD*%
D23*
%TO.C,J7*%
X65600000Y-35500000D03*
X66850000Y-35500000D03*
X68100000Y-35500000D03*
X69350000Y-35500000D03*
D31*
X63750000Y-32150000D03*
X71200000Y-32150000D03*
%TD*%
D27*
%TO.C,R24*%
X97900000Y-47050000D03*
X97900000Y-45050000D03*
%TD*%
%TO.C,R25*%
X99800000Y-47050000D03*
X99800000Y-45050000D03*
%TD*%
D14*
%TO.C,D16*%
X124225000Y-119800000D03*
X125975000Y-119800000D03*
%TD*%
D23*
%TO.C,J13*%
X79350000Y-35500000D03*
X80600000Y-35500000D03*
X81850000Y-35500000D03*
X83100000Y-35500000D03*
D31*
X77500000Y-32150000D03*
X84950000Y-32150000D03*
%TD*%
D32*
%TO.C,J14*%
X126450000Y-46425000D03*
X126450000Y-45175000D03*
X126450000Y-43925000D03*
X126450000Y-42675000D03*
D33*
X129650000Y-48275000D03*
X129650000Y-40825000D03*
%TD*%
D34*
%TO.C,R1*%
X71242500Y-92220000D03*
X73242500Y-92220000D03*
%TD*%
D14*
%TO.C,D7*%
X52692500Y-68770000D03*
X54442500Y-68770000D03*
%TD*%
D21*
%TO.C,R22*%
X110750000Y-46600613D03*
X110750000Y-48600613D03*
%TD*%
D29*
%TO.C,J28*%
X126350000Y-87120000D03*
X126350000Y-88370000D03*
X126350000Y-89620000D03*
X126350000Y-90870000D03*
X126350000Y-92120000D03*
X126350000Y-93370000D03*
D30*
X129700000Y-85270000D03*
X129700000Y-95220000D03*
%TD*%
D11*
%TO.C,C12*%
X73280000Y-94170000D03*
X71205000Y-94170000D03*
%TD*%
D25*
%TO.C,C24*%
X54480000Y-56765000D03*
X54480000Y-54690000D03*
%TD*%
D27*
%TO.C,R9*%
X52887000Y-74225500D03*
X52887000Y-72225500D03*
%TD*%
D35*
%TO.C,D9*%
X75642500Y-99570000D03*
X74405064Y-98332564D03*
%TD*%
D27*
%TO.C,R5*%
X60887000Y-74225500D03*
X60887000Y-72225500D03*
%TD*%
D21*
%TO.C,R23*%
X120750000Y-46600613D03*
X120750000Y-48600613D03*
%TD*%
D14*
%TO.C,D18*%
X120092500Y-59670000D03*
X121842500Y-59670000D03*
%TD*%
D19*
%TO.C,D30*%
X123642500Y-39595000D03*
X123642500Y-41345000D03*
%TD*%
D26*
%TO.C,C25*%
X66005000Y-55670000D03*
X68110000Y-55670000D03*
%TD*%
D23*
%TO.C,J34*%
X72742500Y-62820000D03*
X73992500Y-62820000D03*
X75242500Y-62820000D03*
X76492500Y-62820000D03*
D31*
X70892500Y-59470000D03*
X78342500Y-59470000D03*
%TD*%
D12*
%TO.C,J23*%
X53267500Y-109520000D03*
X52017500Y-109520000D03*
D13*
X55117500Y-112870000D03*
X50167500Y-112870000D03*
%TD*%
D19*
%TO.C,D24*%
X108642500Y-46470000D03*
X108642500Y-48220000D03*
%TD*%
D20*
%TO.C,D23*%
X89477500Y-51545000D03*
X87727500Y-51545000D03*
%TD*%
D21*
%TO.C,R21*%
X112650000Y-46600613D03*
X112650000Y-48600613D03*
%TD*%
D36*
%TO.C,D28*%
X108742500Y-74770000D03*
X108742500Y-78070000D03*
X113642500Y-78070000D03*
X113642500Y-74770000D03*
%TD*%
D37*
%TO.C,J2*%
X103050000Y-36930000D03*
X102250000Y-36930000D03*
D38*
X101100000Y-36930000D03*
X100100000Y-36930000D03*
X99600000Y-36930000D03*
X98600000Y-36930000D03*
D37*
X97450000Y-36930000D03*
X96650000Y-36930000D03*
X96650000Y-36930000D03*
X97450000Y-36930000D03*
D38*
X98100000Y-36930000D03*
X99100000Y-36930000D03*
X100600000Y-36930000D03*
X101600000Y-36930000D03*
D37*
X102250000Y-36930000D03*
X103050000Y-36930000D03*
D39*
X104170000Y-36355000D03*
D40*
X104170000Y-32175000D03*
D39*
X95530000Y-36355000D03*
D40*
X95530000Y-32175000D03*
%TD*%
D14*
%TO.C,D26*%
X70142500Y-109470000D03*
X71892500Y-109470000D03*
%TD*%
%TO.C,D25*%
X52767500Y-126170000D03*
X54517500Y-126170000D03*
%TD*%
D25*
%TO.C,C26*%
X81900000Y-56765000D03*
X81860000Y-54690000D03*
%TD*%
D29*
%TO.C,J35*%
X117242500Y-65620000D03*
X117242500Y-66870000D03*
X117242500Y-68120000D03*
X117242500Y-69370000D03*
D30*
X120592500Y-63770000D03*
X120592500Y-71220000D03*
%TD*%
D14*
%TO.C,D6*%
X52692500Y-67270000D03*
X54442500Y-67270000D03*
%TD*%
D21*
%TO.C,R31*%
X105200000Y-39500000D03*
X105200000Y-41500000D03*
%TD*%
D25*
%TO.C,C4*%
X84392500Y-73770000D03*
X84392500Y-71695000D03*
%TD*%
D27*
%TO.C,R3*%
X64887000Y-74225500D03*
X64887000Y-72225500D03*
%TD*%
D11*
%TO.C,C18*%
X73280000Y-83720000D03*
X71205000Y-83720000D03*
%TD*%
D26*
%TO.C,C10*%
X99542500Y-94220000D03*
X101617500Y-94220000D03*
%TD*%
D11*
%TO.C,C11*%
X73280000Y-96130000D03*
X71205000Y-96130000D03*
%TD*%
D25*
%TO.C,C16*%
X78142500Y-73870000D03*
X78142500Y-71795000D03*
%TD*%
D32*
%TO.C,J21*%
X126400000Y-102270000D03*
X126400000Y-101020000D03*
D33*
X129600000Y-104120000D03*
X129600000Y-99170000D03*
%TD*%
D41*
%TO.C,U1*%
X77892500Y-97132500D03*
X78392500Y-97132500D03*
X78892500Y-97132500D03*
X79392500Y-97132500D03*
X79892500Y-97132500D03*
X80392500Y-97132500D03*
X80892500Y-97132500D03*
X81392500Y-97132500D03*
X81892500Y-97132500D03*
X82392500Y-97132500D03*
X82892500Y-97132500D03*
X83392500Y-97132500D03*
X83892500Y-97132500D03*
X84392500Y-97132500D03*
X84892500Y-97132500D03*
X85392500Y-97132500D03*
X85892500Y-97132500D03*
X86392500Y-97132500D03*
X86892500Y-97132500D03*
X87392500Y-97132500D03*
X87892500Y-97132500D03*
X88392500Y-97132500D03*
X88892500Y-97132500D03*
X89392500Y-97132500D03*
X89892500Y-97132500D03*
X90392500Y-97132500D03*
X90892500Y-97132500D03*
X91392500Y-97132500D03*
X91892500Y-97132500D03*
X92392500Y-97132500D03*
X92892500Y-97132500D03*
X93392500Y-97132500D03*
X93892500Y-97132500D03*
X94392500Y-97132500D03*
X94892500Y-97132500D03*
X95392500Y-97132500D03*
D42*
X97305000Y-95220000D03*
X97305000Y-94720000D03*
X97305000Y-94220000D03*
X97305000Y-93720000D03*
X97305000Y-93220000D03*
X97305000Y-92720000D03*
X97305000Y-92220000D03*
X97305000Y-91720000D03*
X97305000Y-91220000D03*
X97305000Y-90720000D03*
X97305000Y-90220000D03*
X97305000Y-89720000D03*
X97305000Y-89220000D03*
X97305000Y-88720000D03*
X97305000Y-88220000D03*
X97305000Y-87720000D03*
X97305000Y-87220000D03*
X97305000Y-86720000D03*
X97305000Y-86220000D03*
X97305000Y-85720000D03*
X97305000Y-85220000D03*
X97305000Y-84720000D03*
X97305000Y-84220000D03*
X97305000Y-83720000D03*
X97305000Y-83220000D03*
X97305000Y-82720000D03*
X97305000Y-82220000D03*
X97305000Y-81720000D03*
X97305000Y-81220000D03*
X97305000Y-80720000D03*
X97305000Y-80220000D03*
X97305000Y-79720000D03*
X97305000Y-79220000D03*
X97305000Y-78720000D03*
X97305000Y-78220000D03*
X97305000Y-77720000D03*
D41*
X95392500Y-75807500D03*
X94892500Y-75807500D03*
X94392500Y-75807500D03*
X93892500Y-75807500D03*
X93392500Y-75807500D03*
X92892500Y-75807500D03*
X92392500Y-75807500D03*
X91892500Y-75807500D03*
X91392500Y-75807500D03*
X90892500Y-75807500D03*
X90392500Y-75807500D03*
X89892500Y-75807500D03*
X89392500Y-75807500D03*
X88892500Y-75807500D03*
X88392500Y-75807500D03*
X87892500Y-75807500D03*
X87392500Y-75807500D03*
X86892500Y-75807500D03*
X86392500Y-75807500D03*
X85892500Y-75807500D03*
X85392500Y-75807500D03*
X84892500Y-75807500D03*
X84392500Y-75807500D03*
X83892500Y-75807500D03*
X83392500Y-75807500D03*
X82892500Y-75807500D03*
X82392500Y-75807500D03*
X81892500Y-75807500D03*
X81392500Y-75807500D03*
X80892500Y-75807500D03*
X80392500Y-75807500D03*
X79892500Y-75807500D03*
X79392500Y-75807500D03*
X78892500Y-75807500D03*
X78392500Y-75807500D03*
X77892500Y-75807500D03*
D42*
X75980000Y-77720000D03*
X75980000Y-78220000D03*
X75980000Y-78720000D03*
X75980000Y-79220000D03*
X75980000Y-79720000D03*
X75980000Y-80220000D03*
X75980000Y-80720000D03*
X75980000Y-81220000D03*
X75980000Y-81720000D03*
X75980000Y-82220000D03*
X75980000Y-82720000D03*
X75980000Y-83220000D03*
X75980000Y-83720000D03*
X75980000Y-84220000D03*
X75980000Y-84720000D03*
X75980000Y-85220000D03*
X75980000Y-85720000D03*
X75980000Y-86220000D03*
X75980000Y-86720000D03*
X75980000Y-87220000D03*
X75980000Y-87720000D03*
X75980000Y-88220000D03*
X75980000Y-88720000D03*
X75980000Y-89220000D03*
X75980000Y-89720000D03*
X75980000Y-90220000D03*
X75980000Y-90720000D03*
X75980000Y-91220000D03*
X75980000Y-91720000D03*
X75980000Y-92220000D03*
X75980000Y-92720000D03*
X75980000Y-93220000D03*
X75980000Y-93720000D03*
X75980000Y-94220000D03*
X75980000Y-94720000D03*
X75980000Y-95220000D03*
%TD*%
D21*
%TO.C,R19*%
X118850000Y-46600613D03*
X118850000Y-48600613D03*
%TD*%
D12*
%TO.C,J38*%
X76042500Y-102170000D03*
X74792500Y-102170000D03*
X73542500Y-102170000D03*
X72292500Y-102170000D03*
D13*
X77892500Y-105520000D03*
X70442500Y-105520000D03*
%TD*%
D26*
%TO.C,C8*%
X99805000Y-82720000D03*
X101880000Y-82720000D03*
%TD*%
D14*
%TO.C,D10*%
X46225000Y-33050000D03*
X47975000Y-33050000D03*
%TD*%
D21*
%TO.C,R2*%
X51242500Y-77470000D03*
X51242500Y-79470000D03*
%TD*%
D43*
%TO.C,R33*%
X68742500Y-76070000D03*
X66742500Y-76070000D03*
%TD*%
D29*
%TO.C,J29*%
X126350000Y-75120000D03*
X126350000Y-76370000D03*
X126350000Y-77620000D03*
X126350000Y-78870000D03*
X126350000Y-80120000D03*
X126350000Y-81370000D03*
D30*
X129700000Y-73270000D03*
X129700000Y-83220000D03*
%TD*%
D21*
%TO.C,C22*%
X63942500Y-82070000D03*
X63942500Y-84070000D03*
%TD*%
D23*
%TO.C,J32*%
X90517500Y-62820000D03*
X91767500Y-62820000D03*
X93017500Y-62820000D03*
X94267500Y-62820000D03*
X95517500Y-62820000D03*
X96767500Y-62820000D03*
D31*
X88667500Y-59470000D03*
X98617500Y-59470000D03*
%TD*%
D28*
%TO.C,D21*%
X50182500Y-107245000D03*
X50182500Y-105495000D03*
%TD*%
D43*
%TO.C,R54*%
X106942500Y-46770000D03*
X104942500Y-46770000D03*
%TD*%
D26*
%TO.C,C19*%
X99505000Y-96270000D03*
X101580000Y-96270000D03*
%TD*%
D22*
%TO.C,U4*%
X51945000Y-52675000D03*
X53215000Y-52675000D03*
X54485000Y-52675000D03*
X55755000Y-52675000D03*
X55755000Y-47425000D03*
X54485000Y-47425000D03*
X53215000Y-47425000D03*
X51945000Y-47425000D03*
%TD*%
D14*
%TO.C,D15*%
X73475000Y-31050000D03*
X75225000Y-31050000D03*
%TD*%
D20*
%TO.C,D22*%
X89477500Y-53145000D03*
X87727500Y-53145000D03*
%TD*%
D12*
%TO.C,J27*%
X106967500Y-117170000D03*
X105717500Y-117170000D03*
D13*
X108817500Y-120520000D03*
X103867500Y-120520000D03*
%TD*%
D14*
%TO.C,D4*%
X52692500Y-64270000D03*
X54442500Y-64270000D03*
%TD*%
D12*
%TO.C,J37*%
X120042500Y-117370000D03*
X118792500Y-117370000D03*
X117542500Y-117370000D03*
X116292500Y-117370000D03*
X115042500Y-117370000D03*
X113792500Y-117370000D03*
D13*
X121892500Y-120720000D03*
X111942500Y-120720000D03*
%TD*%
D14*
%TO.C,D12*%
X59725000Y-33050000D03*
X61475000Y-33050000D03*
%TD*%
%TO.C,D11*%
X46225000Y-31050000D03*
X47975000Y-31050000D03*
%TD*%
D23*
%TO.C,J11*%
X51975000Y-43350000D03*
X53225000Y-43350000D03*
X54475000Y-43350000D03*
X55725000Y-43350000D03*
D31*
X50125000Y-40000000D03*
X57575000Y-40000000D03*
%TD*%
D10*
%TO.C,C31*%
X106142500Y-76732500D03*
X106142500Y-78807500D03*
%TD*%
D14*
%TO.C,D8*%
X52692500Y-70270000D03*
X54442500Y-70270000D03*
%TD*%
D29*
%TO.C,J36*%
X117242500Y-75120000D03*
X117242500Y-76370000D03*
D30*
X120592500Y-73270000D03*
X120592500Y-78220000D03*
%TD*%
D23*
%TO.C,J33*%
X60792500Y-62820000D03*
X62042500Y-62820000D03*
X63292500Y-62820000D03*
X64542500Y-62820000D03*
X65792500Y-62820000D03*
X67042500Y-62820000D03*
D31*
X58942500Y-59470000D03*
X68892500Y-59470000D03*
%TD*%
D27*
%TO.C,R7*%
X56887000Y-74225500D03*
X56887000Y-72225500D03*
%TD*%
D21*
%TO.C,R20*%
X116950000Y-46600613D03*
X116950000Y-48600613D03*
%TD*%
D25*
%TO.C,C3*%
X90442500Y-73770000D03*
X90442500Y-71695000D03*
%TD*%
D14*
%TO.C,D2*%
X52692500Y-61270000D03*
X54442500Y-61270000D03*
%TD*%
M02*
