%TF.GenerationSoftware,KiCad,Pcbnew,8.0.3*%
%TF.CreationDate,2024-12-04T19:25:53+09:00*%
%TF.ProjectId,nnct-main,6e6e6374-2d6d-4616-996e-2e6b69636164,rev?*%
%TF.SameCoordinates,Original*%
%TF.FileFunction,Soldermask,Bot*%
%TF.FilePolarity,Negative*%
%FSLAX46Y46*%
G04 Gerber Fmt 4.6, Leading zero omitted, Abs format (unit mm)*
G04 Created by KiCad (PCBNEW 8.0.3) date 2024-12-04 19:25:53*
%MOMM*%
%LPD*%
G01*
G04 APERTURE LIST*
G04 Aperture macros list*
%AMRoundRect*
0 Rectangle with rounded corners*
0 $1 Rounding radius*
0 $2 $3 $4 $5 $6 $7 $8 $9 X,Y pos of 4 corners*
0 Add a 4 corners polygon primitive as box body*
4,1,4,$2,$3,$4,$5,$6,$7,$8,$9,$2,$3,0*
0 Add four circle primitives for the rounded corners*
1,1,$1+$1,$2,$3*
1,1,$1+$1,$4,$5*
1,1,$1+$1,$6,$7*
1,1,$1+$1,$8,$9*
0 Add four rect primitives between the rounded corners*
20,1,$1+$1,$2,$3,$4,$5,0*
20,1,$1+$1,$4,$5,$6,$7,0*
20,1,$1+$1,$6,$7,$8,$9,0*
20,1,$1+$1,$8,$9,$2,$3,0*%
G04 Aperture macros list end*
%ADD10RoundRect,0.250000X-0.725000X0.600000X-0.725000X-0.600000X0.725000X-0.600000X0.725000X0.600000X0*%
%ADD11O,1.950000X1.700000*%
%ADD12C,0.900000*%
%ADD13C,0.800000*%
%ADD14C,6.400000*%
%ADD15R,1.700000X1.700000*%
%ADD16O,1.700000X1.700000*%
%ADD17C,2.000000*%
%ADD18C,1.998980*%
%ADD19O,2.000000X2.800000*%
%ADD20RoundRect,0.250000X0.725000X-0.600000X0.725000X0.600000X-0.725000X0.600000X-0.725000X-0.600000X0*%
%ADD21R,2.000000X2.000000*%
%ADD22C,3.250000*%
%ADD23R,1.500000X1.500000*%
%ADD24C,1.500000*%
%ADD25C,2.300000*%
%ADD26R,1.600000X1.500000*%
%ADD27C,1.600000*%
%ADD28C,3.000000*%
%ADD29C,1.100000*%
%ADD30O,1.800000X2.300000*%
%ADD31O,2.000000X2.300000*%
%ADD32C,0.650000*%
%ADD33O,1.000000X2.100000*%
%ADD34O,1.000000X1.800000*%
%ADD35RoundRect,0.250000X0.600000X0.725000X-0.600000X0.725000X-0.600000X-0.725000X0.600000X-0.725000X0*%
%ADD36O,1.700000X1.950000*%
%ADD37C,1.524000*%
%ADD38RoundRect,0.250000X-0.450000X0.350000X-0.450000X-0.350000X0.450000X-0.350000X0.450000X0.350000X0*%
%ADD39RoundRect,0.150000X0.150000X-0.825000X0.150000X0.825000X-0.150000X0.825000X-0.150000X-0.825000X0*%
%ADD40RoundRect,0.250000X0.450000X-0.350000X0.450000X0.350000X-0.450000X0.350000X-0.450000X-0.350000X0*%
%ADD41RoundRect,0.250000X-0.350000X-0.450000X0.350000X-0.450000X0.350000X0.450000X-0.350000X0.450000X0*%
%ADD42RoundRect,0.250000X-0.337500X-0.475000X0.337500X-0.475000X0.337500X0.475000X-0.337500X0.475000X0*%
%ADD43R,0.600000X0.900000*%
%ADD44R,0.800000X1.800000*%
%ADD45RoundRect,0.250000X0.350000X0.450000X-0.350000X0.450000X-0.350000X-0.450000X0.350000X-0.450000X0*%
%ADD46RoundRect,0.250000X0.475000X-0.337500X0.475000X0.337500X-0.475000X0.337500X-0.475000X-0.337500X0*%
%ADD47RoundRect,0.250000X-0.475000X0.337500X-0.475000X-0.337500X0.475000X-0.337500X0.475000X0.337500X0*%
%ADD48R,1.200000X2.200000*%
%ADD49R,5.800000X6.400000*%
%ADD50RoundRect,0.250000X-0.475000X0.250000X-0.475000X-0.250000X0.475000X-0.250000X0.475000X0.250000X0*%
%ADD51RoundRect,0.250000X0.337500X0.475000X-0.337500X0.475000X-0.337500X-0.475000X0.337500X-0.475000X0*%
G04 APERTURE END LIST*
D10*
%TO.C,J18*%
X127800000Y-108170000D03*
D11*
X127800000Y-110670000D03*
X127800000Y-113170000D03*
%TD*%
D12*
%TO.C,J1*%
X118550000Y-33600000D03*
X110550000Y-33600000D03*
%TD*%
D13*
%TO.C,H1*%
X124700000Y-125050000D03*
X125402944Y-123352944D03*
X125402944Y-126747056D03*
X127100000Y-122650000D03*
D14*
X127100000Y-125050000D03*
D13*
X127100000Y-127450000D03*
X128797056Y-123352944D03*
X128797056Y-126747056D03*
X129500000Y-125050000D03*
%TD*%
D15*
%TO.C,J45*%
X55542500Y-89930000D03*
D16*
X55542500Y-92470000D03*
X55542500Y-95010000D03*
X55542500Y-97550000D03*
%TD*%
D15*
%TO.C,J20*%
X113722500Y-81470000D03*
D16*
X111182500Y-81470000D03*
X108642500Y-81470000D03*
X106102500Y-81470000D03*
%TD*%
D13*
%TO.C,H3*%
X33700000Y-34050000D03*
X34402944Y-32352944D03*
X34402944Y-35747056D03*
X36100000Y-31650000D03*
D14*
X36100000Y-34050000D03*
D13*
X36100000Y-36450000D03*
X37797056Y-32352944D03*
X37797056Y-35747056D03*
X38500000Y-34050000D03*
%TD*%
D17*
%TO.C,SW1*%
X102992500Y-113770000D03*
X96492500Y-113770000D03*
X102992500Y-109270000D03*
X96492500Y-109270000D03*
%TD*%
D18*
%TO.C,Y1*%
X91682500Y-102120000D03*
X86602500Y-102120000D03*
%TD*%
D19*
%TO.C,J17*%
X128300000Y-54550000D03*
D20*
X121800000Y-55800000D03*
D11*
X121800000Y-53300000D03*
%TD*%
D17*
%TO.C,RESET1*%
X88075000Y-37575000D03*
X88075000Y-31075000D03*
X92575000Y-37575000D03*
X92575000Y-31075000D03*
%TD*%
D15*
%TO.C,J25*%
X58022500Y-110970000D03*
D16*
X60562500Y-110970000D03*
X63102500Y-110970000D03*
X65642500Y-110970000D03*
%TD*%
D21*
%TO.C,BZ1*%
X104042500Y-59320000D03*
D17*
X111642500Y-59320000D03*
%TD*%
D22*
%TO.C,J10*%
X37960000Y-96510000D03*
X37960000Y-83810000D03*
D23*
X40500000Y-93720000D03*
D24*
X42280000Y-92704000D03*
X40500000Y-91688000D03*
X42280000Y-90672000D03*
X40500000Y-89656000D03*
X42280000Y-88640000D03*
X40500000Y-87624000D03*
X42280000Y-86608000D03*
X47100000Y-97020000D03*
X47100000Y-94730000D03*
X47100000Y-85590000D03*
X47100000Y-83300000D03*
D25*
X41390000Y-98290000D03*
X41390000Y-82030000D03*
%TD*%
D22*
%TO.C,J16*%
X37960000Y-116490000D03*
X37960000Y-103790000D03*
D23*
X40500000Y-113700000D03*
D24*
X42280000Y-112684000D03*
X40500000Y-111668000D03*
X42280000Y-110652000D03*
X40500000Y-109636000D03*
X42280000Y-108620000D03*
X40500000Y-107604000D03*
X42280000Y-106588000D03*
X47100000Y-117000000D03*
X47100000Y-114710000D03*
X47100000Y-105570000D03*
X47100000Y-103280000D03*
D25*
X41390000Y-118270000D03*
X41390000Y-102010000D03*
%TD*%
D15*
%TO.C,J24*%
X66142500Y-90230000D03*
D16*
X66142500Y-92770000D03*
X66142500Y-95310000D03*
X66142500Y-97850000D03*
%TD*%
D15*
%TO.C,J26*%
X51142500Y-92770000D03*
D16*
X51142500Y-95310000D03*
X51142500Y-97850000D03*
X51142500Y-100390000D03*
X51142500Y-102930000D03*
%TD*%
D26*
%TO.C,J40*%
X59742500Y-115670000D03*
D27*
X62242500Y-115670000D03*
X64242500Y-115670000D03*
X66742500Y-115670000D03*
D28*
X56672500Y-118380000D03*
X69812500Y-118380000D03*
%TD*%
D29*
%TO.C,J48*%
X101350000Y-121925000D03*
X96350000Y-121925000D03*
D30*
X96550000Y-117925000D03*
X101150000Y-117925000D03*
D31*
X101700000Y-125425000D03*
X96000000Y-125425000D03*
%TD*%
D15*
%TO.C,J31*%
X85092500Y-55770000D03*
D16*
X87632500Y-55770000D03*
X90172500Y-55770000D03*
X92712500Y-55770000D03*
X95252500Y-55770000D03*
X97792500Y-55770000D03*
%TD*%
D13*
%TO.C,H2*%
X124700000Y-34050000D03*
X125402944Y-32352944D03*
X125402944Y-35747056D03*
X127100000Y-31650000D03*
D14*
X127100000Y-34050000D03*
D13*
X127100000Y-36450000D03*
X128797056Y-32352944D03*
X128797056Y-35747056D03*
X129500000Y-34050000D03*
%TD*%
D22*
%TO.C,J15*%
X37960000Y-76530000D03*
X37960000Y-63830000D03*
D23*
X40500000Y-73740000D03*
D24*
X42280000Y-72724000D03*
X40500000Y-71708000D03*
X42280000Y-70692000D03*
X40500000Y-69676000D03*
X42280000Y-68660000D03*
X40500000Y-67644000D03*
X42280000Y-66628000D03*
X47100000Y-77040000D03*
X47100000Y-74750000D03*
X47100000Y-65610000D03*
X47100000Y-63320000D03*
D25*
X41390000Y-78310000D03*
X41390000Y-62050000D03*
%TD*%
D15*
%TO.C,U2*%
X92760000Y-49750000D03*
D16*
X95300000Y-49750000D03*
X97840000Y-49750000D03*
X100380000Y-49750000D03*
D15*
X92780000Y-42000000D03*
D16*
X95320000Y-42000000D03*
X97860000Y-42000000D03*
X100400000Y-42000000D03*
%TD*%
D32*
%TO.C,J2*%
X102740000Y-35855000D03*
X96960000Y-35855000D03*
D33*
X104170000Y-36355000D03*
D34*
X104170000Y-32175000D03*
D33*
X95530000Y-36355000D03*
D34*
X95530000Y-32175000D03*
%TD*%
D17*
%TO.C,SW2*%
X112492500Y-113770000D03*
X105992500Y-113770000D03*
X112492500Y-109270000D03*
X105992500Y-109270000D03*
%TD*%
D15*
%TO.C,J4*%
X60600000Y-35875000D03*
D16*
X60600000Y-38415000D03*
%TD*%
D22*
%TO.C,J9*%
X37960000Y-56550000D03*
X37960000Y-43850000D03*
D23*
X40500000Y-53760000D03*
D24*
X42280000Y-52744000D03*
X40500000Y-51728000D03*
X42280000Y-50712000D03*
X40500000Y-49696000D03*
X42280000Y-48680000D03*
X40500000Y-47664000D03*
X42280000Y-46648000D03*
X47100000Y-57060000D03*
X47100000Y-54770000D03*
X47100000Y-45630000D03*
X47100000Y-43340000D03*
D25*
X41390000Y-58330000D03*
X41390000Y-42070000D03*
%TD*%
D15*
%TO.C,J3*%
X47100000Y-35875000D03*
D16*
X47100000Y-38415000D03*
%TD*%
D13*
%TO.C,H4*%
X33700000Y-125050000D03*
X34402944Y-123352944D03*
X34402944Y-126747056D03*
X36100000Y-122650000D03*
D14*
X36100000Y-125050000D03*
D13*
X36100000Y-127450000D03*
X37797056Y-123352944D03*
X37797056Y-126747056D03*
X38500000Y-125050000D03*
%TD*%
D35*
%TO.C,J19*%
X48742500Y-124170000D03*
D36*
X46242500Y-124170000D03*
X43742500Y-124170000D03*
%TD*%
D15*
%TO.C,J44*%
X106217500Y-70770000D03*
D16*
X108757500Y-70770000D03*
X111297500Y-70770000D03*
%TD*%
D15*
%TO.C,J43*%
X84742500Y-59370000D03*
D16*
X84742500Y-61910000D03*
%TD*%
D15*
%TO.C,J5*%
X74350000Y-35875000D03*
D16*
X74350000Y-38415000D03*
%TD*%
D15*
%TO.C,J46*%
X58742500Y-89930000D03*
D16*
X58742500Y-92470000D03*
X58742500Y-95010000D03*
X58742500Y-97550000D03*
%TD*%
D15*
%TO.C,J47*%
X61942500Y-89930000D03*
D16*
X61942500Y-92470000D03*
X61942500Y-95010000D03*
X61942500Y-97550000D03*
%TD*%
D37*
%TO.C,U8*%
X91107500Y-125690000D03*
X91107500Y-123150000D03*
X91107500Y-120610000D03*
X91107500Y-118070000D03*
X91107500Y-115530000D03*
X91107500Y-112990000D03*
X91107500Y-110450000D03*
X75867500Y-110450000D03*
X75867500Y-112990000D03*
X75867500Y-115530000D03*
X75867500Y-118070000D03*
X75867500Y-120610000D03*
X75867500Y-123150000D03*
X75867500Y-125690000D03*
%TD*%
D17*
%TO.C,SW3*%
X121992500Y-113770000D03*
X115492500Y-113770000D03*
X121992500Y-109270000D03*
X115492500Y-109270000D03*
%TD*%
D38*
%TO.C,R64*%
X119642500Y-38970000D03*
X119642500Y-40970000D03*
%TD*%
D39*
%TO.C,U3*%
X62212500Y-84420000D03*
X60942500Y-84420000D03*
X59672500Y-84420000D03*
X58402500Y-84420000D03*
X57132500Y-84420000D03*
X55862500Y-84420000D03*
X54592500Y-84420000D03*
X53322500Y-84420000D03*
X53322500Y-79470000D03*
X54592500Y-79470000D03*
X55862500Y-79470000D03*
X57132500Y-79470000D03*
X58402500Y-79470000D03*
X59672500Y-79470000D03*
X60942500Y-79470000D03*
X62212500Y-79470000D03*
%TD*%
D40*
%TO.C,R41*%
X47100000Y-89550000D03*
X47100000Y-87550000D03*
%TD*%
D38*
%TO.C,R44*%
X117942500Y-56670000D03*
X117942500Y-58670000D03*
%TD*%
D40*
%TO.C,R10*%
X69442500Y-96870000D03*
X69442500Y-94870000D03*
%TD*%
D41*
%TO.C,R59*%
X119842500Y-81470000D03*
X121842500Y-81470000D03*
%TD*%
D42*
%TO.C,C5*%
X86167500Y-104170000D03*
X88242500Y-104170000D03*
%TD*%
D43*
%TO.C,111111111111111111111111111111111111111111111*%
X51692500Y-120070000D03*
X50742500Y-120070000D03*
X49792500Y-120070000D03*
X49792500Y-117270000D03*
X51692500Y-117270000D03*
%TD*%
D38*
%TO.C,R13*%
X61650000Y-41250000D03*
X61650000Y-43250000D03*
%TD*%
D44*
%TO.C,Q1*%
X108542500Y-61070000D03*
X106642500Y-61070000D03*
X107592500Y-57770000D03*
%TD*%
D40*
%TO.C,R37*%
X50000000Y-37350000D03*
X50000000Y-35350000D03*
%TD*%
D38*
%TO.C,R27*%
X109142500Y-120470000D03*
X109142500Y-122470000D03*
%TD*%
D42*
%TO.C,C28*%
X124430000Y-118470000D03*
X122355000Y-118470000D03*
%TD*%
D40*
%TO.C,R26*%
X109142500Y-118770000D03*
X109142500Y-116770000D03*
%TD*%
D38*
%TO.C,C21*%
X90325000Y-33325000D03*
X90325000Y-35325000D03*
%TD*%
D45*
%TO.C,R50*%
X126542500Y-97170000D03*
X124542500Y-97170000D03*
%TD*%
D46*
%TO.C,C13*%
X92342500Y-95107500D03*
X92342500Y-93032500D03*
%TD*%
D40*
%TO.C,R18*%
X109042500Y-67420000D03*
X109042500Y-65420000D03*
%TD*%
D38*
%TO.C,R51*%
X50292500Y-109020000D03*
X50292500Y-111020000D03*
%TD*%
D45*
%TO.C,R40*%
X50642500Y-45220000D03*
X48642500Y-45220000D03*
%TD*%
D41*
%TO.C,R56*%
X70242500Y-109110000D03*
X72242500Y-109110000D03*
%TD*%
D47*
%TO.C,C29*%
X77892500Y-123632500D03*
X77892500Y-125690000D03*
%TD*%
D38*
%TO.C,R15*%
X75400000Y-41250000D03*
X75400000Y-43250000D03*
%TD*%
D45*
%TO.C,R17*%
X111042500Y-63420000D03*
X109042500Y-63420000D03*
%TD*%
D40*
%TO.C,R38*%
X63600000Y-37350000D03*
X63600000Y-35350000D03*
%TD*%
D38*
%TO.C,R63*%
X64142500Y-96070000D03*
X64142500Y-98070000D03*
%TD*%
D46*
%TO.C,C27*%
X113300000Y-120507500D03*
X113300000Y-118432500D03*
%TD*%
D48*
%TO.C,U7*%
X115582500Y-118970000D03*
X117862500Y-118970000D03*
D49*
X117862500Y-125270000D03*
D48*
X120142500Y-118970000D03*
%TD*%
D38*
%TO.C,R12*%
X42400000Y-31500000D03*
X42400000Y-33500000D03*
%TD*%
D46*
%TO.C,C14*%
X85892500Y-95107500D03*
X85892500Y-93032500D03*
%TD*%
D41*
%TO.C,R29*%
X108242500Y-111520000D03*
X110242500Y-111520000D03*
%TD*%
D40*
%TO.C,R45*%
X47100000Y-69550000D03*
X47100000Y-67550000D03*
%TD*%
D50*
%TO.C,FB1*%
X88342500Y-93320000D03*
X88342500Y-95220000D03*
%TD*%
D38*
%TO.C,R47*%
X45100000Y-75050000D03*
X45100000Y-77050000D03*
%TD*%
%TO.C,R42*%
X45100000Y-55050000D03*
X45100000Y-57050000D03*
%TD*%
%TO.C,R65*%
X117642500Y-38970000D03*
X117642500Y-40970000D03*
%TD*%
%TO.C,R14*%
X59650000Y-41250000D03*
X59650000Y-43250000D03*
%TD*%
%TO.C,R62*%
X54242500Y-100170000D03*
X54242500Y-102170000D03*
%TD*%
%TO.C,R49*%
X52192500Y-109020000D03*
X52192500Y-111020000D03*
%TD*%
%TO.C,R16*%
X73400000Y-41250000D03*
X73400000Y-43250000D03*
%TD*%
%TO.C,R11*%
X44400000Y-33500000D03*
X44400000Y-35500000D03*
%TD*%
D41*
%TO.C,R53*%
X94942500Y-52270000D03*
X96942500Y-52270000D03*
%TD*%
D38*
%TO.C,R43*%
X45100000Y-95050000D03*
X45100000Y-97050000D03*
%TD*%
D41*
%TO.C,R58*%
X116142500Y-81470000D03*
X118142500Y-81470000D03*
%TD*%
D40*
%TO.C,R46*%
X47100000Y-109550000D03*
X47100000Y-107550000D03*
%TD*%
D38*
%TO.C,R48*%
X45100000Y-115050000D03*
X45100000Y-117050000D03*
%TD*%
D51*
%TO.C,C6*%
X92017500Y-104170000D03*
X89942500Y-104170000D03*
%TD*%
D41*
%TO.C,R30*%
X117742500Y-111520000D03*
X119742500Y-111520000D03*
%TD*%
%TO.C,R28*%
X98742500Y-111520000D03*
X100742500Y-111520000D03*
%TD*%
D40*
%TO.C,R39*%
X77300000Y-37350000D03*
X77300000Y-35350000D03*
%TD*%
D41*
%TO.C,R52*%
X91172500Y-53070000D03*
X93172500Y-53070000D03*
%TD*%
D47*
%TO.C,C30*%
X79892500Y-123632500D03*
X79892500Y-125690000D03*
%TD*%
D40*
%TO.C,R55*%
X52742500Y-124270000D03*
X52742500Y-122270000D03*
%TD*%
D47*
%TO.C,C20*%
X90342500Y-93032500D03*
X90342500Y-95107500D03*
%TD*%
D45*
%TO.C,R61*%
X86342500Y-112370000D03*
X84342500Y-112370000D03*
%TD*%
%TO.C,R60*%
X86342500Y-114320000D03*
X84342500Y-114320000D03*
%TD*%
D41*
%TO.C,R57*%
X70242500Y-111070000D03*
X72242500Y-111070000D03*
%TD*%
M02*
