M48
; DRILL file {KiCad 8.0.3} date 2024-12-04T19:25:48+0900
; FORMAT={-:-/ absolute / metric / decimal}
; #@! TF.CreationDate,2024-12-04T19:25:48+09:00
; #@! TF.GenerationSoftware,Kicad,Pcbnew,8.0.3
; #@! TF.FileFunction,Plated,1,2,PTH
FMAT,2
METRIC
; #@! TA.AperFunction,Plated,PTH,ViaDrill
T1C0.300
; #@! TA.AperFunction,Plated,PTH,ComponentDrill
T2C0.500
; #@! TA.AperFunction,Plated,PTH,ComponentDrill
T3C0.600
; #@! TA.AperFunction,Plated,PTH,ComponentDrill
T4C0.800
; #@! TA.AperFunction,Plated,PTH,ComponentDrill
T5C0.800
; #@! TA.AperFunction,Plated,PTH,ComponentDrill
T6C0.889
; #@! TA.AperFunction,Plated,PTH,ComponentDrill
T7C0.890
; #@! TA.AperFunction,Plated,PTH,ComponentDrill
T8C0.950
; #@! TA.AperFunction,Plated,PTH,ComponentDrill
T9C1.000
; #@! TA.AperFunction,Plated,PTH,ComponentDrill
T10C1.100
; #@! TA.AperFunction,Plated,PTH,ComponentDrill
T11C1.570
; #@! TA.AperFunction,Plated,PTH,ComponentDrill
T12C2.300
; #@! TA.AperFunction,Plated,PTH,ComponentDrill
T13C3.200
%
G90
G05
T1
X37.442Y-107.67
X37.542Y-67.47
X37.843Y-87.67
X41.042Y-64.27
X42.042Y-44.67
X42.392Y-33.47
X42.406Y-53.914
X44.392Y-35.47
X44.742Y-46.97
X45.142Y-54.97
X45.142Y-74.97
X45.142Y-94.97
X45.142Y-114.97
X45.973Y-91.61
X46.225Y-31.05
X46.225Y-33.05
X46.843Y-79.87
X47.042Y-100.07
X47.084Y-89.534
X47.142Y-69.47
X47.142Y-109.57
X47.525Y-90.577
X48.04Y-60.07
X48.352Y-114.152
X48.531Y-58.897
X48.531Y-90.37
X48.605Y-115.184
X48.717Y-82.809
X48.921Y-57.285
X48.937Y-55.227
X49.142Y-116.07
X49.444Y-82.809
X49.679Y-114.77
X49.679Y-115.497
X49.686Y-83.79
X49.698Y-87.032
X49.698Y-89.715
X49.792Y-117.27
X49.792Y-120.07
X50.0Y-35.35
X50.0Y-37.35
X50.242Y-110.97
X50.292Y-109.02
X50.642Y-45.22
X50.679Y-84.67
X50.679Y-87.043
X50.679Y-87.77
X50.679Y-88.497
X50.679Y-89.224
X50.873Y-115.733
X51.012Y-90.915
X51.242Y-79.47
X51.343Y-56.779
X51.577Y-58.524
X51.607Y-86.557
X51.682Y-107.245
X51.688Y-87.279
X51.725Y-89.249
X51.942Y-52.77
X51.945Y-47.425
X52.069Y-56.525
X52.142Y-110.97
X52.398Y-91.67
X52.415Y-87.279
X52.415Y-89.022
X52.742Y-122.27
X52.742Y-124.27
X52.843Y-72.27
X53.142Y-87.279
X53.142Y-89.022
X53.215Y-52.675
X53.225Y-43.35
X53.633Y-89.697
X53.633Y-94.97
X53.642Y-82.47
X53.887Y-92.32
X53.919Y-87.026
X54.094Y-105.335
X54.242Y-102.17
X54.342Y-115.215
X54.475Y-35.55
X54.475Y-43.35
X54.485Y-52.675
X54.517Y-126.17
X54.642Y-56.525
X54.642Y-103.47
X54.942Y-72.27
X55.142Y-86.01
X55.542Y-116.807
X55.755Y-52.675
X55.816Y-55.47
X55.816Y-58.744
X55.842Y-60.014
X56.044Y-113.975
X56.125Y-120.228
X56.542Y-58.708
X56.57Y-60.014
X56.641Y-102.069
X57.355Y-53.891
X57.355Y-55.245
X57.442Y-122.47
X57.485Y-115.64
X57.706Y-103.469
X57.852Y-46.72
X57.965Y-83.093
X58.317Y-49.474
X58.342Y-100.98
X58.367Y-103.167
X58.816Y-122.566
X58.833Y-48.958
X59.284Y-53.891
X59.284Y-55.245
X59.642Y-43.22
X59.642Y-46.72
X59.725Y-31.05
X59.725Y-33.05
X60.072Y-113.133
X60.317Y-49.483
X60.792Y-62.82
X60.887Y-72.225
X61.042Y-49.434
X61.053Y-113.133
X61.377Y-75.731
X61.398Y-124.763
X61.56Y-77.645
X61.642Y-43.22
X62.212Y-84.42
X62.242Y-79.47
X62.642Y-100.471
X62.816Y-82.76
X63.021Y-106.432
X63.146Y-86.517
X63.231Y-64.542
X63.242Y-114.651
X63.341Y-92.424
X63.342Y-93.236
X63.348Y-91.697
X63.432Y-105.199
X63.535Y-105.918
X63.6Y-37.35
X63.742Y-67.748
X63.849Y-91.17
X63.873Y-86.517
X63.881Y-85.097
X63.942Y-78.37
X64.052Y-64.67
X64.072Y-104.854
X64.103Y-90.45
X64.315Y-89.023
X64.352Y-89.753
X64.433Y-80.527
X64.475Y-67.748
X64.521Y-100.98
X64.6Y-86.517
X64.642Y-113.67
X64.727Y-105.184
X64.752Y-55.245
X64.887Y-72.225
X64.896Y-107.817
X65.043Y-89.022
X65.069Y-83.909
X65.164Y-64.777
X65.202Y-67.748
X65.241Y-105.698
X65.253Y-70.76
X65.281Y-100.913
X65.322Y-66.486
X65.327Y-86.517
X65.352Y-64.075
X65.352Y-65.48
X65.543Y-57.514
X65.57Y-47.425
X65.57Y-52.675
X65.599Y-103.614
X65.793Y-62.82
X65.817Y-81.608
X65.838Y-100.429
X65.929Y-67.748
X65.98Y-70.76
X66.005Y-55.67
X66.043Y-66.579
X66.054Y-86.517
X66.101Y-106.558
X66.331Y-81.094
X66.333Y-64.936
X66.526Y-101.487
X66.552Y-64.243
X66.619Y-100.5
X66.656Y-67.748
X66.707Y-70.76
X66.736Y-96.441
X66.736Y-98.981
X66.736Y-99.782
X66.781Y-86.517
X66.84Y-47.425
X66.84Y-52.675
X66.85Y-43.35
X66.932Y-65.724
X67.033Y-104.575
X67.244Y-101.626
X67.296Y-85.225
X67.383Y-67.748
X67.434Y-70.76
X67.468Y-86.279
X67.498Y-105.134
X67.533Y-64.908
X67.752Y-102.952
X67.752Y-103.679
X67.752Y-104.407
X67.843Y-89.022
X67.861Y-90.368
X68.1Y-35.5
X68.1Y-43.35
X68.11Y-47.425
X68.11Y-52.675
X68.11Y-67.748
X68.161Y-70.76
X68.615Y-114.225
X68.642Y-49.761
X68.647Y-48.707
X68.733Y-93.456
X68.742Y-76.07
X68.743Y-92.729
X68.837Y-67.748
X68.888Y-87.172
X68.888Y-70.76
X69.065Y-89.022
X69.08Y-107.589
X69.08Y-102.952
X69.08Y-103.679
X69.08Y-104.407
X69.08Y-106.135
X69.08Y-106.862
X69.09Y-84.266
X69.09Y-84.993
X69.09Y-85.72
X69.09Y-86.473
X69.096Y-90.329
X69.13Y-114.739
X69.328Y-66.579
X69.38Y-52.675
X69.442Y-94.87
X69.564Y-67.74
X69.588Y-101.17
X69.588Y-101.897
X69.615Y-70.76
X69.822Y-90.23
X69.842Y-98.809
X69.852Y-81.72
X69.852Y-82.447
X69.852Y-88.681
X69.852Y-87.954
X69.87Y-54.153
X70.073Y-55.507
X70.241Y-91.471
X70.242Y-68.001
X70.242Y-109.11
X70.242Y-111.07
X70.244Y-92.96
X70.343Y-70.76
X70.504Y-74.816
X70.504Y-75.543
X70.549Y-90.23
X70.587Y-56.021
X70.833Y-86.092
X70.833Y-81.72
X70.833Y-82.447
X70.883Y-85.349
X70.886Y-87.568
X71.101Y-55.507
X71.134Y-68.001
X71.134Y-70.76
X71.142Y-83.72
X71.142Y-91.465
X71.142Y-94.22
X71.142Y-96.22
X71.205Y-88.72
X71.276Y-90.23
X71.383Y-86.929
X71.402Y-112.47
X71.402Y-113.197
X71.402Y-113.924
X71.452Y-37.06
X71.452Y-46.72
X71.452Y-48.707
X71.452Y-49.761
X71.609Y-80.451
X71.842Y-54.153
X71.861Y-70.76
X71.974Y-91.21
X72.142Y-87.568
X72.259Y-56.688
X72.292Y-102.17
X72.352Y-93.079
X72.383Y-113.149
X72.433Y-52.87
X72.494Y-89.708
X72.57Y-54.153
X72.588Y-68.001
X72.588Y-70.76
X72.642Y-112.47
X72.687Y-48.707
X72.687Y-49.761
X72.729Y-91.089
X72.742Y-62.82
X72.843Y-86.57
X72.869Y-87.571
X72.999Y-98.275
X73.015Y-106.64
X73.263Y-79.153
X73.315Y-68.001
X73.315Y-70.76
X73.392Y-43.22
X73.392Y-46.72
X73.423Y-90.248
X73.474Y-92.451
X73.475Y-31.05
X73.475Y-33.05
X73.648Y-86.841
X73.648Y-87.568
X73.742Y-106.64
X73.893Y-108.637
X73.992Y-62.82
X74.042Y-68.001
X74.042Y-70.76
X74.392Y-91.693
X74.4Y-95.755
X74.405Y-98.333
X74.77Y-66.004
X74.77Y-70.76
X74.787Y-73.092
X74.787Y-75.484
X74.787Y-76.23
X74.843Y-46.72
X74.873Y-112.99
X74.873Y-115.53
X74.873Y-118.07
X74.892Y-84.247
X74.892Y-88.193
X74.983Y-91.23
X74.983Y-96.22
X75.023Y-82.738
X75.05Y-80.22
X75.242Y-62.82
X75.26Y-68.001
X75.392Y-43.22
X75.98Y-95.22
X76.05Y-95.944
X76.142Y-71.795
X76.442Y-62.77
X76.454Y-108.637
X76.488Y-54.153
X76.668Y-67.748
X76.696Y-55.507
X76.91Y-83.22
X76.91Y-90.22
X76.956Y-88.189
X76.963Y-89.247
X77.024Y-101.24
X77.215Y-54.153
X77.223Y-57.995
X77.3Y-37.35
X77.425Y-92.27
X77.593Y-101.692
X77.642Y-78.22
X77.687Y-94.316
X77.687Y-95.043
X77.687Y-98.77
X77.687Y-99.497
X77.739Y-95.974
X77.752Y-67.748
X77.816Y-75.807
X77.85Y-97.983
X77.892Y-123.632
X77.942Y-54.153
X77.942Y-57.514
X78.142Y-71.795
X78.219Y-42.386
X78.267Y-41.593
X78.343Y-108.891
X78.473Y-98.862
X78.473Y-102.572
X78.531Y-65.688
X78.674Y-95.86
X78.829Y-56.77
X78.829Y-57.497
X78.829Y-62.117
X78.829Y-62.844
X78.829Y-63.571
X78.829Y-64.298
X78.829Y-65.025
X78.902Y-76.972
X78.954Y-106.347
X78.987Y-89.73
X78.987Y-94.039
X78.987Y-103.086
X79.008Y-100.641
X79.07Y-108.891
X79.073Y-105.47
X79.08Y-70.76
X79.32Y-47.425
X79.32Y-52.67
X79.32Y-55.643
X79.392Y-95.968
X79.392Y-98.22
X79.502Y-103.6
X79.522Y-100.127
X79.54Y-110.829
X79.698Y-66.004
X79.807Y-70.76
X79.815Y-68.001
X79.892Y-37.47
X79.892Y-77.72
X79.892Y-123.632
X79.964Y-108.364
X79.973Y-104.438
X79.973Y-107.637
X80.064Y-58.808
X80.392Y-96.202
X80.392Y-101.22
X80.526Y-102.159
X80.534Y-70.76
X80.542Y-58.261
X80.542Y-68.001
X80.59Y-47.425
X80.59Y-52.675
X80.6Y-43.35
X80.721Y-111.11
X81.04Y-102.674
X81.208Y-104.589
X81.208Y-107.637
X81.208Y-108.374
X81.225Y-48.413
X81.261Y-70.76
X81.317Y-61.353
X81.317Y-62.08
X81.317Y-62.807
X81.317Y-63.534
X81.317Y-64.261
X81.317Y-64.989
X81.442Y-68.001
X81.554Y-103.188
X81.642Y-58.37
X81.742Y-110.856
X81.85Y-35.5
X81.85Y-43.35
X81.86Y-54.69
X81.882Y-107.25
X81.892Y-56.72
X81.988Y-70.76
X82.17Y-68.001
X82.233Y-108.859
X82.276Y-106.015
X82.308Y-78.967
X82.535Y-94.581
X82.715Y-70.76
X82.79Y-106.529
X83.293Y-108.485
X83.316Y-114.857
X83.383Y-101.974
X83.442Y-70.76
X83.484Y-106.864
X83.633Y-65.73
X83.648Y-101.297
X83.899Y-98.072
X83.902Y-100.57
X83.998Y-107.378
X84.242Y-71.67
X84.36Y-65.73
X84.512Y-107.892
X84.542Y-119.167
X84.542Y-120.148
X84.563Y-46.72
X84.972Y-74.779
X85.026Y-108.406
X85.1Y-50.47
X85.137Y-99.926
X85.137Y-100.653
X85.137Y-101.38
X85.193Y-99.201
X85.365Y-96.155
X85.392Y-98.22
X85.892Y-92.97
X85.892Y-95.108
X86.091Y-107.006
X86.117Y-98.286
X86.142Y-57.814
X86.392Y-46.72
X86.487Y-38.469
X86.51Y-56.38
X86.607Y-99.585
X86.699Y-98.72
X86.741Y-42.315
X86.741Y-40.843
X86.741Y-41.57
X86.759Y-64.459
X86.759Y-68.492
X86.762Y-107.583
X86.892Y-96.202
X87.062Y-105.778
X87.273Y-69.006
X87.276Y-108.097
X87.309Y-43.024
X87.454Y-64.245
X87.632Y-57.814
X87.834Y-106.55
X87.875Y-105.399
X87.902Y-98.261
X87.902Y-99.112
X88.241Y-64.968
X88.242Y-104.17
X88.25Y-54.407
X88.343Y-95.108
X88.349Y-107.064
X88.91Y-55.238
X88.988Y-64.968
X89.156Y-112.499
X89.666Y-106.573
X89.715Y-64.968
X89.742Y-57.56
X89.817Y-68.492
X89.942Y-104.17
X90.343Y-93.032
X90.343Y-94.581
X90.367Y-35.245
X90.383Y-98.761
X90.392Y-96.202
X90.441Y-64.92
X90.442Y-71.67
X90.442Y-74.784
X90.51Y-68.825
X90.785Y-78.967
X90.885Y-98.09
X91.172Y-53.07
X91.209Y-64.71
X91.642Y-65.72
X91.642Y-68.492
X91.865Y-98.253
X92.102Y-125.69
X92.233Y-51.754
X92.343Y-93.032
X92.343Y-95.108
X92.365Y-111.639
X92.37Y-68.492
X92.392Y-72.67
X92.392Y-73.423
X92.392Y-74.15
X92.392Y-74.877
X92.392Y-77.97
X92.892Y-76.97
X93.017Y-62.82
X93.07Y-73.16
X93.53Y-109.586
X93.584Y-77.193
X93.585Y-110.791
X93.87Y-93.801
X94.083Y-94.496
X94.14Y-116.84
X94.152Y-109.97
X94.267Y-62.82
X94.346Y-103.017
X94.392Y-73.87
X94.402Y-70.656
X94.538Y-103.903
X94.642Y-106.827
X94.654Y-116.326
X94.665Y-66.241
X94.665Y-68.492
X94.805Y-94.581
X94.892Y-100.57
X95.115Y-78.96
X95.115Y-79.687
X95.27Y-102.091
X95.392Y-66.241
X95.392Y-68.492
X95.517Y-62.82
X95.552Y-100.25
X95.552Y-102.836
X95.621Y-104.986
X95.883Y-73.917
X95.883Y-70.909
X95.883Y-73.175
X95.919Y-90.481
X95.919Y-91.208
X95.919Y-91.935
X95.919Y-92.662
X95.919Y-93.389
X96.12Y-68.492
X96.142Y-88.247
X96.169Y-79.97
X96.212Y-94.054
X96.243Y-94.781
X96.246Y-66.241
X96.288Y-83.27
X96.352Y-69.181
X96.417Y-74.77
X96.61Y-73.16
X96.61Y-70.909
X96.65Y-36.93
X96.843Y-52.27
X96.961Y-65.914
X97.041Y-98.997
X97.132Y-106.827
X97.137Y-74.589
X97.142Y-96.77
X97.142Y-97.497
X97.305Y-77.643
X97.333Y-68.819
X97.353Y-73.21
X97.45Y-36.93
X97.596Y-106.267
X97.609Y-39.955
X97.736Y-108.57
X97.741Y-103.127
X97.797Y-104.362
X97.803Y-100.747
X97.803Y-101.474
X97.859Y-100.023
X97.889Y-40.661
X98.122Y-105.047
X98.15Y-106.821
X98.235Y-79.72
X98.367Y-90.71
X98.371Y-85.21
X98.59Y-39.181
X98.642Y-39.906
X98.664Y-107.335
X98.791Y-92.178
X98.843Y-83.73
X98.843Y-105.37
X98.88Y-85.73
X99.038Y-100.994
X99.055Y-79.71
X99.118Y-106.043
X99.442Y-94.22
X99.505Y-96.27
X99.615Y-66.241
X99.615Y-68.492
X99.632Y-106.557
X99.782Y-79.814
X99.8Y-45.05
X99.822Y-102.743
X99.89Y-53.102
X100.343Y-66.241
X100.343Y-68.492
X100.349Y-90.972
X100.349Y-93.25
X100.442Y-75.87
X100.507Y-80.069
X100.552Y-80.794
X100.552Y-81.521
X100.642Y-85.73
X100.742Y-111.52
X100.803Y-103.036
X100.803Y-106.827
X100.927Y-74.465
X100.935Y-73.23
X100.967Y-70.308
X101.022Y-108.57
X101.042Y-83.73
X101.07Y-66.241
X101.07Y-68.492
X101.242Y-78.07
X101.297Y-89.21
X101.533Y-84.791
X101.539Y-90.972
X101.58Y-96.27
X101.632Y-64.561
X101.642Y-87.67
X101.642Y-94.27
X101.652Y-73.483
X101.652Y-74.27
X101.652Y-77.068
X101.652Y-71.413
X101.68Y-84.079
X101.749Y-108.57
X101.797Y-66.241
X101.797Y-68.492
X101.843Y-82.67
X101.886Y-63.846
X102.115Y-107.081
X102.135Y-91.462
X102.14Y-55.084
X102.142Y-43.51
X102.25Y-36.93
X102.263Y-89.991
X102.419Y-45.74
X102.524Y-66.241
X102.583Y-68.492
X102.616Y-115.196
X102.693Y-46.413
X102.843Y-105.592
X102.843Y-107.335
X103.05Y-36.93
X103.167Y-115.748
X103.251Y-66.241
X103.287Y-48.074
X103.287Y-49.128
X103.287Y-51.754
X103.3Y-41.5
X103.577Y-69.401
X103.649Y-73.72
X103.649Y-74.447
X103.649Y-75.174
X103.681Y-116.262
X103.692Y-116.989
X103.903Y-75.901
X103.963Y-68.746
X104.113Y-73.16
X104.142Y-66.241
X104.157Y-70.363
X104.157Y-71.09
X104.164Y-83.947
X104.174Y-85.649
X104.236Y-108.57
X104.243Y-86.373
X104.406Y-84.96
X104.542Y-103.501
X104.641Y-45.611
X104.641Y-48.074
X104.641Y-49.128
X104.641Y-51.754
X104.673Y-116.82
X104.719Y-65.53
X104.725Y-69.373
X104.84Y-73.16
X104.869Y-66.241
X104.884Y-74.166
X104.942Y-46.77
X104.97Y-86.37
X104.987Y-75.147
X105.173Y-77.539
X105.2Y-41.5
X105.209Y-111.197
X105.242Y-103.501
X105.31Y-115.287
X105.523Y-43.77
X105.567Y-73.174
X105.596Y-65.987
X105.596Y-69.373
X105.611Y-74.16
X105.695Y-88.323
X105.697Y-86.37
X105.8Y-45.865
X105.838Y-83.873
X105.942Y-103.501
X106.037Y-115.25
X106.142Y-76.733
X106.294Y-73.16
X106.415Y-107.335
X106.424Y-86.37
X106.522Y-84.119
X106.642Y-61.22
X106.784Y-74.16
X106.843Y-115.138
X106.953Y-83.074
X106.968Y-117.17
X107.021Y-73.16
X107.142Y-107.335
X107.142Y-108.316
X107.151Y-86.37
X107.304Y-84.119
X107.692Y-68.746
X107.748Y-73.16
X107.87Y-108.316
X107.878Y-86.37
X108.14Y-84.119
X108.533Y-83.495
X108.605Y-86.37
X108.742Y-78.17
X108.906Y-84.119
X109.142Y-116.77
X109.142Y-122.47
X109.33Y-73.16
X109.391Y-86.37
X109.742Y-84.119
X109.858Y-71.417
X110.242Y-111.47
X110.442Y-107.081
X110.516Y-43.464
X110.615Y-115.22
X110.75Y-48.601
X110.895Y-42.41
X111.067Y-124.02
X111.142Y-108.37
X111.442Y-107.335
X111.656Y-85.937
X111.744Y-105.846
X111.843Y-83.475
X111.903Y-86.914
X111.962Y-99.208
X111.962Y-99.935
X111.962Y-100.662
X111.962Y-101.389
X112.113Y-122.547
X112.216Y-87.57
X112.216Y-102.792
X112.216Y-103.519
X112.252Y-51.754
X112.288Y-80.831
X112.292Y-105.368
X112.47Y-84.965
X112.47Y-104.246
X112.595Y-83.73
X112.65Y-48.601
X112.712Y-83.0
X112.858Y-115.22
X112.869Y-121.679
X112.958Y-107.335
X113.234Y-118.482
X113.343Y-120.47
X113.353Y-51.754
X113.567Y-124.45
X113.642Y-78.07
X113.707Y-69.373
X113.792Y-117.37
X113.852Y-63.77
X113.852Y-64.544
X114.237Y-106.055
X114.272Y-69.87
X114.272Y-73.16
X114.334Y-51.754
X114.569Y-67.996
X114.57Y-50.333
X114.762Y-105.487
X114.807Y-53.115
X114.84Y-87.079
X114.84Y-87.97
X115.061Y-51.754
X115.094Y-102.792
X115.094Y-103.519
X115.255Y-47.604
X115.343Y-68.12
X115.348Y-99.208
X115.348Y-99.935
X115.348Y-100.662
X115.348Y-101.389
X115.442Y-83.06
X115.626Y-73.16
X115.626Y-78.325
X115.908Y-47.284
X116.55Y-50.333
X116.55Y-51.754
X116.611Y-63.77
X116.815Y-107.085
X116.843Y-123.97
X116.843Y-124.97
X116.843Y-125.97
X116.843Y-126.97
X116.843Y-127.97
X116.85Y-44.1
X116.95Y-48.601
X117.149Y-103.714
X117.242Y-65.62
X117.242Y-69.37
X117.242Y-75.12
X117.242Y-76.37
X117.542Y-104.325
X117.542Y-107.085
X117.642Y-38.97
X117.642Y-40.97
X117.862Y-118.97
X117.942Y-56.67
X117.942Y-58.67
X118.132Y-78.834
X118.142Y-81.47
X118.224Y-104.58
X118.27Y-107.085
X118.85Y-46.601
X119.62Y-104.579
X119.642Y-38.97
X119.642Y-40.97
X119.742Y-111.52
X120.042Y-117.37
X120.093Y-59.67
X120.75Y-46.601
X121.305Y-82.97
X121.506Y-92.57
X121.843Y-81.47
X121.855Y-116.17
X122.379Y-82.97
X122.496Y-90.523
X122.741Y-91.734
X122.995Y-96.924
X122.995Y-92.47
X122.995Y-93.197
X123.019Y-120.977
X123.03Y-105.831
X123.249Y-98.159
X123.249Y-100.594
X123.618Y-121.389
X123.742Y-96.679
X123.757Y-102.779
X123.786Y-97.66
X123.95Y-119.975
X124.099Y-117.268
X125.113Y-117.412
X125.742Y-63.12
X125.742Y-64.37
X125.742Y-93.37
X125.742Y-114.307
X126.35Y-65.62
X126.35Y-66.87
X126.35Y-68.12
X126.35Y-69.37
X126.35Y-75.12
X126.35Y-76.37
X126.35Y-77.62
X126.35Y-78.87
X126.35Y-80.12
X126.35Y-81.37
X126.35Y-87.12
X126.45Y-42.675
X126.45Y-43.925
X126.45Y-45.175
X126.45Y-46.425
X129.917Y-97.17
T2
X33.7Y-34.05
X33.7Y-125.05
X34.403Y-32.353
X34.403Y-35.747
X34.403Y-123.353
X34.403Y-126.747
X36.1Y-31.65
X36.1Y-36.45
X36.1Y-122.65
X36.1Y-127.45
X37.797Y-32.353
X37.797Y-35.747
X37.797Y-123.353
X37.797Y-126.747
X38.5Y-34.05
X38.5Y-125.05
X124.7Y-34.05
X124.7Y-125.05
X125.403Y-32.353
X125.403Y-35.747
X125.403Y-123.353
X125.403Y-126.747
X127.1Y-31.65
X127.1Y-36.45
X127.1Y-122.65
X127.1Y-127.45
X128.797Y-32.353
X128.797Y-35.747
X128.797Y-123.353
X128.797Y-126.747
X129.5Y-34.05
X129.5Y-125.05
T5
X86.602Y-102.12
X91.682Y-102.12
T6
X75.867Y-110.45
X75.867Y-112.99
X75.867Y-115.53
X75.867Y-118.07
X75.867Y-120.61
X75.867Y-123.15
X75.867Y-125.69
X91.108Y-110.45
X91.108Y-112.99
X91.108Y-115.53
X91.108Y-118.07
X91.108Y-120.61
X91.108Y-123.15
X91.108Y-125.69
T7
X40.5Y-47.664
X40.5Y-49.696
X40.5Y-51.728
X40.5Y-53.76
X40.5Y-67.644
X40.5Y-69.676
X40.5Y-71.708
X40.5Y-73.74
X40.5Y-87.624
X40.5Y-89.656
X40.5Y-91.688
X40.5Y-93.72
X40.5Y-107.604
X40.5Y-109.636
X40.5Y-111.668
X40.5Y-113.7
X42.28Y-46.648
X42.28Y-48.68
X42.28Y-50.712
X42.28Y-52.744
X42.28Y-66.628
X42.28Y-68.66
X42.28Y-70.692
X42.28Y-72.724
X42.28Y-86.608
X42.28Y-88.64
X42.28Y-90.672
X42.28Y-92.704
X42.28Y-106.588
X42.28Y-108.62
X42.28Y-110.652
X42.28Y-112.684
X47.1Y-43.34
X47.1Y-45.63
X47.1Y-54.77
X47.1Y-57.06
X47.1Y-63.32
X47.1Y-65.61
X47.1Y-74.75
X47.1Y-77.04
X47.1Y-83.3
X47.1Y-85.59
X47.1Y-94.73
X47.1Y-97.02
X47.1Y-103.28
X47.1Y-105.57
X47.1Y-114.71
X47.1Y-117.0
T8
X43.742Y-124.17
X46.242Y-124.17
X48.742Y-124.17
X59.742Y-115.67
X62.242Y-115.67
X64.242Y-115.67
X66.742Y-115.67
X121.8Y-53.3
X121.8Y-55.8
X127.8Y-108.17
X127.8Y-110.67
X127.8Y-113.17
T9
X47.1Y-35.875
X47.1Y-38.415
X51.142Y-92.77
X51.142Y-95.31
X51.142Y-97.85
X51.142Y-100.39
X51.142Y-102.93
X55.542Y-89.93
X55.542Y-92.47
X55.542Y-95.01
X55.542Y-97.55
X58.023Y-110.97
X58.742Y-89.93
X58.742Y-92.47
X58.742Y-95.01
X58.742Y-97.55
X60.562Y-110.97
X60.6Y-35.875
X60.6Y-38.415
X61.942Y-89.93
X61.942Y-92.47
X61.942Y-95.01
X61.942Y-97.55
X63.102Y-110.97
X65.642Y-110.97
X66.142Y-90.23
X66.142Y-92.77
X66.142Y-95.31
X66.142Y-97.85
X74.35Y-35.875
X74.35Y-38.415
X84.742Y-59.37
X84.742Y-61.91
X85.093Y-55.77
X87.632Y-55.77
X90.172Y-55.77
X92.712Y-55.77
X92.76Y-49.75
X92.78Y-42.0
X95.252Y-55.77
X95.3Y-49.75
X95.32Y-42.0
X97.792Y-55.77
X97.84Y-49.75
X97.86Y-42.0
X100.38Y-49.75
X100.4Y-42.0
X104.042Y-59.32
X106.102Y-81.47
X106.218Y-70.77
X108.642Y-81.47
X108.757Y-70.77
X111.182Y-81.47
X111.297Y-70.77
X111.642Y-59.32
X113.722Y-81.47
T10
X88.075Y-31.075
X88.075Y-37.575
X92.575Y-31.075
X92.575Y-37.575
X96.492Y-109.27
X96.492Y-113.77
X102.992Y-109.27
X102.992Y-113.77
X105.992Y-109.27
X105.992Y-113.77
X112.492Y-109.27
X112.492Y-113.77
X115.492Y-109.27
X115.492Y-113.77
X121.992Y-109.27
X121.992Y-113.77
T11
X41.39Y-42.07
X41.39Y-58.33
X41.39Y-62.05
X41.39Y-78.31
X41.39Y-82.03
X41.39Y-98.29
X41.39Y-102.01
X41.39Y-118.27
T12
X56.672Y-118.38
X69.812Y-118.38
T13
X36.1Y-34.05
X36.1Y-125.05
X127.1Y-34.05
X127.1Y-125.05
T3
X95.53Y-32.575G85X95.53Y-31.775
G05
X95.53Y-36.905G85X95.53Y-35.805
G05
X104.17Y-32.575G85X104.17Y-31.775
G05
X104.17Y-36.905G85X104.17Y-35.805
G05
T4
X96.55Y-118.175G85X96.55Y-117.675
G05
X101.15Y-118.175G85X101.15Y-117.675
G05
T9
X96.0Y-125.575G85X96.0Y-125.275
G05
X101.7Y-125.575G85X101.7Y-125.275
G05
M30
